<svg width="6" height="12" viewBox="0 0 6 12" fill="none" xmlns="http://www.w3.org/2000/svg">
<path d="M0.472041 10.4673C0.177844 10.7589 0.175726 11.2338 0.467309 11.528C0.758893 11.8222 1.23376 11.8243 1.52796 11.5327L3.32269 9.7539C3.99866 9.08396 4.55114 8.53641 4.94294 8.04854C5.35037 7.54122 5.64531 7.02628 5.72409 6.40816C5.75864 6.13714 5.75864 5.86286 5.72409 5.59184C5.64531 4.97372 5.35037 4.45878 4.94294 3.95146C4.55114 3.46359 3.99867 2.91605 3.32271 2.24611L1.52796 0.467309C1.23376 0.175726 0.758894 0.177844 0.46731 0.472041C0.175727 0.766238 0.177845 1.24111 0.472043 1.53269L2.23501 3.28C2.9505 3.98914 3.44131 4.47718 3.77341 4.8907C4.09601 5.2924 4.20668 5.55042 4.23613 5.78149C4.25462 5.92659 4.25462 6.07341 4.23613 6.2185C4.20668 6.44958 4.09601 6.7076 3.77341 7.10929C3.44131 7.52282 2.9505 8.01086 2.23501 8.72L0.472041 10.4673Z" fill="#F4F4F4"/>
</svg>
