<svg width="24" height="24" viewBox="0 0 24 24" fill="none" xmlns="http://www.w3.org/2000/svg">
<path d="M5.71062 14.362L11.4756 19.9882C11.6392 20.1479 11.7211 20.2278 11.8121 20.2647C11.9326 20.3136 12.0674 20.3136 12.1879 20.2647C12.2789 20.2278 12.3608 20.1479 12.5244 19.9882L18.2894 14.362C19.8408 12.848 20.0308 10.4189 18.7337 8.68201L18.3971 8.23132C16.8043 6.09859 13.5097 6.44715 12.3985 8.86596C12.242 9.20656 11.758 9.20656 11.6015 8.86596C10.4903 6.44715 7.19569 6.09858 5.60293 8.23131L5.26634 8.68201C3.9692 10.4189 4.1592 12.848 5.71062 14.362Z" stroke="#5670B6"/>
</svg>
