<svg width="30" height="30" viewBox="0 0 30 30" fill="none" xmlns="http://www.w3.org/2000/svg">
<g opacity="0.5">
<path d="M11.25 8.75L16.25 8.75" stroke="white" stroke-width="2" stroke-linecap="round"/>
<path d="M11.25 18.75L15 18.75" stroke="white" stroke-width="2" stroke-linecap="round"/>
<path d="M11.25 13.75L18.75 13.75" stroke="white" stroke-width="2" stroke-linecap="round"/>
<path d="M23.75 13.75V9.75C23.75 6.92157 23.75 5.50736 22.8713 4.62868C21.9926 3.75 20.5784 3.75 17.75 3.75H12.25C9.42157 3.75 8.00736 3.75 7.12868 4.62868C6.25 5.50736 6.25 6.92157 6.25 9.75V20.25C6.25 23.0784 6.25 24.4926 7.12868 25.3713C8.00736 26.25 9.42157 26.25 12.25 26.25H15" stroke="white" stroke-width="2" stroke-linecap="round"/>
<circle cx="21.875" cy="21.875" r="3.125" stroke="white" stroke-width="2" stroke-linecap="round"/>
<path d="M26.25 26.25L24.375 24.375" stroke="white" stroke-width="2" stroke-linecap="round"/>
</g>
</svg>
