<svg width="24" height="24" viewBox="0 0 24 24" fill="none" xmlns="http://www.w3.org/2000/svg">
<path d="M12.4069 16.5906L12.6469 17.0292H12.6469L12.4069 16.5906ZM11.5933 16.5906L11.8333 16.152L11.8333 16.152L11.5933 16.5906ZM16.9446 9.59999C16.9446 11.3822 16.0854 12.8405 15.0352 13.9588C13.9842 15.0779 12.7754 15.819 12.1669 16.152L12.6469 17.0292C13.3022 16.6707 14.6122 15.87 15.7641 14.6434C16.9168 13.416 17.9446 11.7249 17.9446 9.59999H16.9446ZM12.0001 4.5C14.7177 4.5 16.9446 6.76997 16.9446 9.59999H17.9446C17.9446 6.24443 15.2963 3.5 12.0001 3.5V4.5ZM7.05566 9.59999C7.05566 6.76997 9.28255 4.5 12.0001 4.5V3.5C8.7039 3.5 6.05566 6.24443 6.05566 9.59999H7.05566ZM11.8333 16.152C11.2248 15.819 10.016 15.0779 8.96503 13.9588C7.91479 12.8405 7.05566 11.3822 7.05566 9.59999H6.05566C6.05566 11.7249 7.08345 13.416 8.23608 14.6434C9.38801 15.87 10.698 16.6707 11.3533 17.0292L11.8333 16.152ZM12.1669 16.152C12.0601 16.2104 11.9401 16.2104 11.8333 16.152L11.3533 17.0292C11.7592 17.2514 12.241 17.2514 12.6469 17.0292L12.1669 16.152ZM13.8334 9.59997C13.8334 10.6627 12.9994 11.5 12.0001 11.5V12.5C13.5781 12.5 14.8334 11.1882 14.8334 9.59997H13.8334ZM12.0001 7.69997C12.9994 7.69997 13.8334 8.53725 13.8334 9.59997H14.8334C14.8334 8.01171 13.5781 6.69997 12.0001 6.69997V7.69997ZM10.1667 9.59997C10.1667 8.53725 11.0007 7.69997 12.0001 7.69997V6.69997C10.4221 6.69997 9.16675 8.01171 9.16675 9.59997H10.1667ZM12.0001 11.5C11.0007 11.5 10.1667 10.6627 10.1667 9.59997H9.16675C9.16675 11.1882 10.4221 12.5 12.0001 12.5V11.5Z" fill="#F4F4F4"/>
<path d="M18.0622 16.4C18.6766 16.7649 19 17.1787 19 17.6C19 18.0213 18.6766 18.4352 18.0622 18.8C17.4478 19.1649 16.5641 19.4678 15.5 19.6785C14.4359 19.8891 13.2288 20 12 20C10.7712 20 9.56414 19.8891 8.5 19.6785C7.43587 19.4678 6.5522 19.1649 5.93782 18.8C5.32344 18.4352 5 18.0213 5 17.6C5 17.1787 5.32344 16.7649 5.93782 16.4" stroke="#F4F4F4" stroke-linecap="round"/>
</svg>
