<svg width="26" height="29" viewBox="0 0 26 29" fill="none" xmlns="http://www.w3.org/2000/svg">
<path d="M13.6782 21.901L13.4382 21.4624H13.4382L13.6782 21.901ZM12.3222 21.901L12.0822 22.3397H12.0822L12.3222 21.901ZM21.5743 10.25C21.5743 13.3345 20.0862 15.8427 18.3017 17.7429C16.5164 19.6439 14.468 20.8989 13.4382 21.4624L13.9183 22.3397C14.9948 21.7506 17.1444 20.436 19.0306 18.4275C20.9175 16.4183 22.5743 13.6772 22.5743 10.25H21.5743ZM13.0002 1.41669C17.7224 1.41669 21.5743 5.35813 21.5743 10.25H22.5743C22.5743 4.83259 18.301 0.416687 13.0002 0.416687V1.41669ZM4.42615 10.25C4.42615 5.35813 8.27807 1.41669 13.0002 1.41669V0.416687C7.69942 0.416687 3.42615 4.83259 3.42615 10.25H4.42615ZM12.5622 21.4624C11.5324 20.8989 9.484 19.6439 7.69877 17.7429C5.91425 15.8427 4.42615 13.3345 4.42615 10.25H3.42615C3.42615 13.6772 5.08291 16.4183 6.96983 18.4275C8.85604 20.436 11.0056 21.7506 12.0822 22.3397L12.5622 21.4624ZM13.4382 21.4624C13.1605 21.6144 12.84 21.6144 12.5622 21.4624L12.0822 22.3397C12.659 22.6553 13.3414 22.6553 13.9183 22.3397L13.4382 21.4624ZM16.389 10.25C16.389 12.1963 14.8586 13.75 13.0001 13.75V14.75C15.4372 14.75 17.389 12.7219 17.389 10.25H16.389ZM13.0001 6.74997C14.8586 6.74997 16.389 8.3036 16.389 10.25H17.389C17.389 7.77806 15.4372 5.74997 13.0001 5.74997V6.74997ZM9.61125 10.25C9.61125 8.3036 11.1417 6.74997 13.0001 6.74997V5.74997C10.563 5.74997 8.61125 7.77806 8.61125 10.25H9.61125ZM13.0001 13.75C11.1417 13.75 9.61125 12.1963 9.61125 10.25H8.61125C8.61125 12.7219 10.563 14.75 13.0001 14.75V13.75Z" fill="#F4F4F4"/>
<path d="M23.1037 21.5834C24.1276 22.1914 24.6667 22.8812 24.6667 23.5834C24.6667 24.2855 24.1276 24.9753 23.1037 25.5834C22.0797 26.1914 20.6069 26.6964 18.8334 27.0475C17.0598 27.3985 15.048 27.5834 13 27.5834C10.9521 27.5834 8.94027 27.3985 7.16671 27.0475C5.39315 26.6964 3.92038 26.1914 2.89641 25.5834C1.87245 24.9753 1.33337 24.2855 1.33337 23.5834C1.33337 22.8812 1.87245 22.1914 2.89641 21.5834" stroke="#F4F4F4" stroke-linecap="round"/>
</svg>
