<svg width="46" height="46" viewBox="0 0 46 46" fill="none" xmlns="http://www.w3.org/2000/svg">
<path d="M9.58333 15.3334V34.3334C9.58333 36.219 9.58333 37.1618 10.1691 37.7476C10.7549 38.3334 11.6977 38.3334 13.5833 38.3334H32.4167C34.3023 38.3334 35.2451 38.3334 35.8309 37.7476C36.4167 37.1618 36.4167 36.219 36.4167 34.3334V15.3334M9.58333 15.3334H36.4167M9.58333 15.3334H6.15C5.96144 15.3334 5.86716 15.3334 5.80858 15.2748C5.75 15.2162 5.75 15.1219 5.75 14.9334V11.6667C5.75 9.78107 5.75 8.83826 6.33579 8.25247C6.92157 7.66669 7.86438 7.66669 9.75 7.66669H36.25C38.1356 7.66669 39.0784 7.66669 39.6642 8.25247C40.25 8.83826 40.25 9.78107 40.25 11.6667V14.9334C40.25 15.1219 40.25 15.2162 40.1914 15.2748C40.1328 15.3334 40.0386 15.3334 39.85 15.3334H36.4167" stroke="#F4F4F4" stroke-width="2"/>
<path d="M19.1667 30.6667H26.8334" stroke="#F4F4F4" stroke-width="2" stroke-linecap="round"/>
</svg>
