<svg width="0" height="0" class="hidden">
  <symbol fill="none" xmlns="http://www.w3.org/2000/svg" viewBox="0 0 40 40" id="Food">
    <path
      d="M8.72924 24.8376C7.77986 24.5879 6.92494 24.0644 6.27102 23.3322C5.6171 22.6001 5.19309 21.6917 5.05182 20.7202C4.91055 19.7488 5.05828 18.7572 5.47659 17.8691C5.8949 16.9811 6.5653 16.2357 7.40424 15.726C7.95091 15.3926 8.33258 14.8076 8.33258 14.1676C8.33222 12.5069 8.78304 10.8773 9.63685 9.45289C10.4907 8.02847 11.7154 6.86275 13.1802 6.08028C14.645 5.29781 16.2949 4.92798 17.9536 5.01029C19.6123 5.09261 21.2174 5.62398 22.5976 6.54764C23.2159 6.9643 24.0226 7.00597 24.7426 6.81097C25.3605 6.64453 26.0084 6.62248 26.6362 6.74653C27.264 6.87058 27.8549 7.1374 28.3631 7.52634C28.8712 7.91529 29.2831 8.41594 29.5668 8.98955C29.8506 9.56316 29.9985 10.1944 29.9992 10.8343C29.9992 11.3976 30.3276 11.946 30.8492 12.1593C32.034 12.6423 33.0548 13.4559 33.7898 14.503C34.5249 15.5502 34.9432 16.7867 34.9949 18.065C35.0465 19.3434 34.7293 20.6096 34.0812 21.7126C33.433 22.8157 32.4812 23.709 31.3392 24.286M8.72924 24.8376L9.81758 33.541C9.86794 33.944 10.0637 34.3147 10.3682 34.5836C10.6726 34.8524 11.0648 35.0009 11.4709 35.001H16.7477M8.72924 24.8376C9.95206 24.8997 11.5905 24.9609 13.4615 25.001M31.3392 24.286L30.1826 33.541C30.1322 33.9443 29.9361 34.3153 29.6314 34.5841C29.3266 34.853 28.934 35.0013 28.5276 35.001H23.4993M31.3392 24.286C29.1253 24.6346 26.3666 24.8383 23.4993 24.9458M12.1092 25.001H13.4615M14.9992 25.001H13.4615M21.6659 25.001H18.3326M16.7477 25.0445V35.001M16.7477 25.0445C18.924 25.0553 21.2452 25.0303 23.4993 24.9458M16.7477 25.0445C15.6018 25.0387 14.4961 25.0231 13.4615 25.001M16.7477 35.001H23.4993M23.4993 24.9458V35.001"
      stroke="#F4F4F4" stroke-width="2"></path>
  </symbol>
  <symbol fill="none" xmlns="http://www.w3.org/2000/svg" viewBox="0 0 40 40" id="Furniture">
    <path fill-rule="evenodd" clip-rule="evenodd"
      d="M9 4C6.23858 4 4 6.23858 4 9V16.416C2.2341 17.1876 1 18.9497 1 21V30C1 31.1046 1.89543 32 3 32H5V34.5C5 35.3284 5.67157 36 6.5 36C7.32843 36 8 35.3284 8 34.5V32H9H31H32V34.5C32 35.3284 32.6716 36 33.5 36C34.3284 36 35 35.3284 35 34.5V32H37C38.1046 32 39 31.1046 39 30V21C39 18.9497 37.7659 17.1876 36 16.416V9C36 6.23858 33.7614 4 31 4H9ZM33 30H37V21C37 19.3431 35.6569 18 34 18C32.3431 18 31 19.3431 31 21V30H33ZM29 30V22H11V30H29ZM9 30V21C9 19.3431 7.65685 18 6 18C4.34315 18 3 19.3431 3 21L3 30H8H9ZM34 16C31.581 16 29.5633 17.7178 29.1 20H10.9C10.4367 17.7178 8.41896 16 6 16V9C6 7.34315 7.34315 6 9 6H31C32.6569 6 34 7.34315 34 9V16Z"
      fill="#F4F4F4"></path>
  </symbol>
  <symbol fill="none" xmlns="http://www.w3.org/2000/svg" viewBox="0 0 40 40" id="Games">
    <path
      d="M36.0517 27.8035L36.9401 28.2625C37.1829 27.7926 37.0178 27.2149 36.5633 26.9443L36.0517 27.8035ZM36.0123 12.1209L36.5288 12.9772C36.9815 12.7041 37.1435 12.1259 36.8984 11.6574L36.0123 12.1209ZM22.9485 20L22.432 19.1437C22.1311 19.3252 21.9475 19.6514 21.9485 20.0028C21.9495 20.3542 22.1349 20.6794 22.4368 20.8592L22.9485 20ZM35.1632 27.3444C33.5187 30.5274 30.8534 33.0663 27.5944 34.5544L28.4252 36.3737C32.0916 34.6996 35.09 31.8433 36.9401 28.2625L35.1632 27.3444ZM27.5944 34.5544C24.3354 36.0426 20.6712 36.3939 17.1889 35.552L16.7189 37.496C20.6366 38.4431 24.7588 38.0479 28.4252 36.3737L27.5944 34.5544ZM17.1889 35.552C13.7065 34.7102 10.6074 32.7239 8.38804 29.9114L6.81798 31.1503C9.31474 34.3144 12.8012 36.5489 16.7189 37.496L17.1889 35.552ZM8.38804 29.9114C6.1687 27.0989 4.95753 23.6228 4.94854 20.0402L2.94854 20.0452C2.95866 24.0757 4.32122 27.9862 6.81798 31.1503L8.38804 29.9114ZM4.94854 20.0402C4.93955 16.4575 6.13326 12.9754 8.33846 10.1518L6.76221 8.92077C4.28136 12.0973 2.93843 16.0146 2.94854 20.0452L4.94854 20.0402ZM8.33846 10.1518C10.5437 7.32817 13.6327 5.32637 17.1109 4.46706L16.6312 2.52544C12.7183 3.49217 9.24306 5.74419 6.76221 8.92077L8.33846 10.1518ZM17.1109 4.46706C20.589 3.60774 24.2549 3.94064 27.5213 5.41242L28.3429 3.58897C24.6682 1.93321 20.544 1.55871 16.6312 2.52544L17.1109 4.46706ZM27.5213 5.41242C30.7878 6.8842 33.4657 9.40969 35.1262 12.5844L36.8984 11.6574C35.0304 8.0859 32.0177 5.24472 28.3429 3.58897L27.5213 5.41242ZM35.4959 11.2646L22.432 19.1437L23.4649 20.8563L36.5288 12.9772L35.4959 11.2646ZM22.4368 20.8592L35.54 28.6626L36.5633 26.9443L23.4602 19.1408L22.4368 20.8592Z"
      fill="#F4F4F4"></path>
    <circle cx="18.9485" cy="12" r="2" fill="#F4F4F4"></circle>
  </symbol>
  <symbol fill="none" xmlns="http://www.w3.org/2000/svg" viewBox="0 0 40 40" id="Hobbies">
    <path
      d="M17.3469 8.67305L18.0538 9.38041L18.3469 9.08747V8.67305H17.3469ZM13.9719 4.56555L13.2717 5.27952L13.2805 5.28809L13.2894 5.29643L13.9719 4.56555ZM12.1969 3.27805L12.6582 2.3908L12.6438 2.3833L12.6291 2.37627L12.1969 3.27805ZM9.9919 3.22805L9.49373 2.36096L9.48994 2.36316L9.9919 3.22805ZM8.9169 5.46805L7.91696 5.45677L7.91695 5.45818L8.9169 5.46805ZM9.3494 8.07805L10.311 7.8037L10.3106 7.80233L9.3494 8.07805ZM3.7469 22.2731L4.45401 22.9802L3.7469 22.2731ZM3.2019 24.568L4.18354 24.3773L4.18348 24.377L3.2019 24.568ZM4.1019 26.8256L4.97626 26.3403L4.97513 26.3382L4.1019 26.8256ZM8.1669 31.9956L7.45929 32.7022L7.4598 32.7027L8.1669 31.9956ZM13.3369 36.0606L13.8242 35.1873L13.8222 35.1862L13.3369 36.0606ZM15.5944 36.9606L15.4036 37.9422L15.4069 37.9428L15.5944 36.9606ZM17.8894 36.4156L18.5952 37.1239L18.5965 37.1227L17.8894 36.4156ZM31.9269 22.3781L32.8357 21.9608C32.6991 21.6633 32.4256 21.4515 32.1035 21.3938C31.7813 21.336 31.4512 21.4395 31.2198 21.6709L31.9269 22.3781ZM32.0519 24.7255L33.0467 24.8278L33.0471 24.8234L32.0519 24.7255ZM31.8694 27.6656L30.8694 27.6558L30.869 27.7007L30.8726 27.7456L31.8694 27.6656ZM31.9167 28.2543L30.9265 28.3943L32.9135 28.1742L31.9167 28.2543ZM31.8769 27.973L32.867 27.833L30.8804 28.0566L31.8769 27.973ZM34.3682 30.2641V31.2641V30.2641ZM36.8594 27.973L37.8559 28.0566L37.8572 28.0411L37.858 28.0256L36.8594 27.973ZM36.8669 27.8305L37.8655 27.8831L37.8663 27.8687L37.8666 27.8544L36.8669 27.8305ZM36.8569 27.538L35.8579 27.582L35.8589 27.6061L35.8611 27.6301L36.8569 27.538ZM31.6794 17.7181L32.5529 17.2313L32.5528 17.2311L31.6794 17.7181ZM22.4419 8.48305L22.9272 7.6087L22.9271 7.60863L22.4419 8.48305ZM20.1844 7.58305L20.3785 6.60205L20.3719 6.60078L20.1844 7.58305ZM17.8894 8.13055L18.5949 8.83929L18.5952 8.83893L17.8894 8.13055ZM17.3469 8.67055L16.6414 7.96181L16.3469 8.25498V8.67055H17.3469ZM13.7844 12.2331L13.0775 11.5257L13.0768 11.5264L13.7844 12.2331ZM13.2519 16.3031L12.3915 16.8127L12.3992 16.8257L12.4073 16.8384L13.2519 16.3031ZM16.5876 22.1171C16.9916 22.4936 17.6244 22.4714 18.0009 22.0673C18.3775 21.6633 18.3552 21.0306 17.9512 20.654L16.5876 22.1171ZM17.7844 11.7681L18.6963 11.3577L18.6827 11.3273L18.667 11.2979L17.7844 11.7681ZM18.2419 12.6806L19.1157 12.1942L19.1154 12.1937L18.2419 12.6806ZM22.3094 17.8506L23.017 17.1439L23.0165 17.1434L22.3094 17.8506ZM27.4794 21.9156L27.9663 21.0421L27.9641 21.0409L27.4794 21.9156ZM28.3919 22.3731L28.7976 21.459L28.7931 21.4571L28.3919 22.3731ZM24.3669 19.7342L23.7272 20.5028L24.3669 19.7342ZM18.1752 8.11272C17.004 6.38154 15.7842 4.88963 14.6544 3.83467L13.2894 5.29643C14.2746 6.21647 15.3998 7.57957 16.5186 9.23339L18.1752 8.11272ZM14.6721 3.85158C14.0767 3.26773 13.398 2.77544 12.6582 2.3908L11.7356 4.16531C12.2999 4.45869 12.8176 4.83419 13.2717 5.27952L14.6721 3.85158ZM12.6291 2.37627C11.9973 2.07346 10.7382 1.64601 9.49373 2.36097L10.4901 4.09513C10.8557 3.88509 11.3115 3.96264 11.7647 4.17983L12.6291 2.37627ZM9.48994 2.36316C8.07602 3.18377 7.92506 4.73952 7.91697 5.45677L9.91684 5.47933C9.92375 4.86658 10.0728 4.33733 10.4939 4.09294L9.48994 2.36316ZM7.91695 5.45818C7.90809 6.35579 8.1034 7.36102 8.38816 8.35378L10.3106 7.80233C10.0504 6.89508 9.91071 6.10032 9.91685 5.47792L7.91695 5.45818ZM8.38777 8.3524C8.90388 10.1614 9.83813 12.3343 11.06 14.5637L12.8138 13.6024C11.6407 11.4618 10.7749 9.42967 10.311 7.8037L8.38777 8.3524ZM11.2298 13.3759L3.0398 21.5659L4.45401 22.9802L12.644 14.7902L11.2298 13.3759ZM3.0398 21.5659C1.98587 22.6199 2.07344 24.0045 2.22033 24.7591L4.18348 24.377C4.07536 23.8216 4.12293 23.3112 4.45401 22.9802L3.0398 21.5659ZM2.22027 24.7588C2.38597 25.6114 2.76999 26.4909 3.22868 27.3129L4.97513 26.3382C4.56882 25.6102 4.29283 24.9397 4.18354 24.3773L2.22027 24.7588ZM3.22755 27.3108C4.15444 28.9808 5.64854 30.8888 7.45929 32.7022L8.87451 31.2889C7.15526 29.5673 5.78937 27.8053 4.97626 26.3403L3.22755 27.3108ZM7.4598 32.7027C9.27387 34.5167 11.182 36.0082 12.8516 36.9349L13.8222 35.1862C12.3568 34.3729 10.5949 33.0094 8.87401 31.2884L7.4598 32.7027ZM12.8496 36.9338C13.6715 37.3925 14.551 37.7765 15.4036 37.9422L15.7852 35.9789C15.2228 35.8696 14.5523 35.5936 13.8242 35.1873L12.8496 36.9338ZM15.4069 37.9428C16.157 38.086 17.5386 38.1767 18.5952 37.1239L17.1836 35.7072C16.8502 36.0394 16.3418 36.0851 15.7819 35.9783L15.4069 37.9428ZM18.5965 37.1227L32.634 23.0852L31.2198 21.6709L17.1823 35.7084L18.5965 37.1227ZM31.0181 22.7953C31.178 23.1435 31.1694 23.4823 31.0567 24.6277L33.0471 24.8234C33.1444 23.8338 33.2658 22.8976 32.8357 21.9608L31.0181 22.7953ZM31.0571 24.6233C30.9814 25.3601 30.8824 26.3302 30.8694 27.6558L32.8694 27.6753C32.8814 26.4459 32.9724 25.551 33.0467 24.8278L31.0571 24.6233ZM30.8726 27.7456L30.9199 28.3343L32.9135 28.1742L32.8662 27.5855L30.8726 27.7456ZM32.9068 28.1142L32.867 27.833L30.8868 28.1131L30.9265 28.3943L32.9068 28.1142ZM30.8804 28.0566C30.9538 28.9312 31.353 29.7462 31.999 30.3403L33.3528 28.8682C33.0759 28.6136 32.9048 28.2643 32.8734 27.8895L30.8804 28.0566ZM31.999 30.3403C32.645 30.9344 33.4905 31.2641 34.3682 31.2641V29.2641C33.992 29.2641 33.6296 29.1228 33.3528 28.8682L31.999 30.3403ZM34.3682 31.2641C35.2458 31.2641 36.0913 30.9344 36.7373 30.3403L35.3835 28.8682C35.1067 29.1228 34.7443 29.2641 34.3682 29.2641V31.2641ZM36.7373 30.3403C37.3833 29.7462 37.7825 28.9312 37.8559 28.0566L35.8629 27.8895C35.8315 28.2643 35.6604 28.6136 35.3835 28.8682L36.7373 30.3403ZM37.8666 27.8544C37.8699 27.7181 37.8652 27.5818 37.8527 27.446L35.8611 27.6301C35.8666 27.6888 35.8686 27.7478 35.8672 27.8067L37.8666 27.8544ZM37.8559 27.4941C37.7079 24.1298 35.9858 20.0722 32.7529 17.9653L31.6609 19.6408C34.228 21.3139 35.7309 24.6963 35.8579 27.582L37.8559 27.4941ZM33.1293 18.4167C32.9594 18.0111 32.767 17.6154 32.5529 17.2313L30.8059 18.2048C30.9836 18.5238 31.1434 18.8525 31.2845 19.1894L33.1293 18.4167ZM32.5528 17.2311C31.6241 15.5652 30.1332 13.6577 28.319 11.8434L26.9048 13.2577C28.6256 14.9784 29.9897 16.7409 30.806 18.205L32.5528 17.2311ZM28.319 11.8434C26.5054 10.0298 24.5973 8.53563 22.9272 7.6087L21.9566 9.35741C23.4215 10.1705 25.1834 11.5363 26.9048 13.2577L28.319 11.8434ZM22.9271 7.60863C22.1062 7.15317 21.2285 6.77027 20.3785 6.60207L19.9903 8.56403C20.5553 8.67584 21.2276 8.95293 21.9567 9.35747L22.9271 7.60863ZM20.3719 6.60078C19.6191 6.45712 18.239 6.37053 17.1836 7.42217L18.5952 8.83893C18.9298 8.50558 19.4397 8.45899 19.9969 8.56532L20.3719 6.60078ZM17.1839 7.42181L16.6414 7.96181L18.0524 9.37929L18.5949 8.83929L17.1839 7.42181ZM16.3469 8.67055V8.67305H18.3469V8.67055H16.3469ZM12.4073 16.8384C13.7845 19.0114 15.2542 20.8744 16.5876 22.1171L17.9512 20.654C16.7846 19.5667 15.4193 17.8547 14.0965 15.7677L12.4073 16.8384ZM16.8725 12.1784C17.0181 12.5019 17.1832 12.8352 17.3684 13.1674L19.1154 12.1937C18.9606 11.9159 18.8207 11.6342 18.6963 11.3577L16.8725 12.1784ZM17.3681 13.1669C18.297 14.8357 19.7881 16.7435 21.6023 18.5577L23.0165 17.1434C21.2957 15.4226 19.9318 13.6604 19.1157 12.1942L17.3681 13.1669ZM26.9925 22.789C27.3187 22.9708 27.6527 23.141 27.9907 23.289L28.7931 21.4571C28.5261 21.3401 28.2501 21.2003 27.9663 21.0421L26.9925 22.789ZM12.6445 14.7897L14.492 12.9397L13.0768 11.5264L11.2293 13.3764L12.6445 14.7897ZM11.0765 14.5927L12.3915 16.8127L14.1123 15.7934L12.7973 13.5734L11.0765 14.5927ZM16.3912 8.50365C16.2391 9.18009 16.1333 10.7956 16.9018 12.2382L18.667 11.2979C18.1954 10.4126 18.2563 9.326 18.3425 8.94239L16.3912 8.50365ZM27.9862 23.2871C28.5904 23.5552 29.417 23.906 30.2233 24.0023C31.0755 24.1042 32.1109 23.933 32.7661 22.9218L31.0877 21.8343C31.001 21.968 30.8834 22.067 30.4607 22.0165C29.9922 21.9605 29.4221 21.7363 28.7976 21.459L27.9862 23.2871ZM21.6018 18.5572C22.3045 19.2608 23.0193 19.9137 23.7272 20.5028L25.0066 18.9655C24.3476 18.4171 23.678 17.8058 23.017 17.1439L21.6018 18.5572ZM23.7272 20.5028C24.8491 21.4365 25.9642 22.2192 26.9947 22.7902L27.9641 21.0409C27.0676 20.5441 26.0561 19.839 25.0066 18.9655L23.7272 20.5028ZM24.8871 20.5882C25.5867 20.162 26.8096 19.5936 28.1305 19.3146C29.4686 19.0321 30.7373 19.0802 31.6876 19.6577L32.7262 17.9484C31.1485 16.9899 29.2773 17.0284 27.7173 17.3578C26.1402 17.6908 24.7071 18.3559 23.8466 18.8801L24.8871 20.5882ZM14.4913 12.9404L18.0538 9.38041L16.64 7.9657L13.0775 11.5257L14.4913 12.9404ZM35.8683 27.778L35.8608 27.9205L37.858 28.0256L37.8655 27.8831L35.8683 27.778Z"
      fill="#F4F4F4"></path>
  </symbol>
  <symbol fill="none" xmlns="http://www.w3.org/2000/svg" viewBox="0 0 40 40" id="Jewelry">
    <path
      d="M20 36.6667C26.9036 36.6667 32.5 31.0702 32.5 24.1667C32.5 17.2631 26.9036 11.6667 20 11.6667C13.0964 11.6667 7.5 17.2631 7.5 24.1667C7.5 31.0702 13.0964 36.6667 20 36.6667Z"
      stroke="#F4F4F4" stroke-width="2" stroke-linecap="round" stroke-linejoin="round"></path>
    <path d="M14.1667 6.66668L16.6667 3.33334H23.3784L25.8334 6.66668L20.0001 11.6667L14.1667 6.66668Z" stroke="#F4F4F4"
      stroke-width="2" stroke-linecap="round" stroke-linejoin="round"></path>
  </symbol>
  <symbol fill="none" xmlns="http://www.w3.org/2000/svg" viewBox="0 0 40 40" id="Music">
    <path
      d="M35.728 10.8777V25.6091M14.1677 13.8669V31.8023M35.728 10.8777L14.1677 13.8669V6.23923L35.728 3.25V10.8777Z"
      stroke="#F4F4F4" stroke-width="2" stroke-linecap="round" stroke-linejoin="round"></path>
    <path
      d="M9.21991 36.75C11.9524 36.75 14.1676 34.5348 14.1676 31.8023C14.1676 29.0698 11.9524 26.8546 9.21991 26.8546C6.48737 26.8546 4.27222 29.0698 4.27222 31.8023C4.27222 34.5348 6.48737 36.75 9.21991 36.75Z"
      stroke="#F4F4F4" stroke-width="2" stroke-linecap="round" stroke-linejoin="round"></path>
    <path
      d="M30.7802 30.5568C33.5127 30.5568 35.7279 28.3416 35.7279 25.6091C35.7279 22.8766 33.5127 20.6614 30.7802 20.6614C28.0477 20.6614 25.8325 22.8766 25.8325 25.6091C25.8325 28.3416 28.0477 30.5568 30.7802 30.5568Z"
      stroke="#F4F4F4" stroke-width="2" stroke-linecap="round" stroke-linejoin="round"></path>
  </symbol>
  <symbol fill="none" xmlns="http://www.w3.org/2000/svg" viewBox="0 0 30 32" id="Popular">
    <path
      d="M19.1188 25.9544L19.7366 25.1681V25.1681L19.1188 25.9544ZM10.8811 25.9544L10.2633 25.1681H10.2633L10.8811 25.9544ZM9.75573 26.8386L10.3736 27.625L9.75573 26.8386ZM20.2442 26.8386L19.6264 27.625L20.2442 26.8386ZM11.6666 2.52771H18.3333V0.52771H11.6666V2.52771ZM27.3333 11.5277V22.9071H29.3333V11.5277H27.3333ZM2.66663 22.9071V11.5277H0.666626V22.9071H2.66663ZM20.862 26.0523L19.7366 25.1681L18.5009 26.7407L19.6264 27.625L20.862 26.0523ZM10.2633 25.1681L9.13791 26.0523L10.3736 27.625L11.499 26.7407L10.2633 25.1681ZM19.7366 25.1681C18.7672 24.4064 17.9715 23.7791 17.2699 23.3523C16.5454 22.9115 15.8276 22.624 15 22.624V24.624C15.3252 24.624 15.6782 24.7249 16.2305 25.0609C16.8058 25.411 17.4931 25.9488 18.5009 26.7407L19.7366 25.1681ZM11.499 26.7407C12.5068 25.9488 13.1941 25.411 13.7694 25.0609C14.3217 24.7249 14.6748 24.624 15 24.624V22.624C14.1723 22.624 13.4545 22.9115 12.73 23.3523C12.0285 23.7791 11.2327 24.4064 10.2633 25.1681L11.499 26.7407ZM0.666626 22.9071C0.666626 25.1091 0.664015 26.875 0.853032 28.1683C1.0404 29.4504 1.46437 30.6288 2.63664 31.1986L3.51092 29.3998C3.27604 29.2856 2.99643 29.0041 2.83201 27.8791C2.66924 26.7654 2.66663 25.1771 2.66663 22.9071H0.666626ZM9.13791 26.0523C7.3529 27.4548 6.10245 28.434 5.12613 28.9941C4.13994 29.5599 3.7458 29.514 3.51092 29.3998L2.63664 31.1986C3.80892 31.7684 4.99749 31.3737 6.12136 30.7289C7.25509 30.0785 8.64203 28.9854 10.3736 27.625L9.13791 26.0523ZM27.3333 22.9071C27.3333 25.1771 27.3307 26.7654 27.1679 27.8791C27.0035 29.0041 26.7239 29.2856 26.489 29.3998L27.3633 31.1986C28.5356 30.6288 28.9595 29.4504 29.1469 28.1683C29.3359 26.875 29.3333 25.1091 29.3333 22.9071H27.3333ZM19.6264 27.625C21.3579 28.9854 22.7448 30.0785 23.8786 30.7289C25.0024 31.3737 26.191 31.7684 27.3633 31.1986L26.489 29.3998C26.2541 29.514 25.86 29.5599 24.8738 28.9941C23.8975 28.434 22.647 27.4548 20.862 26.0523L19.6264 27.625ZM18.3333 2.52771C20.7186 2.52771 22.407 2.52983 23.6864 2.70185C24.9371 2.87 25.6463 3.18382 26.1617 3.69928L27.5759 2.28507C26.6269 1.33607 25.4254 0.917652 23.9529 0.719685C22.5092 0.525586 20.662 0.52771 18.3333 0.52771V2.52771ZM29.3333 11.5277C29.3333 9.19896 29.3354 7.35179 29.1413 5.9081C28.9433 4.43565 28.5249 3.23407 27.5759 2.28507L26.1617 3.69928C26.6772 4.21475 26.991 4.92392 27.1592 6.1746C27.3312 7.45405 27.3333 9.14242 27.3333 11.5277H29.3333ZM11.6666 0.52771C9.33787 0.52771 7.49071 0.525586 6.04702 0.719685C4.57456 0.917652 3.37299 1.33607 2.42399 2.28507L3.8382 3.69928C4.35366 3.18382 5.06283 2.87 6.31351 2.70185C7.59296 2.52983 9.28133 2.52771 11.6666 2.52771V0.52771ZM2.66663 11.5277C2.66663 9.14242 2.66875 7.45405 2.84077 6.1746C3.00892 4.92392 3.32273 4.21475 3.8382 3.69928L2.42399 2.28507C1.47498 3.23407 1.05657 4.43565 0.858601 5.9081C0.664502 7.35179 0.666626 9.19896 0.666626 11.5277H2.66663Z"
      fill="#F4F4F4"></path>
  </symbol>
  <symbol fill="none" xmlns="http://www.w3.org/2000/svg" viewBox="0 0 40 40" id="Premium">
    <path
      d="M27.8895 15.0522L32.6675 12.7217C34.268 11.9411 36.0138 13.4838 35.4361 15.1681L31.6966 26.0712C30.4833 30.1557 9.51667 30.7392 8.30342 26.0712L4.56386 15.1681C3.98616 13.4838 5.73201 11.9411 7.33245 12.7217L12.1105 15.0522C13.0463 15.5086 14.1757 15.1707 14.7071 14.2754L18.2801 8.25505C19.055 6.94937 20.945 6.94937 21.7199 8.25505L25.2929 14.2754C25.8243 15.1707 26.9537 15.5086 27.8895 15.0522Z"
      stroke="#F4F4F4" stroke-width="2"></path>
    <path
      d="M10.0427 31.9575C9.57879 31.6578 8.95977 31.7909 8.66006 32.2548C8.36035 32.7187 8.49344 33.3377 8.95732 33.6374L10.0427 31.9575ZM30.732 33.677C31.2177 33.4142 31.3985 32.8074 31.1357 32.3217C30.8729 31.8359 30.2661 31.6552 29.7803 31.9179L30.732 33.677ZM8.95732 33.6374C10.1277 34.3936 11.8146 34.8901 13.6546 35.2011C15.5197 35.5164 17.6443 35.6574 19.764 35.6417C21.8846 35.6261 24.0236 35.4536 25.9197 35.1322C27.7972 34.814 29.5102 34.338 30.732 33.677L29.7803 31.9179C28.8424 32.4254 27.3805 32.8561 25.5855 33.1603C23.8092 33.4614 21.7783 33.6268 19.7492 33.6418C17.7192 33.6568 15.7143 33.5209 13.988 33.2291C12.2366 32.933 10.8701 32.4921 10.0427 31.9575L8.95732 33.6374Z"
      fill="#F4F4F4"></path>
  </symbol>
  <symbol fill="none" xmlns="http://www.w3.org/2000/svg" viewBox="0 0 30 38" id="Promotions">
    <path
      d="M27.582 17.3418C26.8237 15.635 25.7213 14.103 24.3438 12.8418L23.207 11.7988C23.1684 11.7644 23.122 11.7399 23.0717 11.7276C23.0215 11.7153 22.969 11.7156 22.9189 11.7283C22.8687 11.741 22.8225 11.7659 22.7842 11.8006C22.7459 11.8354 22.7167 11.879 22.6992 11.9277L22.1914 13.3848C21.875 14.2988 21.293 15.2324 20.4688 16.1504C20.4141 16.209 20.3516 16.2246 20.3086 16.2285C20.2656 16.2324 20.1992 16.2246 20.1406 16.1699C20.0859 16.123 20.0586 16.0527 20.0625 15.9824C20.207 13.6308 19.5039 10.9785 17.9648 8.09178C16.6914 5.69334 14.9219 3.82225 12.7109 2.51756L11.0977 1.56834C10.8867 1.44334 10.6172 1.60741 10.6289 1.8535L10.7148 3.7285C10.7734 5.00975 10.625 6.14256 10.2734 7.08397C9.84375 8.23631 9.22656 9.30663 8.4375 10.2676C7.88837 10.9354 7.26598 11.5394 6.58203 12.0683C4.93479 13.3346 3.59536 14.9571 2.66406 16.8144C1.73505 18.6879 1.25113 20.7506 1.25 22.8418C1.25 24.6855 1.61328 26.4707 2.33203 28.1543C3.02604 29.7752 4.02757 31.2464 5.28125 32.4863C6.54688 33.7363 8.01563 34.7207 9.65234 35.4043C11.3477 36.1152 13.1445 36.4746 15 36.4746C16.8555 36.4746 18.6523 36.1152 20.3477 35.4082C21.9803 34.7286 23.465 33.7375 24.7188 32.4902C25.9844 31.2402 26.9766 29.7793 27.668 28.1582C28.3856 26.4792 28.7538 24.6716 28.75 22.8457C28.75 20.9394 28.3594 19.0879 27.582 17.3418Z"
      stroke="#F4F4F4" stroke-width="2"></path>
  </symbol>
  <symbol fill="none" xmlns="http://www.w3.org/2000/svg" viewBox="0 0 40 41" id="Retro">
    <path
      d="M13.3093 35.0108V37.5C13.3093 38.6045 14.2048 39.5 15.3093 39.5H24.6906C25.7952 39.5 26.6906 38.6045 26.6906 37.5V35.0108M13.3093 35.0108V32.5215C13.3093 31.417 14.2048 30.5215 15.3093 30.5215H17.6259M13.3093 35.0108H26.6906M26.6906 35.0108V32.5215C26.6906 31.417 25.7952 30.5215 24.6906 30.5215H22.518M22.518 30.5215L26.2127 12.0284C26.46 10.791 25.5134 9.6366 24.2515 9.6366H15.765C14.4976 9.6366 13.5498 10.8003 13.8064 12.0414L17.6259 30.5215M22.518 30.5215H17.6259"
      stroke="#F4F4F4" stroke-width="2"></path>
    <path
      d="M22.8131 4.14749C22.8131 5.58594 21.6099 6.79498 20.0721 6.79498C18.5342 6.79498 17.3311 5.58594 17.3311 4.14749C17.3311 2.70904 18.5342 1.5 20.0721 1.5C21.6099 1.5 22.8131 2.70904 22.8131 4.14749Z"
      stroke="#F4F4F4" stroke-width="2"></path>
  </symbol>
  <symbol fill="none" xmlns="http://www.w3.org/2000/svg" viewBox="0 0 40 40" id="Sports">
    <path
      d="M19.9999 13.3333L26.3399 17.94M19.9999 13.3333L13.6599 17.94M19.9999 13.3333V8.33334M26.3399 17.94L23.9183 25.3933M26.3399 17.94L30.8333 15.8333M23.9183 25.3933H16.0833M23.9199 25.3933L26.6666 29.1667M16.0816 25.3933L13.6599 17.94M16.0816 25.3933L13.3333 29.1667M13.6599 17.94L9.16659 15.8333M9.16659 15.8333L3.41659 21.6667M9.16659 15.8333L7.49992 8.97501M30.8333 15.8333L36.5833 21.6667M30.8333 15.8333L32.4999 8.97501M19.9999 8.33334L14.3733 4.30668M19.9999 8.33334L25.6266 4.30668M13.3333 29.1667L5.56325 28.3333M13.3333 29.1667L17.4999 36.48M26.6666 29.1667L34.4366 28.3333M26.6666 29.1667L22.4999 36.48M36.6666 20C36.6666 29.205 29.2049 36.6667 19.9999 36.6667C10.7949 36.6667 3.33325 29.205 3.33325 20C3.33325 10.795 10.7949 3.33334 19.9999 3.33334C29.2049 3.33334 36.6666 10.795 36.6666 20Z"
      stroke="#F4F4F4" stroke-width="2" stroke-linecap="round" stroke-linejoin="round"></path>
  </symbol>
  <symbol fill="none" xmlns="http://www.w3.org/2000/svg" viewBox="0 0 40 40" id="Stationery">
    <path
      d="M31.8015 4.71994L31.0946 4.01264L31.0944 4.01285L31.8015 4.71994ZM36 6.4605L35 6.46021L36 6.4605ZM35.2791 8.19962L35.9838 8.9091L35.986 8.90693L35.2791 8.19962ZM34.8553 12.6959L34.1483 11.9888L34.1482 11.9888L34.8553 12.6959ZM13.8883 33.6656L14.5935 34.3746L14.5954 34.3727L13.8883 33.6656ZM13.4136 33.9325L13.1743 32.9616L13.1711 32.9624L13.4136 33.9325ZM5.26474 35.9698L5.50638 36.9402L5.50728 36.94L5.26474 35.9698ZM4.74625 35.9629L5.01364 34.9993L4.74625 35.9629ZM4.03018 34.7352L3.06004 34.4927L3.05981 34.4936L4.03018 34.7352ZM6.0674 26.5861L7.03755 26.8286L7.0377 26.828L6.0674 26.5861ZM6.33428 26.1134L5.62716 25.4063L5.62597 25.4075L6.33428 26.1134ZM25.9771 6.46997L25.2715 5.76138L25.27 5.76287L25.9771 6.46997ZM15.8135 11.1431C15.4228 11.5335 15.4226 12.1667 15.8131 12.5573C16.2035 12.948 16.8366 12.9482 17.2273 12.5577L15.8135 11.1431ZM23.231 5.1437L23.9379 5.85101L23.9381 5.85078L23.231 5.1437ZM32.2051 5.7306L32.5086 5.42704L31.0944 4.01285L30.7909 4.3164L32.2051 5.7306ZM32.5084 5.42725C32.644 5.29173 32.805 5.18426 32.9821 5.11095L32.2172 3.26298C31.7974 3.43673 31.416 3.69147 31.0946 4.01264L32.5084 5.42725ZM32.9821 5.11095C33.1592 5.03765 33.349 4.99994 33.5407 5L33.5413 3C33.087 2.99987 32.6371 3.08923 32.2172 3.26298L32.9821 5.11095ZM33.5407 5C33.7324 5.00006 33.9222 5.03787 34.0993 5.11128L34.8652 3.26375C34.4455 3.08976 33.9956 3.00013 33.5413 3L33.5407 5ZM34.0993 5.11128C34.2764 5.18469 34.4372 5.29226 34.5728 5.42785L35.9874 4.01407C35.6662 3.69271 35.2849 3.43775 34.8652 3.26375L34.0993 5.11128ZM34.5728 5.42785C34.7083 5.56345 34.8157 5.72441 34.889 5.90153L36.737 5.13673C36.5633 4.71691 36.3086 4.33544 35.9874 4.01407L34.5728 5.42785ZM34.889 5.90153C34.9624 6.07866 35.0001 6.2685 35 6.46021L37 6.4608C37.0001 6.00646 36.9108 5.55654 36.737 5.13673L34.889 5.90153ZM35 6.46021C34.9999 6.65191 34.9621 6.84173 34.8887 7.01882L36.7363 7.78471C36.9102 7.36501 36.9999 6.91514 37 6.4608L35 6.46021ZM34.8887 7.01882C34.8153 7.19592 34.7077 7.35681 34.5721 7.49232L35.986 8.90693C36.3073 8.58575 36.5623 8.20442 36.7363 7.78471L34.8887 7.01882ZM34.5743 7.49015L34.2708 7.79167L35.6802 9.21061L35.9838 8.9091L34.5743 7.49015ZM34.2291 9.16664C34.5785 9.55844 34.7647 10.069 34.7497 10.5938L36.7488 10.6511C36.7785 9.6159 36.4111 8.6086 35.7219 7.83564L34.2291 9.16664ZM34.7497 10.5938C34.7346 11.1185 34.5194 11.6176 34.1483 11.9888L35.5624 13.4031C36.2947 12.6708 36.7192 11.6862 36.7488 10.6511L34.7497 10.5938ZM34.1482 11.9888L13.1811 32.9586L14.5954 34.3727L35.5625 13.403L34.1482 11.9888ZM13.183 32.9567C13.1806 32.9591 13.1776 32.9608 13.1743 32.9616L13.6529 34.9035C14.0086 34.8158 14.3338 34.633 14.5935 34.3746L13.183 32.9567ZM13.1711 32.9624L5.02219 34.9997L5.50728 36.94L13.6561 34.9027L13.1711 32.9624ZM5.0231 34.9994C5.01998 35.0002 5.01672 35.0002 5.01364 34.9993L4.47886 36.9265C4.81446 37.0196 5.16844 37.0243 5.50638 36.9402L5.0231 34.9994ZM5.01364 34.9993C5.01056 34.9985 5.00774 34.9968 5.00546 34.9946L3.59123 36.4087C3.83748 36.655 4.14327 36.8334 4.47886 36.9265L5.01364 34.9993ZM5.00546 34.9946C5.00319 34.9923 5.00154 34.9895 5.00068 34.9864L3.07349 35.5211C3.16661 35.8567 3.34497 36.1625 3.59123 36.4087L5.00546 34.9946ZM5.00068 34.9864C4.99982 34.9832 4.99977 34.98 5.00055 34.9768L3.05981 34.4936C2.97566 34.8315 2.98038 35.1855 3.07349 35.5211L5.00068 34.9864ZM5.00033 34.9778L7.03755 26.8286L5.09726 26.3436L3.06004 34.4927L5.00033 34.9778ZM7.0377 26.828C7.03852 26.8247 7.0402 26.8217 7.04259 26.8193L5.62597 25.4075C5.36821 25.6662 5.18543 25.9899 5.0971 26.3442L7.0377 26.828ZM7.04139 26.8205L26.6842 7.17707L25.27 5.76287L5.62716 25.4063L7.04139 26.8205ZM17.2273 12.5577L23.9379 5.85101L22.5241 4.43639L15.8135 11.1431L17.2273 12.5577ZM23.9381 5.85078C24.3095 5.47937 24.8089 5.2642 25.3339 5.24942L25.2776 3.25021C24.2418 3.27937 23.2565 3.70388 22.5238 4.43662L23.9381 5.85078ZM25.3339 5.24942C25.8589 5.23463 26.3697 5.42136 26.7614 5.77129L28.0939 4.27979C27.3211 3.58944 26.3134 3.22104 25.2776 3.25021L25.3339 5.24942ZM28.094 5.77114C28.4706 5.43458 28.9579 5.24842 29.4629 5.24817L29.4619 3.24817C28.4655 3.24867 27.5042 3.61594 26.7612 4.27993L28.094 5.77114ZM29.4629 5.24817C29.968 5.24791 30.4554 5.43359 30.8323 5.76977L32.1636 4.27723C31.42 3.61398 30.4583 3.24767 29.4619 3.24817L29.4629 5.24817ZM30.7909 5.7306L34.2684 9.20824L35.6826 7.79404L32.2051 4.3164L30.7909 5.7306ZM26.722 4.31695L25.2715 5.76138L26.6827 7.17856L28.1332 5.73412L26.722 4.31695Z"
      fill="#F4F4F4"></path>
  </symbol>
  <symbol fill="none" xmlns="http://www.w3.org/2000/svg" viewBox="0 0 40 40" id="TGGlobal">
    <path fill-rule="evenodd" clip-rule="evenodd"
      d="M10.7239 10.8921C12.8642 8.71246 15.7668 7.28384 19 7.03789V13.7217C17.5112 13.6371 16.0521 13.3644 14.6867 12.915C13.1945 12.4239 11.853 11.7346 10.7239 10.8921ZM14.0615 14.8148C15.6325 15.3319 17.3032 15.6381 19 15.7245V19H7.03789C7.2237 16.5575 8.08448 14.3036 9.43412 12.4245C10.7723 13.4408 12.3438 14.2494 14.0615 14.8148ZM7.03789 21C7.2237 23.4425 8.08447 25.6964 9.43412 27.5755C10.6741 26.6338 12.1159 25.8692 13.6912 25.3117C15.3675 24.7183 17.168 24.3688 19 24.2755V21H7.03789ZM21 21V24.2755C22.9292 24.3738 24.8219 24.756 26.5705 25.4067C28.0447 25.9552 29.3956 26.6867 30.5659 27.5755C31.9155 25.6964 32.7763 23.4425 32.9621 21H21ZM32.9621 19C32.7763 16.5575 31.9155 14.3036 30.5659 12.4245C29.3731 13.3303 27.9933 14.0725 26.4875 14.624C24.7621 15.2559 22.8988 15.6278 21 15.7245V19H32.9621ZM14.3585 27.197C15.8156 26.6813 17.3895 26.3698 19 26.2783V32.9621C15.7668 32.7162 12.8642 31.2875 10.7239 29.1079C11.7676 28.3291 12.9946 27.6798 14.3585 27.197ZM21 26.2783V32.9621C24.2332 32.7162 27.1358 31.2875 29.2761 29.1079C28.2929 28.3742 27.1459 27.7547 25.8731 27.2811C24.3536 26.7158 22.6982 26.3747 21 26.2783ZM21 7.03789V13.7217C22.6711 13.6268 24.3005 13.2951 25.7996 12.746C27.1007 12.2695 28.2732 11.6405 29.2761 10.8921C27.1358 8.71246 24.2332 7.28384 21 7.03789ZM5 20C5 11.7157 11.7157 5 20 5C28.2843 5 35 11.7157 35 20C35 28.2843 28.2843 35 20 35C11.7157 35 5 28.2843 5 20Z"
      fill="#F4F4F4"></path>
  </symbol>
  <symbol fill="none" xmlns="http://www.w3.org/2000/svg" viewBox="0 0 40 40" id="Tourism">
    <path
      d="M20 8.5V9.5V8.5ZM21 19.0455C21 18.4932 20.5523 18.0455 20 18.0455C19.4477 18.0455 19 18.4932 19 19.0455H21ZM20 16.3112L20.0535 15.3126L20 16.3112ZM19 17.2762C19 17.8285 19.4477 18.2762 20 18.2762C20.5523 18.2762 21 17.8285 21 17.2762H19ZM12.5874 25.817L11.5901 25.7442L12.5874 25.817ZM27.2696 25.6141L26.2759 25.7265L27.2696 25.6141ZM39.005 28.9599C38.0043 24.7302 36.0237 19.4253 32.9476 15.1521C29.8736 10.882 25.5923 7.5 20 7.5V9.5C24.6892 9.5 28.4432 12.3182 31.3244 16.3206C34.2035 20.32 36.0981 25.3601 37.0588 29.4204L39.005 28.9599ZM20 7.5C14.289 7.5 10.0167 10.9933 6.98335 15.3085C3.9479 19.6268 2.03604 24.9191 1.03959 28.9159L2.98019 29.3997C3.94187 25.5424 5.77467 20.5058 8.61955 16.4587C11.4665 12.4086 15.2102 9.5 20 9.5V7.5ZM3.89936 32.5H6.62554V30.5H3.89936V32.5ZM6.62554 32.5H20V30.5H6.62554V32.5ZM20 32.5H33.5346V30.5H20V32.5ZM33.5346 32.5H36.1407V30.5H33.5346V32.5ZM19 19.0455V27.7308H21V19.0455H19ZM20 28.7308H25.3237V26.7308H20V28.7308ZM20 26.7308H14.4684V28.7308H20V26.7308ZM13.5848 25.8898C13.7263 23.9508 14.2099 21.6769 15.2396 19.9564C16.2394 18.2859 17.705 17.1897 19.9465 17.3098L20.0535 15.3126C16.9014 15.1438 14.808 16.7832 13.5235 18.9293C12.269 21.0252 11.7431 23.6487 11.5901 25.7442L13.5848 25.8898ZM19.9465 17.3098C22.2201 17.4315 23.6187 18.4209 24.5517 19.873C25.5257 21.3888 26.0192 23.4584 26.2759 25.7265L28.2632 25.5016C27.9963 23.1433 27.4611 20.701 26.2343 18.7918C24.9666 16.8189 22.9923 15.47 20.0535 15.3126L19.9465 17.3098ZM19 16.3112V17.2762H21V16.3112H19ZM14.4684 26.7308C13.9019 26.7308 13.5544 26.3057 13.5848 25.8898L11.5901 25.7442C11.4644 27.4654 12.8921 28.7308 14.4684 28.7308V26.7308ZM25.3237 28.7308C27.033 28.7308 28.4643 27.2778 28.2632 25.5016L26.2759 25.7265C26.334 26.2396 25.9183 26.7308 25.3237 26.7308V28.7308ZM37.0588 29.4204C37.1835 29.9475 36.7798 30.5 36.1407 30.5V32.5C37.9723 32.5 39.4492 30.837 39.005 28.9599L37.0588 29.4204ZM1.03959 28.9159C0.569312 30.8022 2.04597 32.5 3.89936 32.5V30.5C3.25518 30.5 2.84629 29.9368 2.98019 29.3997L1.03959 28.9159Z"
      fill="#F4F4F4"></path>
  </symbol>
  <symbol fill="none" xmlns="http://www.w3.org/2000/svg" viewBox="0 0 40 40" id="AllCategories">
    <rect x="6.66663" y="6.66675" width="10" height="11.6667" rx="1" stroke="#F4F4F4" stroke-width="2"
      stroke-linejoin="round"></rect>
    <rect x="6.66663" y="25" width="10" height="8.33333" rx="1" stroke="#F4F4F4" stroke-width="2"
      stroke-linejoin="round"></rect>
    <rect x="23.3334" y="6.66675" width="10" height="8.33333" rx="1" stroke="#F4F4F4" stroke-width="2"
      stroke-linejoin="round"></rect>
    <rect x="23.3334" y="21.6667" width="10" height="11.6667" rx="1" stroke="#F4F4F4" stroke-width="2"
      stroke-linejoin="round"></rect>
  </symbol>
  <symbol fill="none" xmlns="http://www.w3.org/2000/svg" viewBox="0 0 40 40" id="AnimalSupplies">
    <path
      d="M26.4 4C28.1872 4 29.6 5.4128 29.6 7.2C29.6 7.4752 29.5568 7.7568 29.4496 8.1008L29.1504 9.0496L29.8496 9.6992L30.3008 10.1504L30.9504 10.8496L31.8992 10.5504C32.2432 10.4432 32.5248 10.4 32.8 10.4C34.5872 10.4 36 11.8128 36 13.6C36 15.3872 34.5872 16.8 32.8 16.8C31.632 16.8 30.6688 16.1808 30.0992 15.2496L29 13.4992L27.6 14.9504L14.9504 27.6L13.5008 29L15.2496 30.1008C16.1808 30.6688 16.8 31.632 16.8 32.8C16.8 34.5872 15.3872 36 13.6 36C11.8128 36 10.4 34.5872 10.4 32.8C10.4 32.5248 10.4432 32.2432 10.5504 31.8992L10.8496 30.9504L10.1504 30.2992L9.7008 29.8512L9.0496 29.1504L8.0992 29.4496C7.7568 29.5568 7.4752 29.6 7.2 29.6C5.4128 29.6 4 28.1872 4 26.4C4 24.6128 5.4128 23.2 7.2 23.2C8.368 23.2 9.3312 23.8192 9.9008 24.7504L11 26.4992L12.4 25.0496L25.0496 12.4L26.5008 11L24.7504 9.8992C23.8192 9.3312 23.2 8.368 23.2 7.2C23.2 5.4128 24.6128 4 26.4 4Z"
      stroke="#F4F4F4" stroke-width="2" stroke-linejoin="round"></path>
  </symbol>
  <symbol fill="none" xmlns="http://www.w3.org/2000/svg" viewBox="0 0 28 36" id="Appliances">
    <circle cx="18.5" cy="6.25" r="1.5" fill="#F4F4F4"></circle>
    <circle cx="14" cy="22.75" r="7" stroke="#F4F4F4" stroke-width="2"></circle>
    <circle cx="22.5" cy="6.25" r="1.5" fill="#F4F4F4"></circle>
    <path
      d="M1 10.75V3.75C1 2.64543 1.89543 1.75 3 1.75H25C26.1046 1.75 27 2.64543 27 3.75V10.75M1 10.75V32.25C1 33.3546 1.89543 34.25 3 34.25H25C26.1046 34.25 27 33.3546 27 32.25V10.75M1 10.75H27"
      stroke="#F4F4F4" stroke-width="2"></path>
  </symbol>
  <symbol fill="none" xmlns="http://www.w3.org/2000/svg" viewBox="0 0 40 40" id="BeautyAndHealth">
    <path
      d="M14.8333 18.7329V18.7329C13.8208 18.7329 13 19.5537 13 20.5662V36.5C13 37.6046 13.8954 38.5 15 38.5H25C26.1046 38.5 27 37.6046 27 36.5V20.7329C27 19.6283 26.1046 18.7329 25 18.7329V18.7329M14.8333 18.7329V15.1621C14.8333 14.2416 15.5795 13.4954 16.5 13.4954V13.4954M14.8333 18.7329H25M25 18.7329V14.9954C25 14.167 24.3284 13.4954 23.5 13.4954V13.4954M16.5 13.4954V5.67139C16.5 5.26539 16.6179 4.86371 16.8932 4.56534C17.7336 3.65468 19.3772 2.41828 21.4514 1.83066C22.5436 1.52126 23.5 2.44437 23.5 3.5795V13.4954M16.5 13.4954H23.5"
      stroke="#F4F4F4" stroke-width="2"></path>
  </symbol>
  <symbol fill="none" xmlns="http://www.w3.org/2000/svg" viewBox="0 0 34 32" id="Books">
    <path
      d="M9.188 31H3.5C2.39543 31 1.5 30.1046 1.5 29V8.05882M9.188 31H15.124C16.2286 31 17.124 30.1046 17.124 29V24.4454M9.188 31V24.4454M9.188 1.5042H3.5C2.39543 1.5042 1.5 2.39963 1.5 3.5042V8.05882M9.188 1.5042V8.05882M9.188 1.5042H15.3593C16.3339 1.5042 17.124 2.29429 17.124 3.26891V3.26891M1.5 8.05882H9.188M9.188 8.05882V24.4454M9.188 24.4454H17.124M17.124 24.4454V3.26891M17.124 3.26891L22.6342 1.58853C23.6972 1.26433 24.8207 1.86905 25.1356 2.93492L26.3514 7.05042M17.124 3.26891L18.8713 9.57143M18.8713 9.57143L26.3514 7.05042M18.8713 9.57143L23.1346 24.9496M26.3514 7.05042L30.7126 22.4286M23.1346 24.9496L24.2688 29.0406C24.5673 30.1174 25.6904 30.7408 26.7622 30.4245L30.6021 29.2912C31.6535 28.9809 32.2592 27.882 31.9601 26.8273L30.7126 22.4286M23.1346 24.9496L30.7126 22.4286"
      stroke="#F4F4F4" stroke-width="2"></path>
  </symbol>
  <symbol fill="none" xmlns="http://www.w3.org/2000/svg" viewBox="0 0 40 40" id="Cars">
    <path fill-rule="evenodd" clip-rule="evenodd"
      d="M12.1729 7.00006H28.0994C29.5936 7.00006 30.86 8.09959 31.0697 9.57896L31.6965 14.0001H20H8.39643L9.22127 9.46341C9.48063 8.03693 10.723 7.00006 12.1729 7.00006ZM33.0499 9.29823L33.2912 11.0001H34.5C35.3284 11.0001 36 11.6716 36 12.5001C36 13.3285 35.3284 14.0001 34.5 14.0001H33.7165L33.8767 15.1302C35.1058 15.5052 36 16.6482 36 18.0001V28.0001C36 29.6569 34.6569 31.0001 33 31.0001H32V31.9999V32.9999C32 34.1045 31.1046 34.9999 30 34.9999C28.8954 34.9999 28 34.1045 28 32.9999V31.9999V31.0001H12V31.9999V32.9999C12 34.1045 11.1046 34.9999 10 34.9999C8.89543 34.9999 8 34.1045 8 32.9999V31.9999V31.0001H7C5.34315 31.0001 4 29.6569 4 28.0001V18.0001C4 16.6347 4.91207 15.4824 6.16016 15.1192L6.36364 14.0001H5.5C4.67157 14.0001 4 13.3285 4 12.5001C4 11.6716 4.67157 11.0001 5.5 11.0001H6.90909L7.25353 9.10564C7.6858 6.72818 9.75645 5.00006 12.1729 5.00006H28.0994C30.5897 5.00006 32.7003 6.83261 33.0499 9.29823ZM34 18.0001C34 17.4478 33.5523 17.0001 33 17.0001H7C6.44772 17.0001 6 17.4478 6 18.0001V28.0001C6 28.5523 6.44772 29.0001 7 29.0001H33C33.5523 29.0001 34 28.5523 34 28.0001V18.0001ZM14 23.0001C14 24.1046 13.1046 25.0001 12 25.0001C10.8954 25.0001 10 24.1046 10 23.0001C10 21.8955 10.8954 21.0001 12 21.0001C13.1046 21.0001 14 21.8955 14 23.0001ZM28 25.0001C29.1046 25.0001 30 24.1046 30 23.0001C30 21.8955 29.1046 21.0001 28 21.0001C26.8954 21.0001 26 21.8955 26 23.0001C26 24.1046 26.8954 25.0001 28 25.0001Z"
      fill="#F4F4F4"></path>
  </symbol>
  <symbol fill="none" xmlns="http://www.w3.org/2000/svg" viewBox="0 0 40 40" id="Childrenproducts">
    <path
      d="M16.6666 4.16669V3.16669L16.6653 3.16669L16.6666 4.16669ZM24.9999 12.5H25.9999H24.9999ZM21.4333 19.3334L20.8611 18.5132L18.6276 20.0715L21.3387 20.3289L21.4333 19.3334ZM36.6666 20.8334L37.6605 20.9438C37.714 20.4622 37.4145 20.0115 36.9498 19.8743C36.4851 19.7371 35.9889 19.9527 35.7722 20.3861L36.6666 20.8334ZM14.9999 35.8334V36.8334V35.8334ZM9.99992 17.5L10.8943 17.0528L10.618 16.5H9.99992V17.5ZM3.33325 11.6667L3.78047 10.7723C3.47048 10.6173 3.10234 10.6338 2.80752 10.816C2.5127 10.9982 2.33325 11.3201 2.33325 11.6667H3.33325ZM8.33325 11.9167L8.75155 12.825L9.28708 12.5784L9.33053 11.9904L8.33325 11.9167ZM16.6666 5.16669C18.6115 5.16669 20.4768 5.9393 21.852 7.31457L23.2662 5.90036C21.5159 4.15002 19.1419 3.16669 16.6666 3.16669V5.16669ZM21.852 7.31457C23.2273 8.68984 23.9999 10.5551 23.9999 12.5H25.9999C25.9999 10.0247 25.0166 7.6507 23.2662 5.90036L21.852 7.31457ZM23.9999 12.5C23.9999 14.9922 22.755 17.1919 20.8611 18.5132L22.0054 20.1535C24.4115 18.4748 25.9999 15.6745 25.9999 12.5H23.9999ZM21.3387 20.3289C23.8932 20.5714 26.7299 21.1497 29.5527 22.5611L30.4471 20.7723C27.3366 19.217 24.24 18.5953 21.5278 18.3378L21.3387 20.3289ZM29.5527 22.5611C32.2709 23.9202 34.2745 23.7724 35.6555 23.0819C36.3201 22.7496 36.7861 22.3173 37.0873 21.9659C37.2383 21.7898 37.35 21.6315 37.4269 21.5117C37.4654 21.4516 37.4955 21.4007 37.5176 21.3615C37.5287 21.3419 37.5378 21.3251 37.545 21.3116C37.5486 21.3048 37.5517 21.2988 37.5544 21.2936C37.5557 21.291 37.5569 21.2886 37.558 21.2864C37.5586 21.2854 37.5591 21.2843 37.5596 21.2833C37.5599 21.2829 37.5602 21.2822 37.5603 21.2819C37.5607 21.2812 37.561 21.2806 36.6666 20.8334C35.7722 20.3861 35.7725 20.3855 35.7728 20.3849C35.7729 20.3847 35.7732 20.3841 35.7734 20.3837C35.7738 20.3829 35.7742 20.3822 35.7745 20.3815C35.7752 20.3801 35.7758 20.3789 35.7763 20.3779C35.7773 20.3759 35.778 20.3747 35.7783 20.3741C35.7789 20.373 35.778 20.3747 35.7757 20.3789C35.7709 20.3873 35.7603 20.4056 35.7435 20.4317C35.7097 20.4844 35.6522 20.567 35.5688 20.6643C35.4012 20.8598 35.138 21.1046 34.761 21.2931C34.0587 21.6443 32.7289 21.9131 30.4471 20.7723L29.5527 22.5611ZM36.6666 20.8334C35.6727 20.7229 35.6727 20.7227 35.6728 20.7225C35.6728 20.7225 35.6728 20.7223 35.6728 20.7223C35.6728 20.7223 35.6727 20.7226 35.6727 20.7231C35.6726 20.724 35.6724 20.7259 35.672 20.7286C35.6714 20.7341 35.6703 20.743 35.6688 20.7554C35.6658 20.7802 35.661 20.8186 35.6542 20.8696C35.6406 20.9718 35.619 21.1248 35.5878 21.3211C35.5254 21.7141 35.4249 22.2797 35.2737 22.9602C34.9704 24.3253 34.4673 26.1319 33.6694 27.9272C32.0504 31.5699 29.3868 34.8334 24.9999 34.8334V36.8334C30.6131 36.8334 33.7827 32.5968 35.4971 28.7395C36.3658 26.7848 36.9045 24.8414 37.2261 23.394C37.3874 22.6682 37.4952 22.062 37.5631 21.6347C37.597 21.4209 37.621 21.2515 37.6367 21.134C37.6445 21.0752 37.6503 21.0293 37.6542 20.9974C37.6561 20.9814 37.6576 20.9688 37.6586 20.9598C37.6592 20.9554 37.6596 20.9518 37.6599 20.9491C37.66 20.9478 37.6601 20.9466 37.6602 20.9458C37.6603 20.9453 37.6604 20.9448 37.6604 20.9446C37.6604 20.9442 37.6605 20.9438 36.6666 20.8334ZM24.9999 34.8334H14.9999V36.8334H24.9999V34.8334ZM14.9999 35.8334C14.9999 34.8334 15.0004 34.8334 15.0008 34.8334C15.0009 34.8334 15.0013 34.8334 15.0015 34.8334C15.0019 34.8334 15.0022 34.8334 15.0023 34.8334C15.0027 34.8334 15.0025 34.8334 15.0018 34.8334C15.0005 34.8333 14.9972 34.8333 14.9921 34.8332C14.9819 34.8331 14.9643 34.8327 14.9396 34.8319C14.8904 34.8302 14.8136 34.8268 14.7131 34.8196C14.5118 34.8052 14.2177 34.776 13.8622 34.7168C13.1465 34.5975 12.2074 34.3607 11.2805 33.8973C10.3574 33.4357 9.46481 32.7592 8.80072 31.763C8.1408 30.7731 7.66658 29.4084 7.66658 27.5H5.66659C5.66659 29.7583 6.23404 31.5186 7.13662 32.8724C8.03503 34.22 9.22574 35.106 10.386 35.6861C11.5424 36.2643 12.6867 36.5484 13.5334 36.6895C13.9592 36.7605 14.3161 36.7964 14.5706 36.8145C14.698 36.8236 14.8002 36.8283 14.873 36.8308C14.9094 36.832 14.9386 36.8326 14.9599 36.833C14.9705 36.8331 14.9792 36.8332 14.9859 36.8333C14.9893 36.8333 14.9921 36.8333 14.9945 36.8333C14.9956 36.8333 14.9967 36.8333 14.9976 36.8334C14.998 36.8334 14.9986 36.8334 14.9988 36.8334C14.9994 36.8334 14.9999 36.8334 14.9999 35.8334ZM7.66658 27.5C7.66658 25.3626 8.7107 23.9421 9.77199 22.4563C10.2775 21.7485 10.841 20.9514 11.1309 20.0819C11.4444 19.1412 11.4361 18.1363 10.8943 17.0528L9.10549 17.9472C9.39708 18.5304 9.38872 18.9838 9.23353 19.4494C9.05463 19.9861 8.68067 20.5432 8.14452 21.2938C7.12247 22.7246 5.66659 24.6374 5.66659 27.5H7.66658ZM9.99992 16.5C7.0289 16.5 5.69184 15.237 5.03483 14.0872C4.6876 13.4796 4.50957 12.8625 4.41976 12.391C4.37523 12.1573 4.3535 11.9651 4.34296 11.836C4.3377 11.7716 4.33527 11.7234 4.33415 11.6941C4.3336 11.6795 4.33337 11.6697 4.33329 11.665C4.33324 11.6626 4.33323 11.6616 4.33324 11.6618C4.33324 11.662 4.33324 11.6624 4.33325 11.6632C4.33325 11.6637 4.33325 11.6641 4.33325 11.6647C4.33325 11.665 4.33325 11.6655 4.33325 11.6656C4.33325 11.6662 4.33325 11.6667 3.33325 11.6667C2.33325 11.6667 2.33325 11.6673 2.33325 11.6679C2.33325 11.6681 2.33325 11.6687 2.33325 11.6692C2.33326 11.6701 2.33326 11.6711 2.33327 11.6722C2.33328 11.6745 2.33329 11.677 2.33332 11.68C2.33337 11.6859 2.33347 11.6932 2.33363 11.7019C2.33395 11.7192 2.33453 11.7422 2.3356 11.7703C2.33775 11.8265 2.34182 11.9036 2.34959 11.9987C2.36509 12.1886 2.39544 12.4521 2.45508 12.7653C2.57361 13.3875 2.81224 14.2288 3.29834 15.0795C4.30799 16.8464 6.30427 18.5 9.99992 18.5V16.5ZM2.88604 12.5611C4.79808 13.5171 7.18378 13.547 8.75155 12.825L7.91495 11.0084C6.94939 11.453 5.20176 11.4829 3.78047 10.7723L2.88604 12.5611ZM9.33053 11.9904C9.46749 10.1373 10.2997 8.40438 11.6604 7.13895L10.2983 5.6744C8.56825 7.28339 7.51011 9.48676 7.33597 11.843L9.33053 11.9904ZM11.6604 7.13895C13.0211 5.87351 14.8097 5.16904 16.6678 5.16669L16.6653 3.16669C14.3027 3.16967 12.0284 4.06541 10.2983 5.6744L11.6604 7.13895Z"
      fill="#F4F4F4"></path>
  </symbol>
  <symbol fill="none" xmlns="http://www.w3.org/2000/svg" viewBox="0 0 36 36" id="Clothes">
    <path
      d="M33.5266 4.75844C30.5933 3.79677 22.9999 1.30844 22.9999 1.33344C22.9999 2.65952 22.4732 3.93129 21.5355 4.86897C20.5978 5.80665 19.326 6.33344 17.9999 6.33344C16.6739 6.33344 15.4021 5.80665 14.4644 4.86897C13.5267 3.93129 12.9999 2.65952 12.9999 1.33344C12.9999 1.30844 5.40661 3.79677 2.47161 4.75844C2.13908 4.86744 1.8497 5.07914 1.64514 5.36306C1.44058 5.64699 1.33139 5.9885 1.33328 6.33844V12.5318C1.33335 12.7849 1.39109 13.0348 1.50212 13.2623C1.61315 13.4898 1.77455 13.689 1.97407 13.8448C2.1736 14.0007 2.406 14.109 2.65363 14.1616C2.90127 14.2142 3.15764 14.2097 3.40328 14.1484L7.99994 13.0001V33.0001C7.99994 33.4421 8.17554 33.8661 8.4881 34.1786C8.80066 34.4912 9.22458 34.6668 9.66661 34.6668H26.3333C26.7753 34.6668 27.1992 34.4912 27.5118 34.1786C27.8243 33.8661 27.9999 33.4421 27.9999 33.0001V13.0001L32.5966 14.1484C32.8422 14.2097 33.0986 14.2142 33.3463 14.1616C33.5939 14.109 33.8263 14.0007 34.0258 13.8448C34.2253 13.689 34.3867 13.4898 34.4978 13.2623C34.6088 13.0348 34.6665 12.7849 34.6666 12.5318V6.33844C34.6684 5.9883 34.5589 5.64663 34.3541 5.36268C34.1492 5.07873 33.8595 4.86715 33.5266 4.75844V4.75844Z"
      stroke="#F4F4F4" stroke-width="2"></path>
  </symbol>
  <symbol fill="none" xmlns="http://www.w3.org/2000/svg" viewBox="0 0 40 40" id="Construction">
    <path
      d="M12.4185 12.4211C12.4185 12.4211 12.3681 11.6366 12.5289 10.5466M19.9998 4V9.05263M19.9998 4C22.0718 4 23.58 4.54793 24.6773 5.36426M19.9998 4C17.8016 4 16.2379 4.61677 15.1263 5.51647M27.5813 12.4211C27.5813 12.4211 27.6259 11.7267 27.4972 10.7368M12.5289 10.5466C12.5289 10.5466 10.4334 11.8607 10.7941 12.9825C11.0282 13.7106 12.0801 14.3338 13.5017 14.8067M12.5289 10.5466C12.7525 9.03172 13.3841 6.92659 15.1263 5.51647M27.4972 10.7368C27.4972 10.7368 29.4671 11.8988 29.2058 12.9825C28.9717 13.9533 27.9199 14.6093 26.4983 15.0413M27.4972 10.7368C27.2921 9.15869 26.6465 6.82926 24.6773 5.36426M13.5017 14.8067C15.3685 15.4276 17.8727 15.7895 20 15.7895C22.1273 15.7895 24.6315 15.6086 26.4983 15.0413M13.5017 14.8067C13.5017 14.8067 11.3357 23.6491 20 23.6491C28.1228 23.6491 26.4983 15.0413 26.4983 15.0413M24.6773 5.36426V10.5466M15.1263 5.51647V10.5466M10.7941 26.493C12.8311 25.9926 14.5848 25.8947 14.5848 25.8947V29.2632H25.4152V25.8947C25.4152 25.8947 27.49 26.0105 29.7474 26.6341M10.7941 26.493C8.41241 27.0781 5.64342 28.2134 4.8374 30.386C4.07824 32.4322 4.8374 36 4.8374 36H10.7941M10.7941 26.493V36M10.7941 36H29.7474M29.7474 26.6341C31.9919 27.2542 34.417 28.3764 35.1626 30.386C35.9218 32.4322 35.1626 36 35.1626 36H29.7474M29.7474 26.6341V36"
      stroke="#F4F4F4" stroke-width="2" stroke-linecap="round"></path>
  </symbol>
  <symbol fill="none" xmlns="http://www.w3.org/2000/svg" viewBox="0 0 40 40" id="Digital">
    <path
      d="M33.3332 10C33.8855 10 34.3332 9.5523 34.3332 9.00001C34.3332 8.44773 33.8855 8.00001 33.3332 8.00001V10ZM6.6665 8.00001C6.11422 8.00001 5.6665 8.44773 5.6665 9.00001C5.6665 9.5523 6.11422 10 6.6665 10V8.00001ZM9.99984 1.33334C9.44755 1.33334 8.99984 1.78106 8.99984 2.33334C8.99984 2.88563 9.44755 3.33334 9.99984 3.33334V1.33334ZM29.9998 3.33334C30.5521 3.33334 30.9998 2.88563 30.9998 2.33334C30.9998 1.78106 30.5521 1.33334 29.9998 1.33334V3.33334ZM17.1865 30.8333L16.4794 31.5405C16.6669 31.728 16.9213 31.8333 17.1865 31.8333C17.4517 31.8333 17.7061 31.728 17.8936 31.5405L17.1865 30.8333ZM14.3936 26.6262C14.0031 26.2357 13.3699 26.2357 12.9794 26.6262C12.5889 27.0168 12.5889 27.6499 12.9794 28.0404L14.3936 26.6262ZM27.0603 22.3738C27.4508 21.9833 27.4508 21.3501 27.0603 20.9596C26.6698 20.569 26.0366 20.569 25.6461 20.9596L27.0603 22.3738ZM33.3332 8.00001H6.6665V10H33.3332V8.00001ZM9.99984 3.33334H29.9998V1.33334H9.99984V3.33334ZM17.8936 30.1262L14.3936 26.6262L12.9794 28.0404L16.4794 31.5405L17.8936 30.1262ZM25.6461 20.9596L16.4794 30.1262L17.8936 31.5405L27.0603 22.3738L25.6461 20.9596Z"
      fill="#F4F4F4"></path>
    <path
      d="M3.33333 15.3333H36.6667C37.2855 15.3333 37.879 15.5792 38.3166 16.0168C38.7542 16.4543 39 17.0478 39 17.6667V34.3333C39 34.9522 38.7542 35.5457 38.3166 35.9833C37.879 36.4208 37.2855 36.6667 36.6667 36.6667H3.33333C2.71449 36.6667 2.121 36.4208 1.68342 35.9833C1.24583 35.5457 1 34.9522 1 34.3333V17.6667C1 17.0478 1.24583 16.4543 1.68342 16.0168C2.121 15.5792 2.7145 15.3333 3.33333 15.3333Z"
      stroke="#F4F4F4" stroke-width="2"></path>
  </symbol>
  <symbol fill="none" xmlns="http://www.w3.org/2000/svg" viewBox="0 0 30 34" id="Drugstore">
    <path
      d="M26.4417 1.83634C26.6275 1.31623 26.3564 0.744012 25.8363 0.558258C25.3162 0.372505 24.744 0.643554 24.5583 1.16366L26.4417 1.83634ZM16 14.5C16 13.9477 15.5523 13.5 15 13.5C14.4477 13.5 14 13.9477 14 14.5H16ZM14 27C14 27.5523 14.4477 28 15 28C15.5523 28 16 27.5523 16 27H14ZM21 21.75C21.5523 21.75 22 21.3023 22 20.75C22 20.1977 21.5523 19.75 21 19.75V21.75ZM9 19.75C8.44772 19.75 8 20.1977 8 20.75C8 21.3023 8.44772 21.75 9 21.75V19.75ZM28.6225 11.1325L29.5712 11.4487L28.6225 11.1325ZM25.7108 21.1325L24.7621 21.4487L25.7108 21.1325ZM25.7108 19.8675L24.7621 19.5513L25.7108 19.8675ZM1.51334 29.7978L0.577013 29.4466L1.51334 29.7978ZM4.73666 19.7978L5.67299 19.4466L4.73666 19.7978ZM4.73666 21.2022L5.67299 21.5534L4.73666 21.2022ZM1.51334 11.2022L0.577013 11.5534L1.51334 11.2022ZM24.5583 1.16366L22.0583 8.16366L23.9417 8.83634L26.4417 1.83634L24.5583 1.16366ZM23 7.5H3.386V9.5H23V7.5ZM0.577013 11.5534L3.80033 20.1489L5.67299 19.4466L2.44967 10.8511L0.577013 11.5534ZM3.80033 20.8511L0.577013 29.4466L2.44967 30.1489L5.67299 21.5534L3.80033 20.8511ZM3.386 33.5H26.7251V31.5H3.386V33.5ZM29.5712 29.5513L26.6595 20.8162L24.7621 21.4487L27.6738 30.1838L29.5712 29.5513ZM26.6595 20.1838L29.5712 11.4487L27.6738 10.8162L24.7621 19.5513L26.6595 20.1838ZM26.7251 7.5H23V9.5H26.7251V7.5ZM14 14.5V20.75H16V14.5H14ZM14 20.75V27H16V20.75H14ZM15 21.75H21V19.75H15V21.75ZM15 19.75H9V21.75H15V19.75ZM29.5712 11.4487C30.2187 9.50609 28.7728 7.5 26.7251 7.5V9.5C27.4077 9.5 27.8897 10.1687 27.6738 10.8162L29.5712 11.4487ZM26.6595 20.8162C26.5911 20.611 26.5911 20.389 26.6595 20.1838L24.7621 19.5513C24.5569 20.1671 24.5569 20.8329 24.7621 21.4487L26.6595 20.8162ZM26.7251 33.5C28.7728 33.5 30.2187 31.4939 29.5712 29.5513L27.6738 30.1838C27.8897 30.8313 27.4077 31.5 26.7251 31.5V33.5ZM0.577013 29.4466C-0.158457 31.4079 1.29138 33.5 3.386 33.5V31.5C2.68779 31.5 2.20452 30.8026 2.44967 30.1489L0.577013 29.4466ZM3.80033 20.1489C3.88522 20.3753 3.88522 20.6247 3.80033 20.8511L5.67299 21.5534C5.92767 20.8742 5.92767 20.1258 5.67299 19.4466L3.80033 20.1489ZM3.386 7.5C1.29138 7.5 -0.158456 9.59212 0.577013 11.5534L2.44967 10.8511C2.20452 10.1974 2.6878 9.5 3.386 9.5V7.5Z"
      fill="#F4F4F4"></path>
  </symbol>
  <symbol fill="none" xmlns="http://www.w3.org/2000/svg" viewBox="0 0 40 40" id="Electronics">
    <path
      d="M6 14.1667C6 12.5671 6.00212 11.468 6.11312 10.6424C6.22025 9.84555 6.41203 9.45483 6.68342 9.18345C6.9548 8.91206 7.34552 8.72028 8.14234 8.61315C8.96793 8.50215 10.067 8.50003 11.6667 8.50003H28.3333C29.933 8.50003 31.0321 8.50215 31.8577 8.61315C32.6545 8.72028 33.0452 8.91206 33.3166 9.18345C33.588 9.45483 33.7797 9.84555 33.8869 10.6424C33.9979 11.468 34 12.5671 34 14.1667V28.1667H6V14.1667Z"
      stroke="#F4F4F4" stroke-width="2"></path>
    <path
      d="M6.11111 28.1667C4.94518 28.1667 4 29.1118 4 30.2778C4 32.0574 5.44264 33.5 7.22222 33.5H32.7778C34.5574 33.5 36 32.0574 36 30.2778C36 29.1118 35.0548 28.1667 33.8889 28.1667H6.11111Z"
      stroke="#F4F4F4" stroke-width="2"></path>
  </symbol>
  <symbol fill="none" xmlns="http://www.w3.org/2000/svg" viewBox="0 0 40 40" id="FamilyAndGarden">
    <path
      d="M13.492 10.6189L14.1428 11.3781L13.492 10.6189ZM26.5078 10.6189L25.857 11.3781L26.5078 10.6189ZM28.1745 12.0474L28.8253 11.2882L28.1745 12.0474ZM11.8253 12.0474L11.1745 11.2882L11.1745 11.2882L11.8253 12.0474ZM30.6666 19.64V26.7073H32.6666V19.64H30.6666ZM24.9999 32.374H14.9999V34.374H24.9999V32.374ZM9.33325 26.7073V19.64H7.33325V26.7073H9.33325ZM12.4761 12.8067L14.1428 11.3781L12.8412 9.8596L11.1745 11.2882L12.4761 12.8067ZM25.857 11.3781L27.5237 12.8067L28.8253 11.2882L27.1586 9.8596L25.857 11.3781ZM14.1428 11.3781C15.7152 10.0303 16.825 9.08154 17.768 8.45868C18.6877 7.85127 19.3454 7.62604 19.9999 7.62604V5.62604C18.8048 5.62604 17.7613 6.06627 16.6658 6.78981C15.5937 7.49789 14.3743 8.5455 12.8412 9.8596L14.1428 11.3781ZM27.1586 9.8596C25.6255 8.5455 24.4061 7.49789 23.334 6.78981C22.2385 6.06627 21.195 5.62604 19.9999 5.62604V7.62604C20.6544 7.62604 21.3121 7.85127 22.2318 8.45868C23.1749 9.08154 24.2846 10.0303 25.857 11.3781L27.1586 9.8596ZM14.9999 32.374C13.4003 32.374 12.3012 32.3719 11.4756 32.2609C10.6788 32.1537 10.2881 31.962 10.0167 31.6906L8.60246 33.1048C9.30738 33.8097 10.1905 34.1061 11.2091 34.243C12.1989 34.3761 13.4568 34.374 14.9999 34.374V32.374ZM7.33325 26.7073C7.33325 28.2504 7.33113 29.5083 7.46421 30.4981C7.60116 31.5167 7.89753 32.3999 8.60246 33.1048L10.0167 31.6906C9.74528 31.4192 9.5535 31.0285 9.44637 30.2316C9.33538 29.406 9.33325 28.3069 9.33325 26.7073H7.33325ZM30.6666 26.7073C30.6666 28.3069 30.6645 29.406 30.5535 30.2316C30.4463 31.0285 30.2546 31.4192 29.9832 31.6906L31.3974 33.1048C32.1023 32.3999 32.3987 31.5167 32.5356 30.4981C32.6687 29.5083 32.6666 28.2504 32.6666 26.7073H30.6666ZM24.9999 34.374C26.543 34.374 27.8009 34.3761 28.7907 34.243C29.8093 34.1061 30.6925 33.8097 31.3974 33.1048L29.9832 31.6906C29.7118 31.962 29.3211 32.1537 28.5242 32.2609C27.6987 32.3719 26.5995 32.374 24.9999 32.374V34.374ZM32.6666 19.64C32.6666 17.4686 32.688 16.0732 32.1177 14.8332L30.3006 15.6689C30.6452 16.418 30.6666 17.2856 30.6666 19.64H32.6666ZM27.5237 12.8067C29.3113 14.3389 29.9561 14.9197 30.3006 15.6689L32.1177 14.8332C31.5474 13.5932 30.474 12.7013 28.8253 11.2882L27.5237 12.8067ZM9.33325 19.64C9.33325 17.2856 9.35464 16.418 9.6992 15.6689L7.88217 14.8332C7.31186 16.0732 7.33325 17.4686 7.33325 19.64H9.33325ZM11.1745 11.2882C9.52589 12.7013 8.45248 13.5932 7.88217 14.8332L9.6992 15.6689C10.0438 14.9197 10.6885 14.3389 12.4761 12.8067L11.1745 11.2882Z"
      fill="#F4F4F4"></path>
    <path
      d="M24.1666 33.374V24.374C24.1666 23.8217 23.7189 23.374 23.1666 23.374H16.8333C16.281 23.374 15.8333 23.8217 15.8333 24.374V33.374"
      stroke="#F4F4F4" stroke-width="2" stroke-linecap="round" stroke-linejoin="round"></path>
  </symbol>
</svg>