<svg width="40" height="40" viewBox="0 0 40 40" fill="none" xmlns="http://www.w3.org/2000/svg">
<path d="M21.0087 18.655C21.0087 18.0978 20.5571 17.6462 20 17.6462C19.4428 17.6462 18.9912 18.0978 18.9912 18.655V26.7249C18.9912 27.282 19.4428 27.7337 20 27.7337C20.5571 27.7337 21.0087 27.282 21.0087 26.7249V18.655Z" fill="#FF4F44"/>
<path fill-rule="evenodd" clip-rule="evenodd" d="M20 5.54126C12.0146 5.54126 5.54126 12.0146 5.54126 20C5.54126 27.9853 12.0146 34.4587 20 34.4587C27.9853 34.4587 34.4587 27.9853 34.4587 20C34.4587 12.0146 27.9853 5.54126 20 5.54126ZM7.55875 20C7.55875 13.1289 13.1289 7.55875 20 7.55875C26.871 7.55875 32.4412 13.1289 32.4412 20C32.4412 26.871 26.871 32.4412 20 32.4412C13.1289 32.4412 7.55875 26.871 7.55875 20Z" fill="#FF4F44"/>
<path d="M21.3449 14.62C21.3449 15.3628 20.7428 15.965 20 15.965C19.2571 15.965 18.655 15.3628 18.655 14.62C18.655 13.8772 19.2571 13.275 20 13.275C20.7428 13.275 21.3449 13.8772 21.3449 14.62Z" fill="#FF4F44"/>
</svg>
