<svg width="35" height="28" viewBox="0 0 35 28" fill="none" xmlns="http://www.w3.org/2000/svg">
<path d="M3.33398 11.2714L2.04744 12.558L0.760898 11.2714L2.04744 9.9849L3.33398 11.2714ZM34.4868 25.9381C34.4868 26.943 33.6722 27.7576 32.6673 27.7576C31.6625 27.7576 30.8479 26.943 30.8479 25.9381L34.4868 25.9381ZM11.2141 21.7247L2.04744 12.558L4.62053 9.9849L13.7872 19.1516L11.2141 21.7247ZM2.04744 9.9849L11.2141 0.818233L13.7872 3.39132L4.62053 12.558L2.04744 9.9849ZM3.33398 9.452L21.7506 9.452L21.7506 13.0909L3.33398 13.0909L3.33398 9.452ZM34.4868 22.1881L34.4868 25.9381L30.8479 25.9381L30.8479 22.1881L34.4868 22.1881ZM21.7506 9.452C28.7846 9.452 34.4868 15.1542 34.4868 22.1881L30.8479 22.1881C30.8479 17.1639 26.7749 13.0909 21.7506 13.0909L21.7506 9.452Z" fill="#F4F4F4"/>
</svg>
