<svg width="7" height="13" viewBox="0 0 7 13" fill="none" xmlns="http://www.w3.org/2000/svg">
<path d="M6.02796 2.03269C6.32216 1.74111 6.32427 1.26624 6.03269 0.972041C5.74111 0.677844 5.26624 0.675726 4.97204 0.967309L3.17731 2.7461C2.50134 3.41604 1.94886 3.96359 1.55706 4.45146C1.14963 4.95878 0.854695 5.47372 0.775909 6.09184C0.741364 6.36286 0.741364 6.63714 0.775909 6.90816C0.854695 7.52628 1.14963 8.04122 1.55706 8.54854C1.94886 9.03641 2.50133 9.58395 3.1773 10.2539L4.97204 12.0327C5.26624 12.3243 5.74111 12.3222 6.03269 12.028C6.32427 11.7338 6.32216 11.2589 6.02796 10.9673L4.26499 9.22C3.5495 8.51086 3.05869 8.02282 2.72659 7.60929C2.404 7.2076 2.29332 6.94958 2.26387 6.7185C2.24538 6.57341 2.24538 6.42659 2.26387 6.2815C2.29332 6.05042 2.404 5.7924 2.72659 5.39071C3.05869 4.97718 3.5495 4.48914 4.26499 3.78L6.02796 2.03269Z" fill="#F4F4F4"/>
</svg>
