<svg width="30" height="30" viewBox="0 0 30 30" fill="none" xmlns="http://www.w3.org/2000/svg">
<g opacity="0.5">
<path d="M12.4019 4.5C13.5566 2.5 16.4434 2.5 17.5981 4.5L25.3923 18C26.547 20 25.1036 22.5 22.7942 22.5H7.20577C4.89637 22.5 3.45299 20 4.6077 18L12.4019 4.5Z" stroke="#F4F4F4" stroke-width="1.2"/>
<path d="M14.4154 16.4632L14.1385 9H15.8769L15.5846 16.4632H14.4154ZM15.0154 20C14.7282 20 14.4872 19.9013 14.2923 19.704C14.0974 19.5066 14 19.2729 14 19.0028C14 18.712 14.0974 18.4731 14.2923 18.2861C14.4872 18.0992 14.7282 18.0057 15.0154 18.0057C15.3026 18.0057 15.5385 18.0992 15.7231 18.2861C15.9077 18.4731 16 18.712 16 19.0028C16 19.2729 15.9077 19.5066 15.7231 19.704C15.5385 19.9013 15.3026 20 15.0154 20Z" fill="#F4F4F4"/>
</g>
</svg>
