<svg width="24" height="22" viewBox="0 0 24 22" fill="none" xmlns="http://www.w3.org/2000/svg">
<path fill-rule="evenodd" clip-rule="evenodd" d="M15.1179 2.45003C13.7322 0.050027 10.2681 0.0500218 8.8825 2.45002L1.08827 15.95C-0.297374 18.35 1.43467 21.35 4.20595 21.35H19.7944C22.5657 21.35 24.2977 18.35 22.9121 15.95L15.1179 2.45003ZM9.92173 3.05002C10.8455 1.45002 13.1549 1.45002 14.0786 3.05003L21.8729 16.55C22.7966 18.15 21.6419 20.15 19.7944 20.15H4.20595C2.35843 20.15 1.20374 18.15 2.1275 16.55L9.92173 3.05002ZM12.1854 6.50003C12.5996 6.50003 12.9354 6.83581 12.9354 7.25003V13.25C12.9354 13.6642 12.5996 14 12.1854 14C11.7712 14 11.4354 13.6642 11.4354 13.25V7.25003C11.4354 6.83581 11.7712 6.50003 12.1854 6.50003ZM12.1854 17.25C12.7377 17.25 13.1854 16.8023 13.1854 16.25C13.1854 15.6977 12.7377 15.25 12.1854 15.25C11.6331 15.25 11.1854 15.6977 11.1854 16.25C11.1854 16.8023 11.6331 17.25 12.1854 17.25Z" fill="#F4F4F4"/>
</svg>
