<svg width="12" height="12" viewBox="0 0 12 12" fill="none" xmlns="http://www.w3.org/2000/svg">
<path d="M7 5.70044V8.20044M2 3.20044H10L9.21 10.3104C9.18292 10.5551 9.06653 10.7812 8.88313 10.9454C8.69972 11.1097 8.46218 11.2005 8.216 11.2004H3.784C3.53782 11.2005 3.30028 11.1097 3.11687 10.9454C2.93347 10.7812 2.81708 10.5551 2.79 10.3104L2 3.20044ZM3.6725 1.77394C3.75338 1.60242 3.88135 1.45744 4.0415 1.35589C4.20165 1.25435 4.38737 1.20044 4.577 1.20044H7.423C7.61271 1.20034 7.79854 1.25421 7.95879 1.35576C8.11903 1.45731 8.24709 1.60235 8.328 1.77394L9 3.20044H3L3.6725 1.77394V1.77394ZM1 3.20044H11H1ZM5 5.70044V8.20044V5.70044Z" stroke="white" stroke-linecap="round" stroke-linejoin="round"/>
</svg>
