<svg width="21" height="21" viewBox="0 0 21 21" fill="none" xmlns="http://www.w3.org/2000/svg">
<path d="M3.32458 14.5015L8.76385 14.5015L8.62776 17.3864C8.596 18.0836 8.83417 18.7455 9.29689 19.2502C9.52397 19.499 9.79794 19.6969 10.1019 19.8318C10.4058 19.9666 10.7332 20.0355 11.0639 20.0343C12.2434 20.0343 11.9877 14.9084 12.9293 13.9339L15.5482 10.7363L15.5482 0.689443L4.84204 0.689442C4.63336 0.689442 4.42922 0.731698 4.24096 0.816203C3.16127 1.29272 2.88528 1.59047 2.46492 3.59551L1.06087 11.6752C0.652352 14.026 2.3998 14.5389 3.32458 14.5015Z" fill="#838383"/>
<path d="M19.619 10.7363C20.0205 10.7363 20.3448 10.4006 20.3448 9.98509L20.3448 1.44061C20.3448 1.02512 20.0205 0.689444 19.619 0.689444L17.6777 0.689443L17.6777 10.7363L19.619 10.7363Z" fill="#838383"/>
<path d="M1.06087 11.6752L1.55348 11.7608L1.06087 11.6752ZM3.32458 14.5015L3.32458 14.0015L3.31447 14.0015L3.30436 14.0019L3.32458 14.5015ZM8.76385 14.5015L9.2633 14.525L9.28799 14.0015L8.76385 14.0015L8.76385 14.5015ZM8.62776 17.3864L8.12831 17.3628L8.12827 17.3637L8.62776 17.3864ZM9.29689 19.2502L9.66616 18.9131L9.66543 18.9123L9.29689 19.2502ZM11.0639 20.0343L11.0639 19.5342L11.0619 19.5343L11.0639 20.0343ZM12.9293 13.9339L13.2889 14.2814L13.3032 14.2666L13.3162 14.2507L12.9293 13.9339ZM15.5482 10.7363L15.935 11.0531C16.0082 10.9637 16.0482 10.8518 16.0482 10.7363L15.5482 10.7363ZM4.24096 0.816203L4.44285 1.27364L4.44571 1.27236L4.24096 0.816203ZM2.46492 3.59551L1.97555 3.49291L1.97378 3.50138L1.9723 3.5099L2.46492 3.59551ZM15.5482 0.689443L16.0482 0.689443C16.0482 0.413301 15.8243 0.189443 15.5482 0.189443L15.5482 0.689443ZM17.6777 10.7363L17.1777 10.7363C17.1777 11.0124 17.4016 11.2363 17.6777 11.2363L17.6777 10.7363ZM17.6777 0.689443L17.6777 0.189443C17.4016 0.189443 17.1777 0.413301 17.1777 0.689443L17.6777 0.689443ZM3.32458 15.0015L8.76385 15.0015L8.76385 14.0015L3.32458 14.0015L3.32458 15.0015ZM8.26441 14.4779L8.12831 17.3628L9.1272 17.41L9.2633 14.525L8.26441 14.4779ZM8.12827 17.3637C8.09058 18.1912 8.3741 18.9836 8.92835 19.5881L9.66543 18.9123C9.29423 18.5075 9.10142 17.9759 9.12724 17.4092L8.12827 17.3637ZM8.92762 19.5873C9.20068 19.8865 9.53112 20.1255 9.89907 20.2888L10.3046 19.3747C10.0648 19.2683 9.84727 19.1115 9.66616 18.9131L8.92762 19.5873ZM9.89907 20.2888C10.2671 20.4521 10.6642 20.5358 11.0658 20.5342L11.0619 19.5343C10.8022 19.5353 10.5445 19.4811 10.3046 19.3747L9.89907 20.2888ZM11.0639 20.5343C11.4213 20.5343 11.6781 20.331 11.8424 20.1142C12.0012 19.9049 12.1125 19.6373 12.1973 19.3687C12.3682 18.8277 12.481 18.1162 12.5807 17.4205C12.6833 16.7055 12.7733 15.997 12.8962 15.3988C12.9573 15.1016 13.0233 14.8483 13.0968 14.6477C13.1731 14.439 13.2428 14.3291 13.2889 14.2814L12.5698 13.5865C12.3805 13.7824 12.2522 14.0458 12.1577 14.304C12.0602 14.5702 11.9825 14.8773 11.9167 15.1976C11.7858 15.8345 11.6896 16.5902 11.5909 17.2785C11.4894 17.9861 11.3861 18.617 11.2437 19.0675C11.172 19.2947 11.1023 19.4352 11.0456 19.51C10.9946 19.5773 11.0013 19.5343 11.0639 19.5343L11.0639 20.5343ZM13.3162 14.2507L15.935 11.0531L15.1614 10.4195L12.5425 13.6171L13.3162 14.2507ZM19.619 11.2363C20.3126 11.2363 20.8448 10.6604 20.8448 9.98509L19.8448 9.98509C19.8448 10.1407 19.7283 10.2363 19.619 10.2363L19.619 11.2363ZM20.8448 9.98509L20.8448 1.44061L19.8448 1.44061L19.8448 9.98509L20.8448 9.98509ZM20.8448 1.44061C20.8448 0.765282 20.3126 0.189444 19.619 0.189444L19.619 1.18944C19.7283 1.18944 19.8448 1.28496 19.8448 1.44061L20.8448 1.44061ZM4.84204 0.189442C4.56558 0.189442 4.29136 0.245516 4.03621 0.360049L4.44571 1.27236C4.56708 1.21788 4.70115 1.18944 4.84204 1.18944L4.84204 0.189442ZM4.03907 0.358773C3.48519 0.603226 3.03046 0.844281 2.6897 1.35525C2.3725 1.8309 2.18403 2.49854 1.97555 3.49291L2.95428 3.6981C3.16617 2.68744 3.32587 2.20369 3.52167 1.91007C3.69393 1.65178 3.91703 1.5057 4.44284 1.27363L4.03907 0.358773ZM15.5482 0.189443L4.84204 0.189442L4.84204 1.18944L15.5482 1.18944L15.5482 0.189443ZM16.0482 10.7363L16.0482 0.689443L15.0482 0.689443L15.0482 10.7363L16.0482 10.7363ZM1.55348 11.7608L2.95753 3.68111L1.9723 3.5099L0.568249 11.5896L1.55348 11.7608ZM3.30436 14.0019C2.92209 14.0173 2.38992 13.9137 2.01263 13.5997C1.67319 13.3171 1.37398 12.7938 1.55348 11.7608L0.568249 11.5896C0.339234 12.9075 0.709498 13.816 1.37284 14.3682C1.99834 14.8889 2.80229 15.023 3.3448 15.0011L3.30436 14.0019ZM17.6777 11.2363L19.619 11.2363L19.619 10.2363L17.6777 10.2363L17.6777 11.2363ZM19.619 0.189444L17.6777 0.189443L17.6777 1.18944L19.619 1.18944L19.619 0.189444ZM18.1777 10.7363L18.1777 0.689443L17.1777 0.689443L17.1777 10.7363L18.1777 10.7363Z" fill="#838383"/>
</svg>
