<svg width="23" height="19" viewBox="0 0 23 19" fill="none" xmlns="http://www.w3.org/2000/svg">
<path d="M3.63611 10.4877L10.8784 17.2911L10.8784 17.2911C11.1418 17.5385 11.2734 17.6622 11.4307 17.6842C11.4767 17.6906 11.5233 17.6906 11.5693 17.6842C11.7266 17.6622 11.8582 17.5385 12.1216 17.2911L19.3639 10.4877C21.4016 8.57355 21.649 5.42356 19.9352 3.21467L19.613 2.79934C17.5628 0.156875 13.4475 0.600034 12.0069 3.61841C11.8034 4.04477 11.1965 4.04477 10.993 3.61841C9.55246 0.600034 5.4372 0.156877 3.38701 2.79934L3.06477 3.21468C1.35098 5.42356 1.59843 8.57355 3.63611 10.4877Z" stroke="#F4F4F4" stroke-width="2"/>
</svg>
