<svg width="15" height="13" viewBox="0 0 15 13" fill="none" xmlns="http://www.w3.org/2000/svg">
<path d="M4.25 1C2.45535 1 1 2.36686 1 4.05324C1 5.41455 1.56875 8.64543 7.1672 11.9115C7.26748 11.9694 7.38261 12 7.5 12C7.61739 12 7.73252 11.9694 7.8328 11.9115C8.9683 11.249 9.89688 10.5881 10.6558 9.94383C11.6197 9.12559 12.3098 8.33438 12.8025 7.60155C13.8344 6.06659 14 4.78776 14 4.05324C14 2.36686 12.5446 1 10.75 1C8.95535 1 7.5 2.85045 7.5 2.85045C7.5 2.85045 6.04465 1 4.25 1Z" fill="#F4F4F4"/>
<path d="M10.6558 9.94383C9.89688 10.5881 8.9683 11.249 7.8328 11.9115C7.73252 11.9694 7.61739 12 7.5 12C7.38261 12 7.26748 11.9694 7.1672 11.9115C1.56875 8.64543 1 5.41455 1 4.05324C1 2.36686 2.45535 1 4.25 1C6.04465 1 7.5 2.85045 7.5 2.85045C7.5 2.85045 8.95535 1 10.75 1C12.5446 1 14 2.36686 14 4.05324C14 4.78776 13.8344 6.06659 12.8025 7.60155M10.6558 9.94383C11.6197 9.12559 12.3098 8.33438 12.8025 7.60155M10.6558 9.94383L12.8025 7.60155" stroke="#F4F4F4" stroke-linecap="round" stroke-linejoin="round"/>
</svg>
