<svg width="20" height="22" viewBox="0 0 20 22" fill="none" xmlns="http://www.w3.org/2000/svg">
<path d="M7.13478 19.7733V16.7156C7.13478 15.9351 7.77217 15.3023 8.55844 15.3023H11.4326C11.8102 15.3023 12.1723 15.4512 12.4393 15.7163C12.7063 15.9813 12.8563 16.3408 12.8563 16.7156V19.7733C12.8539 20.0978 12.9821 20.4099 13.2124 20.6402C13.4427 20.8705 13.756 21 14.0829 21H16.0438C16.9596 21.0024 17.8388 20.6428 18.4872 20.0008C19.1356 19.3588 19.5 18.487 19.5 17.5778V8.86686C19.5 8.13246 19.1721 7.43584 18.6046 6.96467L11.934 1.67587C10.7737 0.748562 9.11111 0.778502 7.98539 1.74698L1.46701 6.96467C0.872741 7.42195 0.517552 8.12064 0.5 8.86686V17.5689C0.5 19.4639 2.04738 21 3.95617 21H5.87229C6.55123 21 7.103 20.4562 7.10792 19.7822L7.13478 19.7733Z" stroke="#F4F4F4"/>
</svg>
