<svg width="18" height="17" viewBox="0 0 18 17" fill="none" xmlns="http://www.w3.org/2000/svg">
<path d="M6.34488 4.31457L8.57541 0.689951C8.83927 0.261184 9.30668 0 9.81013 0C10.6987 0 11.3782 0.79201 11.243 1.67022L11 3.25C10.7371 4.95887 12.0593 6.5 13.7882 6.5H14.478C17.015 6.5 18.6651 9.16987 17.5305 11.439L16.382 13.7361C15.535 15.43 13.8037 16.5 11.9098 16.5H9C7.65211 16.5 6.45994 15.8333 5.73525 14.8117C5.74501 14.7091 5.75 14.6051 5.75 14.5V6.5C5.75 6.169 5.70052 5.84955 5.60855 5.54866C5.78577 5.22312 6.02173 4.83968 6.34488 4.31457Z" fill="#F4F4F4"/>
<path d="M4.25 14.5C4.25 15.4665 3.4665 16.25 2.5 16.25C1.5335 16.25 0.75 15.4665 0.75 14.5V6.5C0.75 5.5335 1.5335 4.75 2.5 4.75C3.4665 4.75 4.25 5.5335 4.25 6.5V14.5Z" fill="#F4F4F4"/>
</svg>
