<svg width="21" height="21" viewBox="0 0 21 21" fill="none" xmlns="http://www.w3.org/2000/svg">
<path d="M18.0202 6.22226H12.581L12.7171 3.33732C12.7488 2.64015 12.5107 1.97819 12.0479 1.4735C11.8208 1.22474 11.5469 1.02682 11.243 0.891968C10.939 0.757116 10.6116 0.688197 10.281 0.68947C9.10147 0.68947 9.35711 5.81532 8.41547 6.7898L5.79662 9.98747V20.0343H16.5028C16.7115 20.0343 16.9156 19.992 17.1039 19.9075C18.1836 19.431 18.4595 19.1332 18.8799 17.1282L20.284 9.04851C20.6925 6.69769 18.945 6.18483 18.0202 6.22226Z" fill="#F4F4F4"/>
<path d="M1.72584 9.98747C1.32436 9.98747 1 10.3231 1 10.7386V19.2831C1 19.6986 1.32436 20.0343 1.72584 20.0343H3.6671V9.98747H1.72584Z" fill="#F4F4F4"/>
<path d="M20.284 9.04851L19.7913 8.96291L20.284 9.04851ZM18.0202 6.22226V6.72226H18.0303L18.0405 6.72185L18.0202 6.22226ZM12.581 6.22226L12.0815 6.1987L12.0568 6.72226H12.581V6.22226ZM12.7171 3.33732L13.2165 3.36088L13.2165 3.36007L12.7171 3.33732ZM12.0479 1.4735L11.6787 1.8106L11.6794 1.8114L12.0479 1.4735ZM10.281 0.68947V1.18947L10.2829 1.18947L10.281 0.68947ZM8.41547 6.7898L8.05591 6.44236L8.04165 6.45712L8.02865 6.473L8.41547 6.7898ZM5.79662 9.98747L5.4098 9.67066C5.33661 9.76002 5.29662 9.87196 5.29662 9.98747H5.79662ZM17.1039 19.9075L16.902 19.4501L16.8991 19.4514L17.1039 19.9075ZM18.8799 17.1282L19.3693 17.2308L19.371 17.2223L19.3725 17.2138L18.8799 17.1282ZM5.79662 20.0343H5.29662C5.29662 20.3104 5.52048 20.5343 5.79662 20.5343V20.0343ZM3.6671 9.98747H4.1671C4.1671 9.71132 3.94324 9.48747 3.6671 9.48747V9.98747ZM3.6671 20.0343V20.5343C3.94324 20.5343 4.1671 20.3104 4.1671 20.0343H3.6671ZM18.0202 5.72226H12.581V6.72226H18.0202V5.72226ZM13.0804 6.24582L13.2165 3.36088L12.2176 3.31376L12.0815 6.1987L13.0804 6.24582ZM13.2165 3.36007C13.2542 2.53252 12.9707 1.74011 12.4165 1.1356L11.6794 1.8114C12.0506 2.21626 12.2434 2.74778 12.2176 3.31457L13.2165 3.36007ZM12.4172 1.1364C12.1441 0.837268 11.8137 0.598201 11.4458 0.434939L11.0402 1.349C11.2801 1.45544 11.4976 1.61221 11.6787 1.8106L12.4172 1.1364ZM11.4458 0.434939C11.0778 0.271653 10.6806 0.187928 10.279 0.189474L10.2829 1.18947C10.5427 1.18847 10.8003 1.24258 11.0402 1.349L11.4458 0.434939ZM10.281 0.18947C9.92353 0.18947 9.66675 0.392743 9.50238 0.609507C9.34361 0.81887 9.23235 1.08644 9.14752 1.355C8.9766 1.89605 8.86385 2.60749 8.76408 3.30323C8.66155 4.0182 8.57147 4.72668 8.44857 5.32489C8.3875 5.62215 8.32148 5.87545 8.24806 6.07605C8.17171 6.28468 8.102 6.39466 8.05591 6.44236L8.77504 7.13724C8.96435 6.94132 9.09264 6.67795 9.18715 6.41974C9.28459 6.1535 9.3623 5.84647 9.42811 5.52614C9.55897 4.88918 9.65525 4.13349 9.75395 3.44518C9.85542 2.73765 9.95876 2.10673 10.1011 1.65622C10.1728 1.429 10.2425 1.28851 10.2992 1.21374C10.3503 1.14638 10.3435 1.18947 10.281 1.18947V0.18947ZM8.02865 6.473L5.4098 9.67066L6.18345 10.3043L8.8023 7.10661L8.02865 6.473ZM1.72584 9.48747C1.03219 9.48747 0.5 10.0633 0.5 10.7386H1.5C1.5 10.583 1.61653 10.4875 1.72584 10.4875V9.48747ZM0.5 10.7386V19.2831H1.5V10.7386H0.5ZM0.5 19.2831C0.5 19.9584 1.03219 20.5343 1.72584 20.5343V19.5343C1.61653 19.5343 1.5 19.4388 1.5 19.2831H0.5ZM16.5028 20.5343C16.7792 20.5343 17.0535 20.4782 17.3086 20.3637L16.8991 19.4514C16.7777 19.5058 16.6437 19.5343 16.5028 19.5343V20.5343ZM17.3057 20.365C17.8596 20.1205 18.3144 19.8794 18.6551 19.3685C18.9723 18.8928 19.1608 18.2252 19.3693 17.2308L18.3905 17.0256C18.1787 18.0363 18.019 18.52 17.8231 18.8136C17.6509 19.0719 17.4278 19.218 16.902 19.4501L17.3057 20.365ZM5.79662 20.5343H16.5028V19.5343H5.79662V20.5343ZM5.29662 9.98747V20.0343H6.29662V9.98747H5.29662ZM19.7913 8.96291L18.3873 17.0426L19.3725 17.2138L20.7766 9.13412L19.7913 8.96291ZM18.0405 6.72185C18.4227 6.70638 18.9549 6.80999 19.3322 7.12407C19.6716 7.40664 19.9708 7.92996 19.7913 8.96291L20.7766 9.13412C21.0056 7.81624 20.6353 6.90772 19.972 6.35552C19.3465 5.83481 18.5425 5.70071 18 5.72267L18.0405 6.72185ZM3.6671 9.48747H1.72584V10.4875H3.6671V9.48747ZM1.72584 20.5343H3.6671V19.5343H1.72584V20.5343ZM3.1671 9.98747V20.0343H4.1671V9.98747H3.1671Z" fill="#F4F4F4"/>
</svg>
