<svg width="13" height="13" viewBox="0 0 13 13" fill="none" xmlns="http://www.w3.org/2000/svg">
<path d="M10.0333 5.93103C10.0333 6.20718 10.2572 6.43103 10.5333 6.43103C10.8095 6.43103 11.0333 6.20718 11.0333 5.93103H10.0333ZM11.6555 12.3624C11.8557 12.5527 12.1722 12.5446 12.3624 12.3445C12.5527 12.1443 12.5446 11.8278 12.3445 11.6376L11.6555 12.3624ZM10.4934 8.32896C10.6125 8.0798 10.507 7.7813 10.2579 7.66224C10.0087 7.54318 9.7102 7.64864 9.59114 7.89779L10.4934 8.32896ZM5.76667 10.3621C3.42609 10.3621 1.5 8.39434 1.5 5.93103H0.5C0.5 8.9144 2.84212 11.3621 5.76667 11.3621V10.3621ZM1.5 5.93103C1.5 3.46773 3.42609 1.5 5.76667 1.5V0.5C2.84212 0.5 0.5 2.94767 0.5 5.93103H1.5ZM5.76667 1.5C8.10724 1.5 10.0333 3.46773 10.0333 5.93103H11.0333C11.0333 2.94767 8.69121 0.5 5.76667 0.5V1.5ZM8.83975 9.00478C8.06096 9.84431 6.97086 10.3621 5.76667 10.3621V11.3621C7.26606 11.3621 8.61671 10.7156 9.57288 9.68487L8.83975 9.00478ZM8.86186 9.70725L11.6555 12.3624L12.3445 11.6376L9.55077 8.9824L8.86186 9.70725ZM9.59114 7.89779C9.39571 8.30676 9.1413 8.67972 8.83975 9.00478L9.57288 9.68487C9.94297 9.28592 10.2544 8.82905 10.4934 8.32896L9.59114 7.89779Z" fill="#F4F4F4"/>
</svg>
