<svg width="18" height="14" viewBox="0 0 18 14" fill="none" xmlns="http://www.w3.org/2000/svg">
<path d="M8.85336 5.6336C9.12439 5.5807 9.30122 5.3181 9.24832 5.04708C9.19542 4.77605 8.93282 4.59922 8.66179 4.65212L8.85336 5.6336ZM1 12.5714L0.527791 12.4071C0.454847 12.6166 0.52873 12.8492 0.709241 12.9782C0.889752 13.1072 1.13371 13.1019 1.30837 12.965L1 12.5714ZM11.1818 8.39286H11.6818C11.6818 8.11671 11.458 7.89286 11.1818 7.89286V8.39286ZM11.1818 13.5H10.6818C10.6818 13.7073 10.8097 13.8931 11.0033 13.9671C11.1969 14.041 11.4161 13.9879 11.5544 13.8335L11.1818 13.5ZM17 7L17.3726 7.33347C17.5425 7.14363 17.5425 6.85637 17.3726 6.66653L17 7ZM11.1818 0.5L11.5544 0.166526C11.4161 0.0120858 11.1969 -0.0410488 11.0033 0.0329474C10.8097 0.106944 10.6818 0.292726 10.6818 0.5H11.1818ZM10.6818 4.67857C10.6818 4.95471 10.9057 5.17857 11.1818 5.17857C11.458 5.17857 11.6818 4.95471 11.6818 4.67857H10.6818ZM8.66179 4.65212C3.63149 5.63392 1.31926 10.1334 0.527791 12.4071L1.47221 12.7358C2.23226 10.5524 4.36851 6.50894 8.85336 5.6336L8.66179 4.65212ZM1.30837 12.965C3.08896 11.57 6.52226 8.89286 11.1818 8.89286V7.89286C6.14441 7.89286 2.46659 10.7872 0.691633 12.1778L1.30837 12.965ZM10.6818 8.39286V13.5H11.6818V8.39286H10.6818ZM11.5544 13.8335L17.3726 7.33347L16.6274 6.66653L10.8093 13.1665L11.5544 13.8335ZM17.3726 6.66653L11.5544 0.166526L10.8093 0.833474L16.6274 7.33347L17.3726 6.66653ZM10.6818 0.5V4.67857H11.6818V0.5H10.6818Z" fill="#F4F4F4"/>
</svg>
