<svg width="15" height="13" viewBox="0 0 15 13" fill="none" xmlns="http://www.w3.org/2000/svg">
<path d="M7.40263 5.41855C7.67323 5.36355 7.84802 5.09959 7.79301 4.82898C7.73801 4.55837 7.47405 4.38359 7.20344 4.43859L7.40263 5.41855ZM1 11.2143L0.525789 11.0558C0.455232 11.2669 0.532699 11.4992 0.715826 11.6257C0.898954 11.7522 1.14365 11.7424 1.3161 11.6017L1 11.2143ZM9.27273 7.67857H9.77273C9.77273 7.40243 9.54887 7.17857 9.27273 7.17857V7.67857ZM9.27273 12H8.77273C8.77273 12.2091 8.90286 12.3961 9.09894 12.4688C9.29501 12.5415 9.51561 12.4845 9.65191 12.3259L9.27273 12ZM14 6.5L14.3792 6.82591C14.5403 6.63849 14.5403 6.36151 14.3792 6.17409L14 6.5ZM9.27273 1L9.65191 0.674088C9.51561 0.515503 9.29501 0.458491 9.09894 0.531176C8.90286 0.60386 8.77273 0.790886 8.77273 1L9.27273 1ZM8.77273 4.53571C8.77273 4.81186 8.99659 5.03571 9.27273 5.03571C9.54887 5.03571 9.77273 4.81186 9.77273 4.53571H8.77273ZM7.20344 4.43859C3.05921 5.28095 1.16844 9.13311 0.525789 11.0558L1.47421 11.3728C2.09216 9.52403 3.81579 6.14762 7.40263 5.41855L7.20344 4.43859ZM1.3161 11.6017C2.76558 10.419 5.52934 8.17857 9.27273 8.17857V7.17857C5.13733 7.17857 2.1233 9.65242 0.683903 10.8269L1.3161 11.6017ZM8.77273 7.67857V12H9.77273V7.67857H8.77273ZM9.65191 12.3259L14.3792 6.82591L13.6208 6.17409L8.89354 11.6741L9.65191 12.3259ZM14.3792 6.17409L9.65191 0.674088L8.89354 1.32591L13.6208 6.82591L14.3792 6.17409ZM8.77273 1V4.53571H9.77273V1H8.77273Z" fill="#F4F4F4"/>
</svg>
