<svg width="12" height="13" viewBox="0 0 12 13" fill="none" xmlns="http://www.w3.org/2000/svg">
<path d="M10.6768 5.16916L7.67898 4.75855L6.33889 2.19808C6.30228 2.12797 6.24207 2.07122 6.16768 2.03673C5.98113 1.94993 5.75444 2.02226 5.66116 2.19808L4.32106 4.75855L1.32326 5.16916C1.24061 5.18028 1.16504 5.21701 1.10719 5.27264C1.03725 5.3404 0.998705 5.43155 1.00003 5.52607C1.00136 5.62059 1.04245 5.71074 1.11427 5.77673L3.28323 7.76969L2.7708 10.5839C2.75878 10.6493 2.76647 10.7167 2.79299 10.7782C2.81951 10.8398 2.86379 10.8931 2.92083 10.9321C2.97787 10.9712 3.04537 10.9944 3.11568 10.9991C3.186 11.0038 3.25631 10.9899 3.31865 10.9589L6.00002 9.63023L8.6814 10.9589C8.7546 10.9956 8.83962 11.0078 8.92108 10.9945C9.12653 10.9611 9.26467 10.7775 9.22925 10.5839L8.71682 7.76969L10.8858 5.77673C10.9448 5.7222 10.9838 5.65098 10.9956 5.57309C11.0275 5.37836 10.8834 5.19809 10.6768 5.16916Z" fill="#FEC202"/>
</svg>
