<svg width="40" height="41" viewBox="0 0 40 41" fill="none" xmlns="http://www.w3.org/2000/svg">
<path d="M24.2133 13.3045C24.7037 12.8185 24.7072 12.0271 24.2212 11.5367C23.7353 11.0464 22.9438 11.0429 22.4535 11.5288L19.4623 14.4935C18.3356 15.6101 17.4149 16.5226 16.7618 17.3358C16.0828 18.1813 15.5912 19.0395 15.4599 20.0697C15.4024 20.5214 15.4024 20.9785 15.4599 21.4303C15.5912 22.4605 16.0828 23.3187 16.7618 24.1642C17.4148 24.9773 18.3356 25.8899 19.4622 27.0065L22.4535 29.9711C22.9438 30.4571 23.7353 30.4536 24.2212 29.9633C24.7072 29.4729 24.7037 28.6815 24.2133 28.1955L21.2751 25.2833C20.0826 24.1014 19.2646 23.288 18.7111 22.5988C18.1734 21.9293 17.989 21.4993 17.9399 21.1142C17.909 20.8723 17.909 20.6276 17.9399 20.3858C17.989 20.0007 18.1734 19.5707 18.7111 18.9012C19.2646 18.212 20.0826 17.3986 21.2751 16.2167L24.2133 13.3045Z" fill="#F4F4F4"/>
</svg>
