<svg width="24" height="20" viewBox="0 0 24 20" fill="none" xmlns="http://www.w3.org/2000/svg">
<path d="M1 0C0.447715 0 0 0.447715 0 1C0 1.55228 0.447715 2 1 2V0ZM5.8 1L6.7594 0.717938C6.63426 0.292303 6.24365 0 5.8 0V1ZM8.6 10.5238L7.6406 10.8059C7.76574 11.2315 8.15635 11.5238 8.6 11.5238V10.5238ZM23 10.5238V11.5238C23.5523 11.5238 24 11.0761 24 10.5238H23ZM23 2.90476H24C24 2.35248 23.5523 1.90476 23 1.90476V2.90476ZM8.6 14.3333L7.79424 13.7411C7.57094 14.0449 7.5375 14.4485 7.70775 14.7849C7.87799 15.1213 8.22297 15.3333 8.6 15.3333V14.3333ZM23 15.3333C23.5523 15.3333 24 14.8856 24 14.3333C24 13.781 23.5523 13.3333 23 13.3333V15.3333ZM1 2H5.8V0H1V2ZM24 10.5238V2.90476H22V10.5238H24ZM4.8406 1.28206L5.4006 3.18682L7.3194 2.6227L6.7594 0.717938L4.8406 1.28206ZM5.4006 3.18682L7.6406 10.8059L9.5594 10.2417L7.3194 2.6227L5.4006 3.18682ZM23 1.90476H6.36V3.90476H23V1.90476ZM8.6 11.5238H11.4V9.52381H8.6V11.5238ZM11.4 11.5238H23V9.52381H11.4V11.5238ZM10.5942 9.93157L7.79424 13.7411L9.40576 14.9256L12.2058 11.116L10.5942 9.93157ZM8.6 15.3333H23V13.3333H8.6V15.3333Z" fill="white"/>
<circle cx="9.33335" cy="18.3333" r="1.66667" fill="#F4F4F4"/>
<circle cx="21.3334" cy="18.3333" r="1.66667" fill="#F4F4F4"/>
</svg>
