<svg width="25" height="26" viewBox="0 0 25 26" fill="none" xmlns="http://www.w3.org/2000/svg">
<path fill-rule="evenodd" clip-rule="evenodd" d="M12.5 2C9.92289 2 8 3.87842 8 6V7H17V6C17 3.87842 15.0771 2 12.5 2ZM6 6V7H1.5625C0.699555 7 0 7.56711 0 8.26667V24.7333C0 25.4329 0.699555 26 1.5625 26H23.4375C24.3004 26 25 25.4329 25 24.7333V8.26667C25 7.56711 24.3004 7 23.4375 7H19V6C19 2.59874 15.998 0 12.5 0C9.00197 0 6 2.59874 6 6ZM5.21844 15.0575C2.60742 17.8121 2.8315 20.9567 3.26992 22.1847C3.26992 20.4751 5.72793 16.0933 9.31033 15.8039C11.8296 15.6004 11.8414 18.2604 11.1351 18.9105C10.9144 19.1136 10.6511 19.3211 10.3807 19.5342L10.3807 19.5342C9.56808 20.1747 8.69255 20.8647 8.72577 21.6309C8.79884 23.3164 11.5024 23.1483 11.9408 22.6854C9.89488 21.8962 11.1351 20.894 11.9408 20.6196C11.9895 19.0625 11.9847 15.5342 11.5755 13.8777C11.1663 12.2211 9.50518 11.229 8.72577 10.9401C6.75777 9.89992 4.95052 9.92882 4.29289 10.0733C3.82156 12.636 4.71201 14.1499 5.07466 14.7664C5.16178 14.9145 5.21844 15.0109 5.21844 15.0575ZM19.7816 15.0576C22.3926 17.8121 22.1685 20.9567 21.7301 22.1847C21.7301 20.4751 19.2721 16.0934 15.6897 15.804C13.1704 15.6005 13.1586 18.2604 13.865 18.9105C14.0856 19.1136 14.349 19.3212 14.6194 19.5343C15.432 20.1747 16.3075 20.8647 16.2743 21.6309C16.2012 23.3164 13.4976 23.1483 13.0592 22.6854C15.1051 21.8962 13.865 20.894 13.0592 20.6196C13.0105 19.0625 13.0154 15.5343 13.4246 13.8777C13.8337 12.2211 15.4949 11.2291 16.2743 10.9402C18.2423 9.90001 20.0495 9.92891 20.7071 10.0734C21.1784 12.6361 20.288 14.1499 19.9253 14.7665C19.8382 14.9146 19.7816 15.0109 19.7816 15.0576Z" fill="#F4F4F4"/>
</svg>
