<svg width="8" height="6" viewBox="0 0 8 6" fill="none" xmlns="http://www.w3.org/2000/svg">
<path d="M6.77485 5.63984L7.97651 0.556421C8.08659 0.112957 7.79305 -0.0677133 7.44448 0.022622L0.372081 2.48631C-0.114089 2.65056 -0.104915 2.89693 0.289524 3.00369L1.7265 3.4025C1.98117 3.47317 2.25346 3.44016 2.48386 3.31068L6.28868 1.17234C6.50883 1.05737 6.66477 1.12307 6.50883 1.23804L3.44858 3.71861C3.23549 3.89135 3.1027 4.14403 3.08132 4.41751L3.00283 5.42142C2.99399 5.53444 3.08756 5.63374 3.19103 5.58743C3.22777 5.57098 3.26181 5.55033 3.29233 5.52608C3.3365 5.49099 3.37511 5.44923 3.41846 5.41314L3.69878 5.17974C4.03818 4.89716 4.52275 4.87068 4.89092 5.11459L6.10522 5.91905C6.44462 6.0833 6.68312 6.00118 6.77485 5.63984Z" fill="#F4F4F4"/>
</svg>
