<svg width="40" height="40" viewBox="0 0 40 40" fill="none" xmlns="http://www.w3.org/2000/svg">
<path d="M26.4 4C28.1872 4 29.6 5.4128 29.6 7.2C29.6 7.4752 29.5568 7.7568 29.4496 8.1008L29.1504 9.0496L29.8496 9.6992L30.3008 10.1504L30.9504 10.8496L31.8992 10.5504C32.2432 10.4432 32.5248 10.4 32.8 10.4C34.5872 10.4 36 11.8128 36 13.6C36 15.3872 34.5872 16.8 32.8 16.8C31.632 16.8 30.6688 16.1808 30.0992 15.2496L29 13.4992L27.6 14.9504L14.9504 27.6L13.5008 29L15.2496 30.1008C16.1808 30.6688 16.8 31.632 16.8 32.8C16.8 34.5872 15.3872 36 13.6 36C11.8128 36 10.4 34.5872 10.4 32.8C10.4 32.5248 10.4432 32.2432 10.5504 31.8992L10.8496 30.9504L10.1504 30.2992L9.7008 29.8512L9.0496 29.1504L8.0992 29.4496C7.7568 29.5568 7.4752 29.6 7.2 29.6C5.4128 29.6 4 28.1872 4 26.4C4 24.6128 5.4128 23.2 7.2 23.2C8.368 23.2 9.3312 23.8192 9.9008 24.7504L11 26.4992L12.4 25.0496L25.0496 12.4L26.5008 11L24.7504 9.8992C23.8192 9.3312 23.2 8.368 23.2 7.2C23.2 5.4128 24.6128 4 26.4 4Z" stroke="#F4F4F4" stroke-width="2" stroke-linejoin="round"/>
</svg>
