<svg width="40" height="40" viewBox="0 0 40 40" fill="none" xmlns="http://www.w3.org/2000/svg">
<path d="M14.8333 18.7329V18.7329C13.8208 18.7329 13 19.5537 13 20.5662V36.5C13 37.6046 13.8954 38.5 15 38.5H25C26.1046 38.5 27 37.6046 27 36.5V20.7329C27 19.6283 26.1046 18.7329 25 18.7329V18.7329M14.8333 18.7329V15.1621C14.8333 14.2416 15.5795 13.4954 16.5 13.4954V13.4954M14.8333 18.7329H25M25 18.7329V14.9954C25 14.167 24.3284 13.4954 23.5 13.4954V13.4954M16.5 13.4954V5.67139C16.5 5.26539 16.6179 4.86371 16.8932 4.56534C17.7336 3.65468 19.3772 2.41828 21.4514 1.83066C22.5436 1.52126 23.5 2.44437 23.5 3.5795V13.4954M16.5 13.4954H23.5" stroke="#F4F4F4" stroke-width="2"/>
</svg>
