<svg width="34" height="32" viewBox="0 0 34 32" fill="none" xmlns="http://www.w3.org/2000/svg">
<path d="M9.188 31H3.5C2.39543 31 1.5 30.1046 1.5 29V8.05882M9.188 31H15.124C16.2286 31 17.124 30.1046 17.124 29V24.4454M9.188 31V24.4454M9.188 1.5042H3.5C2.39543 1.5042 1.5 2.39963 1.5 3.5042V8.05882M9.188 1.5042V8.05882M9.188 1.5042H15.3593C16.3339 1.5042 17.124 2.29429 17.124 3.26891V3.26891M1.5 8.05882H9.188M9.188 8.05882V24.4454M9.188 24.4454H17.124M17.124 24.4454V3.26891M17.124 3.26891L22.6342 1.58853C23.6972 1.26433 24.8207 1.86905 25.1356 2.93492L26.3514 7.05042M17.124 3.26891L18.8713 9.57143M18.8713 9.57143L26.3514 7.05042M18.8713 9.57143L23.1346 24.9496M26.3514 7.05042L30.7126 22.4286M23.1346 24.9496L24.2688 29.0406C24.5673 30.1174 25.6904 30.7408 26.7622 30.4245L30.6021 29.2912C31.6535 28.9809 32.2592 27.882 31.9601 26.8273L30.7126 22.4286M23.1346 24.9496L30.7126 22.4286" stroke="#F4F4F4" stroke-width="2"/>
</svg>
