<svg width="40" height="40" viewBox="0 0 40 40" fill="none" xmlns="http://www.w3.org/2000/svg">
<path fill-rule="evenodd" clip-rule="evenodd" d="M12.1729 7.00006H28.0994C29.5936 7.00006 30.86 8.09959 31.0697 9.57896L31.6965 14.0001H20H8.39643L9.22127 9.46341C9.48063 8.03693 10.723 7.00006 12.1729 7.00006ZM33.0499 9.29823L33.2912 11.0001H34.5C35.3284 11.0001 36 11.6716 36 12.5001C36 13.3285 35.3284 14.0001 34.5 14.0001H33.7165L33.8767 15.1302C35.1058 15.5052 36 16.6482 36 18.0001V28.0001C36 29.6569 34.6569 31.0001 33 31.0001H32V31.9999V32.9999C32 34.1045 31.1046 34.9999 30 34.9999C28.8954 34.9999 28 34.1045 28 32.9999V31.9999V31.0001H12V31.9999V32.9999C12 34.1045 11.1046 34.9999 10 34.9999C8.89543 34.9999 8 34.1045 8 32.9999V31.9999V31.0001H7C5.34315 31.0001 4 29.6569 4 28.0001V18.0001C4 16.6347 4.91207 15.4824 6.16016 15.1192L6.36364 14.0001H5.5C4.67157 14.0001 4 13.3285 4 12.5001C4 11.6716 4.67157 11.0001 5.5 11.0001H6.90909L7.25353 9.10564C7.6858 6.72818 9.75645 5.00006 12.1729 5.00006H28.0994C30.5897 5.00006 32.7003 6.83261 33.0499 9.29823ZM34 18.0001C34 17.4478 33.5523 17.0001 33 17.0001H7C6.44772 17.0001 6 17.4478 6 18.0001V28.0001C6 28.5523 6.44772 29.0001 7 29.0001H33C33.5523 29.0001 34 28.5523 34 28.0001V18.0001ZM14 23.0001C14 24.1046 13.1046 25.0001 12 25.0001C10.8954 25.0001 10 24.1046 10 23.0001C10 21.8955 10.8954 21.0001 12 21.0001C13.1046 21.0001 14 21.8955 14 23.0001ZM28 25.0001C29.1046 25.0001 30 24.1046 30 23.0001C30 21.8955 29.1046 21.0001 28 21.0001C26.8954 21.0001 26 21.8955 26 23.0001C26 24.1046 26.8954 25.0001 28 25.0001Z" fill="#F4F4F4"/>
</svg>
