<svg width="40" height="40" viewBox="0 0 40 40" fill="none" xmlns="http://www.w3.org/2000/svg">
<path d="M16.6666 4.16669V3.16669L16.6653 3.16669L16.6666 4.16669ZM24.9999 12.5H25.9999H24.9999ZM21.4333 19.3334L20.8611 18.5132L18.6276 20.0715L21.3387 20.3289L21.4333 19.3334ZM36.6666 20.8334L37.6605 20.9438C37.714 20.4622 37.4145 20.0115 36.9498 19.8743C36.4851 19.7371 35.9889 19.9527 35.7722 20.3861L36.6666 20.8334ZM14.9999 35.8334V36.8334V35.8334ZM9.99992 17.5L10.8943 17.0528L10.618 16.5H9.99992V17.5ZM3.33325 11.6667L3.78047 10.7723C3.47048 10.6173 3.10234 10.6338 2.80752 10.816C2.5127 10.9982 2.33325 11.3201 2.33325 11.6667H3.33325ZM8.33325 11.9167L8.75155 12.825L9.28708 12.5784L9.33053 11.9904L8.33325 11.9167ZM16.6666 5.16669C18.6115 5.16669 20.4768 5.9393 21.852 7.31457L23.2662 5.90036C21.5159 4.15002 19.1419 3.16669 16.6666 3.16669V5.16669ZM21.852 7.31457C23.2273 8.68984 23.9999 10.5551 23.9999 12.5H25.9999C25.9999 10.0247 25.0166 7.6507 23.2662 5.90036L21.852 7.31457ZM23.9999 12.5C23.9999 14.9922 22.755 17.1919 20.8611 18.5132L22.0054 20.1535C24.4115 18.4748 25.9999 15.6745 25.9999 12.5H23.9999ZM21.3387 20.3289C23.8932 20.5714 26.7299 21.1497 29.5527 22.5611L30.4471 20.7723C27.3366 19.217 24.24 18.5953 21.5278 18.3378L21.3387 20.3289ZM29.5527 22.5611C32.2709 23.9202 34.2745 23.7724 35.6555 23.0819C36.3201 22.7496 36.7861 22.3173 37.0873 21.9659C37.2383 21.7898 37.35 21.6315 37.4269 21.5117C37.4654 21.4516 37.4955 21.4007 37.5176 21.3615C37.5287 21.3419 37.5378 21.3251 37.545 21.3116C37.5486 21.3048 37.5517 21.2988 37.5544 21.2936C37.5557 21.291 37.5569 21.2886 37.558 21.2864C37.5586 21.2854 37.5591 21.2843 37.5596 21.2833C37.5599 21.2829 37.5602 21.2822 37.5603 21.2819C37.5607 21.2812 37.561 21.2806 36.6666 20.8334C35.7722 20.3861 35.7725 20.3855 35.7728 20.3849C35.7729 20.3847 35.7732 20.3841 35.7734 20.3837C35.7738 20.3829 35.7742 20.3822 35.7745 20.3815C35.7752 20.3801 35.7758 20.3789 35.7763 20.3779C35.7773 20.3759 35.778 20.3747 35.7783 20.3741C35.7789 20.373 35.778 20.3747 35.7757 20.3789C35.7709 20.3873 35.7603 20.4056 35.7435 20.4317C35.7097 20.4844 35.6522 20.567 35.5688 20.6643C35.4012 20.8598 35.138 21.1046 34.761 21.2931C34.0587 21.6443 32.7289 21.9131 30.4471 20.7723L29.5527 22.5611ZM36.6666 20.8334C35.6727 20.7229 35.6727 20.7227 35.6728 20.7225C35.6728 20.7225 35.6728 20.7223 35.6728 20.7223C35.6728 20.7223 35.6727 20.7226 35.6727 20.7231C35.6726 20.724 35.6724 20.7259 35.672 20.7286C35.6714 20.7341 35.6703 20.743 35.6688 20.7554C35.6658 20.7802 35.661 20.8186 35.6542 20.8696C35.6406 20.9718 35.619 21.1248 35.5878 21.3211C35.5254 21.7141 35.4249 22.2797 35.2737 22.9602C34.9704 24.3253 34.4673 26.1319 33.6694 27.9272C32.0504 31.5699 29.3868 34.8334 24.9999 34.8334V36.8334C30.6131 36.8334 33.7827 32.5968 35.4971 28.7395C36.3658 26.7848 36.9045 24.8414 37.2261 23.394C37.3874 22.6682 37.4952 22.062 37.5631 21.6347C37.597 21.4209 37.621 21.2515 37.6367 21.134C37.6445 21.0752 37.6503 21.0293 37.6542 20.9974C37.6561 20.9814 37.6576 20.9688 37.6586 20.9598C37.6592 20.9554 37.6596 20.9518 37.6599 20.9491C37.66 20.9478 37.6601 20.9466 37.6602 20.9458C37.6603 20.9453 37.6604 20.9448 37.6604 20.9446C37.6604 20.9442 37.6605 20.9438 36.6666 20.8334ZM24.9999 34.8334H14.9999V36.8334H24.9999V34.8334ZM14.9999 35.8334C14.9999 34.8334 15.0004 34.8334 15.0008 34.8334C15.0009 34.8334 15.0013 34.8334 15.0015 34.8334C15.0019 34.8334 15.0022 34.8334 15.0023 34.8334C15.0027 34.8334 15.0025 34.8334 15.0018 34.8334C15.0005 34.8333 14.9972 34.8333 14.9921 34.8332C14.9819 34.8331 14.9643 34.8327 14.9396 34.8319C14.8904 34.8302 14.8136 34.8268 14.7131 34.8196C14.5118 34.8052 14.2177 34.776 13.8622 34.7168C13.1465 34.5975 12.2074 34.3607 11.2805 33.8973C10.3574 33.4357 9.46481 32.7592 8.80072 31.763C8.1408 30.7731 7.66658 29.4084 7.66658 27.5H5.66659C5.66659 29.7583 6.23404 31.5186 7.13662 32.8724C8.03503 34.22 9.22574 35.106 10.386 35.6861C11.5424 36.2643 12.6867 36.5484 13.5334 36.6895C13.9592 36.7605 14.3161 36.7964 14.5706 36.8145C14.698 36.8236 14.8002 36.8283 14.873 36.8308C14.9094 36.832 14.9386 36.8326 14.9599 36.833C14.9705 36.8331 14.9792 36.8332 14.9859 36.8333C14.9893 36.8333 14.9921 36.8333 14.9945 36.8333C14.9956 36.8333 14.9967 36.8333 14.9976 36.8334C14.998 36.8334 14.9986 36.8334 14.9988 36.8334C14.9994 36.8334 14.9999 36.8334 14.9999 35.8334ZM7.66658 27.5C7.66658 25.3626 8.7107 23.9421 9.77199 22.4563C10.2775 21.7485 10.841 20.9514 11.1309 20.0819C11.4444 19.1412 11.4361 18.1363 10.8943 17.0528L9.10549 17.9472C9.39708 18.5304 9.38872 18.9838 9.23353 19.4494C9.05463 19.9861 8.68067 20.5432 8.14452 21.2938C7.12247 22.7246 5.66659 24.6374 5.66659 27.5H7.66658ZM9.99992 16.5C7.0289 16.5 5.69184 15.237 5.03483 14.0872C4.6876 13.4796 4.50957 12.8625 4.41976 12.391C4.37523 12.1573 4.3535 11.9651 4.34296 11.836C4.3377 11.7716 4.33527 11.7234 4.33415 11.6941C4.3336 11.6795 4.33337 11.6697 4.33329 11.665C4.33324 11.6626 4.33323 11.6616 4.33324 11.6618C4.33324 11.662 4.33324 11.6624 4.33325 11.6632C4.33325 11.6637 4.33325 11.6641 4.33325 11.6647C4.33325 11.665 4.33325 11.6655 4.33325 11.6656C4.33325 11.6662 4.33325 11.6667 3.33325 11.6667C2.33325 11.6667 2.33325 11.6673 2.33325 11.6679C2.33325 11.6681 2.33325 11.6687 2.33325 11.6692C2.33326 11.6701 2.33326 11.6711 2.33327 11.6722C2.33328 11.6745 2.33329 11.677 2.33332 11.68C2.33337 11.6859 2.33347 11.6932 2.33363 11.7019C2.33395 11.7192 2.33453 11.7422 2.3356 11.7703C2.33775 11.8265 2.34182 11.9036 2.34959 11.9987C2.36509 12.1886 2.39544 12.4521 2.45508 12.7653C2.57361 13.3875 2.81224 14.2288 3.29834 15.0795C4.30799 16.8464 6.30427 18.5 9.99992 18.5V16.5ZM2.88604 12.5611C4.79808 13.5171 7.18378 13.547 8.75155 12.825L7.91495 11.0084C6.94939 11.453 5.20176 11.4829 3.78047 10.7723L2.88604 12.5611ZM9.33053 11.9904C9.46749 10.1373 10.2997 8.40438 11.6604 7.13895L10.2983 5.6744C8.56825 7.28339 7.51011 9.48676 7.33597 11.843L9.33053 11.9904ZM11.6604 7.13895C13.0211 5.87351 14.8097 5.16904 16.6678 5.16669L16.6653 3.16669C14.3027 3.16967 12.0284 4.06541 10.2983 5.6744L11.6604 7.13895Z" fill="#F4F4F4"/>
</svg>
