<svg width="36" height="36" viewBox="0 0 36 36" fill="none" xmlns="http://www.w3.org/2000/svg">
<path d="M33.5266 4.75844C30.5933 3.79677 22.9999 1.30844 22.9999 1.33344C22.9999 2.65952 22.4732 3.93129 21.5355 4.86897C20.5978 5.80665 19.326 6.33344 17.9999 6.33344C16.6739 6.33344 15.4021 5.80665 14.4644 4.86897C13.5267 3.93129 12.9999 2.65952 12.9999 1.33344C12.9999 1.30844 5.40661 3.79677 2.47161 4.75844C2.13908 4.86744 1.8497 5.07914 1.64514 5.36306C1.44058 5.64699 1.33139 5.9885 1.33328 6.33844V12.5318C1.33335 12.7849 1.39109 13.0348 1.50212 13.2623C1.61315 13.4898 1.77455 13.689 1.97407 13.8448C2.1736 14.0007 2.406 14.109 2.65363 14.1616C2.90127 14.2142 3.15764 14.2097 3.40328 14.1484L7.99994 13.0001V33.0001C7.99994 33.4421 8.17554 33.8661 8.4881 34.1786C8.80066 34.4912 9.22458 34.6668 9.66661 34.6668H26.3333C26.7753 34.6668 27.1992 34.4912 27.5118 34.1786C27.8243 33.8661 27.9999 33.4421 27.9999 33.0001V13.0001L32.5966 14.1484C32.8422 14.2097 33.0986 14.2142 33.3463 14.1616C33.5939 14.109 33.8263 14.0007 34.0258 13.8448C34.2253 13.689 34.3867 13.4898 34.4978 13.2623C34.6088 13.0348 34.6665 12.7849 34.6666 12.5318V6.33844C34.6684 5.9883 34.5589 5.64663 34.3541 5.36268C34.1492 5.07873 33.8595 4.86715 33.5266 4.75844V4.75844Z" stroke="#F4F4F4" stroke-width="2"/>
</svg>
