<svg width="40" height="40" viewBox="0 0 40 40" fill="none" xmlns="http://www.w3.org/2000/svg">
<path d="M12.4185 12.4211C12.4185 12.4211 12.3681 11.6366 12.5289 10.5466M19.9998 4V9.05263M19.9998 4C22.0718 4 23.58 4.54793 24.6773 5.36426M19.9998 4C17.8016 4 16.2379 4.61677 15.1263 5.51647M27.5813 12.4211C27.5813 12.4211 27.6259 11.7267 27.4972 10.7368M12.5289 10.5466C12.5289 10.5466 10.4334 11.8607 10.7941 12.9825C11.0282 13.7106 12.0801 14.3338 13.5017 14.8067M12.5289 10.5466C12.7525 9.03172 13.3841 6.92659 15.1263 5.51647M27.4972 10.7368C27.4972 10.7368 29.4671 11.8988 29.2058 12.9825C28.9717 13.9533 27.9199 14.6093 26.4983 15.0413M27.4972 10.7368C27.2921 9.15869 26.6465 6.82926 24.6773 5.36426M13.5017 14.8067C15.3685 15.4276 17.8727 15.7895 20 15.7895C22.1273 15.7895 24.6315 15.6086 26.4983 15.0413M13.5017 14.8067C13.5017 14.8067 11.3357 23.6491 20 23.6491C28.1228 23.6491 26.4983 15.0413 26.4983 15.0413M24.6773 5.36426V10.5466M15.1263 5.51647V10.5466M10.7941 26.493C12.8311 25.9926 14.5848 25.8947 14.5848 25.8947V29.2632H25.4152V25.8947C25.4152 25.8947 27.49 26.0105 29.7474 26.6341M10.7941 26.493C8.41241 27.0781 5.64342 28.2134 4.8374 30.386C4.07824 32.4322 4.8374 36 4.8374 36H10.7941M10.7941 26.493V36M10.7941 36H29.7474M29.7474 26.6341C31.9919 27.2542 34.417 28.3764 35.1626 30.386C35.9218 32.4322 35.1626 36 35.1626 36H29.7474M29.7474 26.6341V36" stroke="#F4F4F4" stroke-width="2" stroke-linecap="round"/>
</svg>
