<svg width="40" height="40" viewBox="0 0 40 40" fill="none" xmlns="http://www.w3.org/2000/svg">
<path d="M33.3332 10C33.8855 10 34.3332 9.5523 34.3332 9.00001C34.3332 8.44773 33.8855 8.00001 33.3332 8.00001V10ZM6.6665 8.00001C6.11422 8.00001 5.6665 8.44773 5.6665 9.00001C5.6665 9.5523 6.11422 10 6.6665 10V8.00001ZM9.99984 1.33334C9.44755 1.33334 8.99984 1.78106 8.99984 2.33334C8.99984 2.88563 9.44755 3.33334 9.99984 3.33334V1.33334ZM29.9998 3.33334C30.5521 3.33334 30.9998 2.88563 30.9998 2.33334C30.9998 1.78106 30.5521 1.33334 29.9998 1.33334V3.33334ZM17.1865 30.8333L16.4794 31.5405C16.6669 31.728 16.9213 31.8333 17.1865 31.8333C17.4517 31.8333 17.7061 31.728 17.8936 31.5405L17.1865 30.8333ZM14.3936 26.6262C14.0031 26.2357 13.3699 26.2357 12.9794 26.6262C12.5889 27.0168 12.5889 27.6499 12.9794 28.0404L14.3936 26.6262ZM27.0603 22.3738C27.4508 21.9833 27.4508 21.3501 27.0603 20.9596C26.6698 20.569 26.0366 20.569 25.6461 20.9596L27.0603 22.3738ZM33.3332 8.00001H6.6665V10H33.3332V8.00001ZM9.99984 3.33334H29.9998V1.33334H9.99984V3.33334ZM17.8936 30.1262L14.3936 26.6262L12.9794 28.0404L16.4794 31.5405L17.8936 30.1262ZM25.6461 20.9596L16.4794 30.1262L17.8936 31.5405L27.0603 22.3738L25.6461 20.9596Z" fill="#F4F4F4"/>
<path d="M3.33333 15.3333H36.6667C37.2855 15.3333 37.879 15.5792 38.3166 16.0168C38.7542 16.4543 39 17.0478 39 17.6667V34.3333C39 34.9522 38.7542 35.5457 38.3166 35.9833C37.879 36.4208 37.2855 36.6667 36.6667 36.6667H3.33333C2.71449 36.6667 2.121 36.4208 1.68342 35.9833C1.24583 35.5457 1 34.9522 1 34.3333V17.6667C1 17.0478 1.24583 16.4543 1.68342 16.0168C2.121 15.5792 2.7145 15.3333 3.33333 15.3333Z" stroke="#F4F4F4" stroke-width="2"/>
</svg>
