<svg width="30" height="34" viewBox="0 0 30 34" fill="none" xmlns="http://www.w3.org/2000/svg">
<path d="M26.4417 1.83634C26.6275 1.31623 26.3564 0.744012 25.8363 0.558258C25.3162 0.372505 24.744 0.643554 24.5583 1.16366L26.4417 1.83634ZM16 14.5C16 13.9477 15.5523 13.5 15 13.5C14.4477 13.5 14 13.9477 14 14.5H16ZM14 27C14 27.5523 14.4477 28 15 28C15.5523 28 16 27.5523 16 27H14ZM21 21.75C21.5523 21.75 22 21.3023 22 20.75C22 20.1977 21.5523 19.75 21 19.75V21.75ZM9 19.75C8.44772 19.75 8 20.1977 8 20.75C8 21.3023 8.44772 21.75 9 21.75V19.75ZM28.6225 11.1325L29.5712 11.4487L28.6225 11.1325ZM25.7108 21.1325L24.7621 21.4487L25.7108 21.1325ZM25.7108 19.8675L24.7621 19.5513L25.7108 19.8675ZM1.51334 29.7978L0.577013 29.4466L1.51334 29.7978ZM4.73666 19.7978L5.67299 19.4466L4.73666 19.7978ZM4.73666 21.2022L5.67299 21.5534L4.73666 21.2022ZM1.51334 11.2022L0.577013 11.5534L1.51334 11.2022ZM24.5583 1.16366L22.0583 8.16366L23.9417 8.83634L26.4417 1.83634L24.5583 1.16366ZM23 7.5H3.386V9.5H23V7.5ZM0.577013 11.5534L3.80033 20.1489L5.67299 19.4466L2.44967 10.8511L0.577013 11.5534ZM3.80033 20.8511L0.577013 29.4466L2.44967 30.1489L5.67299 21.5534L3.80033 20.8511ZM3.386 33.5H26.7251V31.5H3.386V33.5ZM29.5712 29.5513L26.6595 20.8162L24.7621 21.4487L27.6738 30.1838L29.5712 29.5513ZM26.6595 20.1838L29.5712 11.4487L27.6738 10.8162L24.7621 19.5513L26.6595 20.1838ZM26.7251 7.5H23V9.5H26.7251V7.5ZM14 14.5V20.75H16V14.5H14ZM14 20.75V27H16V20.75H14ZM15 21.75H21V19.75H15V21.75ZM15 19.75H9V21.75H15V19.75ZM29.5712 11.4487C30.2187 9.50609 28.7728 7.5 26.7251 7.5V9.5C27.4077 9.5 27.8897 10.1687 27.6738 10.8162L29.5712 11.4487ZM26.6595 20.8162C26.5911 20.611 26.5911 20.389 26.6595 20.1838L24.7621 19.5513C24.5569 20.1671 24.5569 20.8329 24.7621 21.4487L26.6595 20.8162ZM26.7251 33.5C28.7728 33.5 30.2187 31.4939 29.5712 29.5513L27.6738 30.1838C27.8897 30.8313 27.4077 31.5 26.7251 31.5V33.5ZM0.577013 29.4466C-0.158457 31.4079 1.29138 33.5 3.386 33.5V31.5C2.68779 31.5 2.20452 30.8026 2.44967 30.1489L0.577013 29.4466ZM3.80033 20.1489C3.88522 20.3753 3.88522 20.6247 3.80033 20.8511L5.67299 21.5534C5.92767 20.8742 5.92767 20.1258 5.67299 19.4466L3.80033 20.1489ZM3.386 7.5C1.29138 7.5 -0.158456 9.59212 0.577013 11.5534L2.44967 10.8511C2.20452 10.1974 2.6878 9.5 3.386 9.5V7.5Z" fill="#F4F4F4"/>
</svg>
