<svg width="40" height="40" viewBox="0 0 40 40" fill="none" xmlns="http://www.w3.org/2000/svg">
<path d="M6 14.1667C6 12.5671 6.00212 11.468 6.11312 10.6424C6.22025 9.84555 6.41203 9.45483 6.68342 9.18345C6.9548 8.91206 7.34552 8.72028 8.14234 8.61315C8.96793 8.50215 10.067 8.50003 11.6667 8.50003H28.3333C29.933 8.50003 31.0321 8.50215 31.8577 8.61315C32.6545 8.72028 33.0452 8.91206 33.3166 9.18345C33.588 9.45483 33.7797 9.84555 33.8869 10.6424C33.9979 11.468 34 12.5671 34 14.1667V28.1667H6V14.1667Z" stroke="#F4F4F4" stroke-width="2"/>
<path d="M6.11111 28.1667C4.94518 28.1667 4 29.1118 4 30.2778C4 32.0574 5.44264 33.5 7.22222 33.5H32.7778C34.5574 33.5 36 32.0574 36 30.2778C36 29.1118 35.0548 28.1667 33.8889 28.1667H6.11111Z" stroke="#F4F4F4" stroke-width="2"/>
</svg>
