<svg width="40" height="40" viewBox="0 0 40 40" fill="none" xmlns="http://www.w3.org/2000/svg">
<path d="M13.492 10.6189L14.1428 11.3781L13.492 10.6189ZM26.5078 10.6189L25.857 11.3781L26.5078 10.6189ZM28.1745 12.0474L28.8253 11.2882L28.1745 12.0474ZM11.8253 12.0474L11.1745 11.2882L11.1745 11.2882L11.8253 12.0474ZM30.6666 19.64V26.7073H32.6666V19.64H30.6666ZM24.9999 32.374H14.9999V34.374H24.9999V32.374ZM9.33325 26.7073V19.64H7.33325V26.7073H9.33325ZM12.4761 12.8067L14.1428 11.3781L12.8412 9.8596L11.1745 11.2882L12.4761 12.8067ZM25.857 11.3781L27.5237 12.8067L28.8253 11.2882L27.1586 9.8596L25.857 11.3781ZM14.1428 11.3781C15.7152 10.0303 16.825 9.08154 17.768 8.45868C18.6877 7.85127 19.3454 7.62604 19.9999 7.62604V5.62604C18.8048 5.62604 17.7613 6.06627 16.6658 6.78981C15.5937 7.49789 14.3743 8.5455 12.8412 9.8596L14.1428 11.3781ZM27.1586 9.8596C25.6255 8.5455 24.4061 7.49789 23.334 6.78981C22.2385 6.06627 21.195 5.62604 19.9999 5.62604V7.62604C20.6544 7.62604 21.3121 7.85127 22.2318 8.45868C23.1749 9.08154 24.2846 10.0303 25.857 11.3781L27.1586 9.8596ZM14.9999 32.374C13.4003 32.374 12.3012 32.3719 11.4756 32.2609C10.6788 32.1537 10.2881 31.962 10.0167 31.6906L8.60246 33.1048C9.30738 33.8097 10.1905 34.1061 11.2091 34.243C12.1989 34.3761 13.4568 34.374 14.9999 34.374V32.374ZM7.33325 26.7073C7.33325 28.2504 7.33113 29.5083 7.46421 30.4981C7.60116 31.5167 7.89753 32.3999 8.60246 33.1048L10.0167 31.6906C9.74528 31.4192 9.5535 31.0285 9.44637 30.2316C9.33538 29.406 9.33325 28.3069 9.33325 26.7073H7.33325ZM30.6666 26.7073C30.6666 28.3069 30.6645 29.406 30.5535 30.2316C30.4463 31.0285 30.2546 31.4192 29.9832 31.6906L31.3974 33.1048C32.1023 32.3999 32.3987 31.5167 32.5356 30.4981C32.6687 29.5083 32.6666 28.2504 32.6666 26.7073H30.6666ZM24.9999 34.374C26.543 34.374 27.8009 34.3761 28.7907 34.243C29.8093 34.1061 30.6925 33.8097 31.3974 33.1048L29.9832 31.6906C29.7118 31.962 29.3211 32.1537 28.5242 32.2609C27.6987 32.3719 26.5995 32.374 24.9999 32.374V34.374ZM32.6666 19.64C32.6666 17.4686 32.688 16.0732 32.1177 14.8332L30.3006 15.6689C30.6452 16.418 30.6666 17.2856 30.6666 19.64H32.6666ZM27.5237 12.8067C29.3113 14.3389 29.9561 14.9197 30.3006 15.6689L32.1177 14.8332C31.5474 13.5932 30.474 12.7013 28.8253 11.2882L27.5237 12.8067ZM9.33325 19.64C9.33325 17.2856 9.35464 16.418 9.6992 15.6689L7.88217 14.8332C7.31186 16.0732 7.33325 17.4686 7.33325 19.64H9.33325ZM11.1745 11.2882C9.52589 12.7013 8.45248 13.5932 7.88217 14.8332L9.6992 15.6689C10.0438 14.9197 10.6885 14.3389 12.4761 12.8067L11.1745 11.2882Z" fill="#F4F4F4"/>
<path d="M24.1666 33.374V24.374C24.1666 23.8217 23.7189 23.374 23.1666 23.374H16.8333C16.281 23.374 15.8333 23.8217 15.8333 24.374V33.374" stroke="#F4F4F4" stroke-width="2" stroke-linecap="round" stroke-linejoin="round"/>
</svg>
