<svg width="40" height="40" viewBox="0 0 40 40" fill="none" xmlns="http://www.w3.org/2000/svg">
<path d="M8.72924 24.8376C7.77986 24.5879 6.92494 24.0644 6.27102 23.3322C5.6171 22.6001 5.19309 21.6917 5.05182 20.7202C4.91055 19.7488 5.05828 18.7572 5.47659 17.8691C5.8949 16.9811 6.5653 16.2357 7.40424 15.726C7.95091 15.3926 8.33258 14.8076 8.33258 14.1676C8.33222 12.5069 8.78304 10.8773 9.63685 9.45289C10.4907 8.02847 11.7154 6.86275 13.1802 6.08028C14.645 5.29781 16.2949 4.92798 17.9536 5.01029C19.6123 5.09261 21.2174 5.62398 22.5976 6.54764C23.2159 6.9643 24.0226 7.00597 24.7426 6.81097C25.3605 6.64453 26.0084 6.62248 26.6362 6.74653C27.264 6.87058 27.8549 7.1374 28.3631 7.52634C28.8712 7.91529 29.2831 8.41594 29.5668 8.98955C29.8506 9.56316 29.9985 10.1944 29.9992 10.8343C29.9992 11.3976 30.3276 11.946 30.8492 12.1593C32.034 12.6423 33.0548 13.4559 33.7898 14.503C34.5249 15.5502 34.9432 16.7867 34.9949 18.065C35.0465 19.3434 34.7293 20.6096 34.0812 21.7126C33.433 22.8157 32.4812 23.709 31.3392 24.286M8.72924 24.8376L9.81758 33.541C9.86794 33.944 10.0637 34.3147 10.3682 34.5836C10.6726 34.8524 11.0648 35.0009 11.4709 35.001H16.7477M8.72924 24.8376C9.95206 24.8997 11.5905 24.9609 13.4615 25.001M31.3392 24.286L30.1826 33.541C30.1322 33.9443 29.9361 34.3153 29.6314 34.5841C29.3266 34.853 28.934 35.0013 28.5276 35.001H23.4993M31.3392 24.286C29.1253 24.6346 26.3666 24.8383 23.4993 24.9458M12.1092 25.001H13.4615M14.9992 25.001H13.4615M21.6659 25.001H18.3326M16.7477 25.0445V35.001M16.7477 25.0445C18.924 25.0553 21.2452 25.0303 23.4993 24.9458M16.7477 25.0445C15.6018 25.0387 14.4961 25.0231 13.4615 25.001M16.7477 35.001H23.4993M23.4993 24.9458V35.001" stroke="#F4F4F4" stroke-width="2"/>
</svg>
