<svg width="40" height="40" viewBox="0 0 40 40" fill="none" xmlns="http://www.w3.org/2000/svg">
<path fill-rule="evenodd" clip-rule="evenodd" d="M9 4C6.23858 4 4 6.23858 4 9V16.416C2.2341 17.1876 1 18.9497 1 21V30C1 31.1046 1.89543 32 3 32H5V34.5C5 35.3284 5.67157 36 6.5 36C7.32843 36 8 35.3284 8 34.5V32H9H31H32V34.5C32 35.3284 32.6716 36 33.5 36C34.3284 36 35 35.3284 35 34.5V32H37C38.1046 32 39 31.1046 39 30V21C39 18.9497 37.7659 17.1876 36 16.416V9C36 6.23858 33.7614 4 31 4H9ZM33 30H37V21C37 19.3431 35.6569 18 34 18C32.3431 18 31 19.3431 31 21V30H33ZM29 30V22H11V30H29ZM9 30V21C9 19.3431 7.65685 18 6 18C4.34315 18 3 19.3431 3 21L3 30H8H9ZM34 16C31.581 16 29.5633 17.7178 29.1 20H10.9C10.4367 17.7178 8.41896 16 6 16V9C6 7.34315 7.34315 6 9 6H31C32.6569 6 34 7.34315 34 9V16Z" fill="#F4F4F4"/>
</svg>
