<svg width="40" height="40" viewBox="0 0 40 40" fill="none" xmlns="http://www.w3.org/2000/svg">
<path d="M36.0517 27.8035L36.9401 28.2625C37.1829 27.7926 37.0178 27.2149 36.5633 26.9443L36.0517 27.8035ZM36.0123 12.1209L36.5288 12.9772C36.9815 12.7041 37.1435 12.1259 36.8984 11.6574L36.0123 12.1209ZM22.9485 20L22.432 19.1437C22.1311 19.3252 21.9475 19.6514 21.9485 20.0028C21.9495 20.3542 22.1349 20.6794 22.4368 20.8592L22.9485 20ZM35.1632 27.3444C33.5187 30.5274 30.8534 33.0663 27.5944 34.5544L28.4252 36.3737C32.0916 34.6996 35.09 31.8433 36.9401 28.2625L35.1632 27.3444ZM27.5944 34.5544C24.3354 36.0426 20.6712 36.3939 17.1889 35.552L16.7189 37.496C20.6366 38.4431 24.7588 38.0479 28.4252 36.3737L27.5944 34.5544ZM17.1889 35.552C13.7065 34.7102 10.6074 32.7239 8.38804 29.9114L6.81798 31.1503C9.31474 34.3144 12.8012 36.5489 16.7189 37.496L17.1889 35.552ZM8.38804 29.9114C6.1687 27.0989 4.95753 23.6228 4.94854 20.0402L2.94854 20.0452C2.95866 24.0757 4.32122 27.9862 6.81798 31.1503L8.38804 29.9114ZM4.94854 20.0402C4.93955 16.4575 6.13326 12.9754 8.33846 10.1518L6.76221 8.92077C4.28136 12.0973 2.93843 16.0146 2.94854 20.0452L4.94854 20.0402ZM8.33846 10.1518C10.5437 7.32817 13.6327 5.32637 17.1109 4.46706L16.6312 2.52544C12.7183 3.49217 9.24306 5.74419 6.76221 8.92077L8.33846 10.1518ZM17.1109 4.46706C20.589 3.60774 24.2549 3.94064 27.5213 5.41242L28.3429 3.58897C24.6682 1.93321 20.544 1.55871 16.6312 2.52544L17.1109 4.46706ZM27.5213 5.41242C30.7878 6.8842 33.4657 9.40969 35.1262 12.5844L36.8984 11.6574C35.0304 8.0859 32.0177 5.24472 28.3429 3.58897L27.5213 5.41242ZM35.4959 11.2646L22.432 19.1437L23.4649 20.8563L36.5288 12.9772L35.4959 11.2646ZM22.4368 20.8592L35.54 28.6626L36.5633 26.9443L23.4602 19.1408L22.4368 20.8592Z" fill="#F4F4F4"/>
<circle cx="18.9485" cy="12" r="2" fill="#F4F4F4"/>
</svg>
