<svg width="40" height="40" viewBox="0 0 40 40" fill="none" xmlns="http://www.w3.org/2000/svg">
<path d="M17.3469 8.67305L18.0538 9.38041L18.3469 9.08747V8.67305H17.3469ZM13.9719 4.56555L13.2717 5.27952L13.2805 5.28809L13.2894 5.29643L13.9719 4.56555ZM12.1969 3.27805L12.6582 2.3908L12.6438 2.3833L12.6291 2.37627L12.1969 3.27805ZM9.9919 3.22805L9.49373 2.36096L9.48994 2.36316L9.9919 3.22805ZM8.9169 5.46805L7.91696 5.45677L7.91695 5.45818L8.9169 5.46805ZM9.3494 8.07805L10.311 7.8037L10.3106 7.80233L9.3494 8.07805ZM3.7469 22.2731L4.45401 22.9802L3.7469 22.2731ZM3.2019 24.568L4.18354 24.3773L4.18348 24.377L3.2019 24.568ZM4.1019 26.8256L4.97626 26.3403L4.97513 26.3382L4.1019 26.8256ZM8.1669 31.9956L7.45929 32.7022L7.4598 32.7027L8.1669 31.9956ZM13.3369 36.0606L13.8242 35.1873L13.8222 35.1862L13.3369 36.0606ZM15.5944 36.9606L15.4036 37.9422L15.4069 37.9428L15.5944 36.9606ZM17.8894 36.4156L18.5952 37.1239L18.5965 37.1227L17.8894 36.4156ZM31.9269 22.3781L32.8357 21.9608C32.6991 21.6633 32.4256 21.4515 32.1035 21.3938C31.7813 21.336 31.4512 21.4395 31.2198 21.6709L31.9269 22.3781ZM32.0519 24.7255L33.0467 24.8278L33.0471 24.8234L32.0519 24.7255ZM31.8694 27.6656L30.8694 27.6558L30.869 27.7007L30.8726 27.7456L31.8694 27.6656ZM31.9167 28.2543L30.9265 28.3943L32.9135 28.1742L31.9167 28.2543ZM31.8769 27.973L32.867 27.833L30.8804 28.0566L31.8769 27.973ZM34.3682 30.2641V31.2641V30.2641ZM36.8594 27.973L37.8559 28.0566L37.8572 28.0411L37.858 28.0256L36.8594 27.973ZM36.8669 27.8305L37.8655 27.8831L37.8663 27.8687L37.8666 27.8544L36.8669 27.8305ZM36.8569 27.538L35.8579 27.582L35.8589 27.6061L35.8611 27.6301L36.8569 27.538ZM31.6794 17.7181L32.5529 17.2313L32.5528 17.2311L31.6794 17.7181ZM22.4419 8.48305L22.9272 7.6087L22.9271 7.60863L22.4419 8.48305ZM20.1844 7.58305L20.3785 6.60205L20.3719 6.60078L20.1844 7.58305ZM17.8894 8.13055L18.5949 8.83929L18.5952 8.83893L17.8894 8.13055ZM17.3469 8.67055L16.6414 7.96181L16.3469 8.25498V8.67055H17.3469ZM13.7844 12.2331L13.0775 11.5257L13.0768 11.5264L13.7844 12.2331ZM13.2519 16.3031L12.3915 16.8127L12.3992 16.8257L12.4073 16.8384L13.2519 16.3031ZM16.5876 22.1171C16.9916 22.4936 17.6244 22.4714 18.0009 22.0673C18.3775 21.6633 18.3552 21.0306 17.9512 20.654L16.5876 22.1171ZM17.7844 11.7681L18.6963 11.3577L18.6827 11.3273L18.667 11.2979L17.7844 11.7681ZM18.2419 12.6806L19.1157 12.1942L19.1154 12.1937L18.2419 12.6806ZM22.3094 17.8506L23.017 17.1439L23.0165 17.1434L22.3094 17.8506ZM27.4794 21.9156L27.9663 21.0421L27.9641 21.0409L27.4794 21.9156ZM28.3919 22.3731L28.7976 21.459L28.7931 21.4571L28.3919 22.3731ZM24.3669 19.7342L23.7272 20.5028L24.3669 19.7342ZM18.1752 8.11272C17.004 6.38154 15.7842 4.88963 14.6544 3.83467L13.2894 5.29643C14.2746 6.21647 15.3998 7.57957 16.5186 9.23339L18.1752 8.11272ZM14.6721 3.85158C14.0767 3.26773 13.398 2.77544 12.6582 2.3908L11.7356 4.16531C12.2999 4.45869 12.8176 4.83419 13.2717 5.27952L14.6721 3.85158ZM12.6291 2.37627C11.9973 2.07346 10.7382 1.64601 9.49373 2.36097L10.4901 4.09513C10.8557 3.88509 11.3115 3.96264 11.7647 4.17983L12.6291 2.37627ZM9.48994 2.36316C8.07602 3.18377 7.92506 4.73952 7.91697 5.45677L9.91684 5.47933C9.92375 4.86658 10.0728 4.33733 10.4939 4.09294L9.48994 2.36316ZM7.91695 5.45818C7.90809 6.35579 8.1034 7.36102 8.38816 8.35378L10.3106 7.80233C10.0504 6.89508 9.91071 6.10032 9.91685 5.47792L7.91695 5.45818ZM8.38777 8.3524C8.90388 10.1614 9.83813 12.3343 11.06 14.5637L12.8138 13.6024C11.6407 11.4618 10.7749 9.42967 10.311 7.8037L8.38777 8.3524ZM11.2298 13.3759L3.0398 21.5659L4.45401 22.9802L12.644 14.7902L11.2298 13.3759ZM3.0398 21.5659C1.98587 22.6199 2.07344 24.0045 2.22033 24.7591L4.18348 24.377C4.07536 23.8216 4.12293 23.3112 4.45401 22.9802L3.0398 21.5659ZM2.22027 24.7588C2.38597 25.6114 2.76999 26.4909 3.22868 27.3129L4.97513 26.3382C4.56882 25.6102 4.29283 24.9397 4.18354 24.3773L2.22027 24.7588ZM3.22755 27.3108C4.15444 28.9808 5.64854 30.8888 7.45929 32.7022L8.87451 31.2889C7.15526 29.5673 5.78937 27.8053 4.97626 26.3403L3.22755 27.3108ZM7.4598 32.7027C9.27387 34.5167 11.182 36.0082 12.8516 36.9349L13.8222 35.1862C12.3568 34.3729 10.5949 33.0094 8.87401 31.2884L7.4598 32.7027ZM12.8496 36.9338C13.6715 37.3925 14.551 37.7765 15.4036 37.9422L15.7852 35.9789C15.2228 35.8696 14.5523 35.5936 13.8242 35.1873L12.8496 36.9338ZM15.4069 37.9428C16.157 38.086 17.5386 38.1767 18.5952 37.1239L17.1836 35.7072C16.8502 36.0394 16.3418 36.0851 15.7819 35.9783L15.4069 37.9428ZM18.5965 37.1227L32.634 23.0852L31.2198 21.6709L17.1823 35.7084L18.5965 37.1227ZM31.0181 22.7953C31.178 23.1435 31.1694 23.4823 31.0567 24.6277L33.0471 24.8234C33.1444 23.8338 33.2658 22.8976 32.8357 21.9608L31.0181 22.7953ZM31.0571 24.6233C30.9814 25.3601 30.8824 26.3302 30.8694 27.6558L32.8694 27.6753C32.8814 26.4459 32.9724 25.551 33.0467 24.8278L31.0571 24.6233ZM30.8726 27.7456L30.9199 28.3343L32.9135 28.1742L32.8662 27.5855L30.8726 27.7456ZM32.9068 28.1142L32.867 27.833L30.8868 28.1131L30.9265 28.3943L32.9068 28.1142ZM30.8804 28.0566C30.9538 28.9312 31.353 29.7462 31.999 30.3403L33.3528 28.8682C33.0759 28.6136 32.9048 28.2643 32.8734 27.8895L30.8804 28.0566ZM31.999 30.3403C32.645 30.9344 33.4905 31.2641 34.3682 31.2641V29.2641C33.992 29.2641 33.6296 29.1228 33.3528 28.8682L31.999 30.3403ZM34.3682 31.2641C35.2458 31.2641 36.0913 30.9344 36.7373 30.3403L35.3835 28.8682C35.1067 29.1228 34.7443 29.2641 34.3682 29.2641V31.2641ZM36.7373 30.3403C37.3833 29.7462 37.7825 28.9312 37.8559 28.0566L35.8629 27.8895C35.8315 28.2643 35.6604 28.6136 35.3835 28.8682L36.7373 30.3403ZM37.8666 27.8544C37.8699 27.7181 37.8652 27.5818 37.8527 27.446L35.8611 27.6301C35.8666 27.6888 35.8686 27.7478 35.8672 27.8067L37.8666 27.8544ZM37.8559 27.4941C37.7079 24.1298 35.9858 20.0722 32.7529 17.9653L31.6609 19.6408C34.228 21.3139 35.7309 24.6963 35.8579 27.582L37.8559 27.4941ZM33.1293 18.4167C32.9594 18.0111 32.767 17.6154 32.5529 17.2313L30.8059 18.2048C30.9836 18.5238 31.1434 18.8525 31.2845 19.1894L33.1293 18.4167ZM32.5528 17.2311C31.6241 15.5652 30.1332 13.6577 28.319 11.8434L26.9048 13.2577C28.6256 14.9784 29.9897 16.7409 30.806 18.205L32.5528 17.2311ZM28.319 11.8434C26.5054 10.0298 24.5973 8.53563 22.9272 7.6087L21.9566 9.35741C23.4215 10.1705 25.1834 11.5363 26.9048 13.2577L28.319 11.8434ZM22.9271 7.60863C22.1062 7.15317 21.2285 6.77027 20.3785 6.60207L19.9903 8.56403C20.5553 8.67584 21.2276 8.95293 21.9567 9.35747L22.9271 7.60863ZM20.3719 6.60078C19.6191 6.45712 18.239 6.37053 17.1836 7.42217L18.5952 8.83893C18.9298 8.50558 19.4397 8.45899 19.9969 8.56532L20.3719 6.60078ZM17.1839 7.42181L16.6414 7.96181L18.0524 9.37929L18.5949 8.83929L17.1839 7.42181ZM16.3469 8.67055V8.67305H18.3469V8.67055H16.3469ZM12.4073 16.8384C13.7845 19.0114 15.2542 20.8744 16.5876 22.1171L17.9512 20.654C16.7846 19.5667 15.4193 17.8547 14.0965 15.7677L12.4073 16.8384ZM16.8725 12.1784C17.0181 12.5019 17.1832 12.8352 17.3684 13.1674L19.1154 12.1937C18.9606 11.9159 18.8207 11.6342 18.6963 11.3577L16.8725 12.1784ZM17.3681 13.1669C18.297 14.8357 19.7881 16.7435 21.6023 18.5577L23.0165 17.1434C21.2957 15.4226 19.9318 13.6604 19.1157 12.1942L17.3681 13.1669ZM26.9925 22.789C27.3187 22.9708 27.6527 23.141 27.9907 23.289L28.7931 21.4571C28.5261 21.3401 28.2501 21.2003 27.9663 21.0421L26.9925 22.789ZM12.6445 14.7897L14.492 12.9397L13.0768 11.5264L11.2293 13.3764L12.6445 14.7897ZM11.0765 14.5927L12.3915 16.8127L14.1123 15.7934L12.7973 13.5734L11.0765 14.5927ZM16.3912 8.50365C16.2391 9.18009 16.1333 10.7956 16.9018 12.2382L18.667 11.2979C18.1954 10.4126 18.2563 9.326 18.3425 8.94239L16.3912 8.50365ZM27.9862 23.2871C28.5904 23.5552 29.417 23.906 30.2233 24.0023C31.0755 24.1042 32.1109 23.933 32.7661 22.9218L31.0877 21.8343C31.001 21.968 30.8834 22.067 30.4607 22.0165C29.9922 21.9605 29.4221 21.7363 28.7976 21.459L27.9862 23.2871ZM21.6018 18.5572C22.3045 19.2608 23.0193 19.9137 23.7272 20.5028L25.0066 18.9655C24.3476 18.4171 23.678 17.8058 23.017 17.1439L21.6018 18.5572ZM23.7272 20.5028C24.8491 21.4365 25.9642 22.2192 26.9947 22.7902L27.9641 21.0409C27.0676 20.5441 26.0561 19.839 25.0066 18.9655L23.7272 20.5028ZM24.8871 20.5882C25.5867 20.162 26.8096 19.5936 28.1305 19.3146C29.4686 19.0321 30.7373 19.0802 31.6876 19.6577L32.7262 17.9484C31.1485 16.9899 29.2773 17.0284 27.7173 17.3578C26.1402 17.6908 24.7071 18.3559 23.8466 18.8801L24.8871 20.5882ZM14.4913 12.9404L18.0538 9.38041L16.64 7.9657L13.0775 11.5257L14.4913 12.9404ZM35.8683 27.778L35.8608 27.9205L37.858 28.0256L37.8655 27.8831L35.8683 27.778Z" fill="#F4F4F4"/>
</svg>
