<svg width="40" height="40" viewBox="0 0 40 40" fill="none" xmlns="http://www.w3.org/2000/svg">
<path d="M35.728 10.8777V25.6091M14.1677 13.8669V31.8023M35.728 10.8777L14.1677 13.8669V6.23923L35.728 3.25V10.8777Z" stroke="#F4F4F4" stroke-width="2" stroke-linecap="round" stroke-linejoin="round"/>
<path d="M9.21991 36.75C11.9524 36.75 14.1676 34.5348 14.1676 31.8023C14.1676 29.0698 11.9524 26.8546 9.21991 26.8546C6.48737 26.8546 4.27222 29.0698 4.27222 31.8023C4.27222 34.5348 6.48737 36.75 9.21991 36.75Z" stroke="#F4F4F4" stroke-width="2" stroke-linecap="round" stroke-linejoin="round"/>
<path d="M30.7802 30.5568C33.5127 30.5568 35.7279 28.3416 35.7279 25.6091C35.7279 22.8766 33.5127 20.6614 30.7802 20.6614C28.0477 20.6614 25.8325 22.8766 25.8325 25.6091C25.8325 28.3416 28.0477 30.5568 30.7802 30.5568Z" stroke="#F4F4F4" stroke-width="2" stroke-linecap="round" stroke-linejoin="round"/>
</svg>
