<svg width="30" height="32" viewBox="0 0 30 32" fill="none" xmlns="http://www.w3.org/2000/svg">
<path d="M19.1188 25.9544L19.7366 25.1681V25.1681L19.1188 25.9544ZM10.8811 25.9544L10.2633 25.1681H10.2633L10.8811 25.9544ZM9.75573 26.8386L10.3736 27.625L9.75573 26.8386ZM20.2442 26.8386L19.6264 27.625L20.2442 26.8386ZM11.6666 2.52771H18.3333V0.52771H11.6666V2.52771ZM27.3333 11.5277V22.9071H29.3333V11.5277H27.3333ZM2.66663 22.9071V11.5277H0.666626V22.9071H2.66663ZM20.862 26.0523L19.7366 25.1681L18.5009 26.7407L19.6264 27.625L20.862 26.0523ZM10.2633 25.1681L9.13791 26.0523L10.3736 27.625L11.499 26.7407L10.2633 25.1681ZM19.7366 25.1681C18.7672 24.4064 17.9715 23.7791 17.2699 23.3523C16.5454 22.9115 15.8276 22.624 15 22.624V24.624C15.3252 24.624 15.6782 24.7249 16.2305 25.0609C16.8058 25.411 17.4931 25.9488 18.5009 26.7407L19.7366 25.1681ZM11.499 26.7407C12.5068 25.9488 13.1941 25.411 13.7694 25.0609C14.3217 24.7249 14.6748 24.624 15 24.624V22.624C14.1723 22.624 13.4545 22.9115 12.73 23.3523C12.0285 23.7791 11.2327 24.4064 10.2633 25.1681L11.499 26.7407ZM0.666626 22.9071C0.666626 25.1091 0.664015 26.875 0.853032 28.1683C1.0404 29.4504 1.46437 30.6288 2.63664 31.1986L3.51092 29.3998C3.27604 29.2856 2.99643 29.0041 2.83201 27.8791C2.66924 26.7654 2.66663 25.1771 2.66663 22.9071H0.666626ZM9.13791 26.0523C7.3529 27.4548 6.10245 28.434 5.12613 28.9941C4.13994 29.5599 3.7458 29.514 3.51092 29.3998L2.63664 31.1986C3.80892 31.7684 4.99749 31.3737 6.12136 30.7289C7.25509 30.0785 8.64203 28.9854 10.3736 27.625L9.13791 26.0523ZM27.3333 22.9071C27.3333 25.1771 27.3307 26.7654 27.1679 27.8791C27.0035 29.0041 26.7239 29.2856 26.489 29.3998L27.3633 31.1986C28.5356 30.6288 28.9595 29.4504 29.1469 28.1683C29.3359 26.875 29.3333 25.1091 29.3333 22.9071H27.3333ZM19.6264 27.625C21.3579 28.9854 22.7448 30.0785 23.8786 30.7289C25.0024 31.3737 26.191 31.7684 27.3633 31.1986L26.489 29.3998C26.2541 29.514 25.86 29.5599 24.8738 28.9941C23.8975 28.434 22.647 27.4548 20.862 26.0523L19.6264 27.625ZM18.3333 2.52771C20.7186 2.52771 22.407 2.52983 23.6864 2.70185C24.9371 2.87 25.6463 3.18382 26.1617 3.69928L27.5759 2.28507C26.6269 1.33607 25.4254 0.917652 23.9529 0.719685C22.5092 0.525586 20.662 0.52771 18.3333 0.52771V2.52771ZM29.3333 11.5277C29.3333 9.19896 29.3354 7.35179 29.1413 5.9081C28.9433 4.43565 28.5249 3.23407 27.5759 2.28507L26.1617 3.69928C26.6772 4.21475 26.991 4.92392 27.1592 6.1746C27.3312 7.45405 27.3333 9.14242 27.3333 11.5277H29.3333ZM11.6666 0.52771C9.33787 0.52771 7.49071 0.525586 6.04702 0.719685C4.57456 0.917652 3.37299 1.33607 2.42399 2.28507L3.8382 3.69928C4.35366 3.18382 5.06283 2.87 6.31351 2.70185C7.59296 2.52983 9.28133 2.52771 11.6666 2.52771V0.52771ZM2.66663 11.5277C2.66663 9.14242 2.66875 7.45405 2.84077 6.1746C3.00892 4.92392 3.32273 4.21475 3.8382 3.69928L2.42399 2.28507C1.47498 3.23407 1.05657 4.43565 0.858601 5.9081C0.664502 7.35179 0.666626 9.19896 0.666626 11.5277H2.66663Z" fill="#F4F4F4"/>
</svg>
