<svg width="40" height="40" viewBox="0 0 40 40" fill="none" xmlns="http://www.w3.org/2000/svg">
<path d="M27.8895 15.0522L32.6675 12.7217C34.268 11.9411 36.0138 13.4838 35.4361 15.1681L31.6966 26.0712C30.4833 30.1557 9.51667 30.7392 8.30342 26.0712L4.56386 15.1681C3.98616 13.4838 5.73201 11.9411 7.33245 12.7217L12.1105 15.0522C13.0463 15.5086 14.1757 15.1707 14.7071 14.2754L18.2801 8.25505C19.055 6.94937 20.945 6.94937 21.7199 8.25505L25.2929 14.2754C25.8243 15.1707 26.9537 15.5086 27.8895 15.0522Z" stroke="#F4F4F4" stroke-width="2"/>
<path d="M10.0427 31.9575C9.57879 31.6578 8.95977 31.7909 8.66006 32.2548C8.36035 32.7187 8.49344 33.3377 8.95732 33.6374L10.0427 31.9575ZM30.732 33.677C31.2177 33.4142 31.3985 32.8074 31.1357 32.3217C30.8729 31.8359 30.2661 31.6552 29.7803 31.9179L30.732 33.677ZM8.95732 33.6374C10.1277 34.3936 11.8146 34.8901 13.6546 35.2011C15.5197 35.5164 17.6443 35.6574 19.764 35.6417C21.8846 35.6261 24.0236 35.4536 25.9197 35.1322C27.7972 34.814 29.5102 34.338 30.732 33.677L29.7803 31.9179C28.8424 32.4254 27.3805 32.8561 25.5855 33.1603C23.8092 33.4614 21.7783 33.6268 19.7492 33.6418C17.7192 33.6568 15.7143 33.5209 13.988 33.2291C12.2366 32.933 10.8701 32.4921 10.0427 31.9575L8.95732 33.6374Z" fill="#F4F4F4"/>
</svg>
