<svg width="30" height="38" viewBox="0 0 30 38" fill="none" xmlns="http://www.w3.org/2000/svg">
<path d="M27.582 17.3418C26.8237 15.635 25.7213 14.103 24.3438 12.8418L23.207 11.7988C23.1684 11.7644 23.122 11.7399 23.0717 11.7276C23.0215 11.7153 22.969 11.7156 22.9189 11.7283C22.8687 11.741 22.8225 11.7659 22.7842 11.8006C22.7459 11.8354 22.7167 11.879 22.6992 11.9277L22.1914 13.3848C21.875 14.2988 21.293 15.2324 20.4688 16.1504C20.4141 16.209 20.3516 16.2246 20.3086 16.2285C20.2656 16.2324 20.1992 16.2246 20.1406 16.1699C20.0859 16.123 20.0586 16.0527 20.0625 15.9824C20.207 13.6308 19.5039 10.9785 17.9648 8.09178C16.6914 5.69334 14.9219 3.82225 12.7109 2.51756L11.0977 1.56834C10.8867 1.44334 10.6172 1.60741 10.6289 1.8535L10.7148 3.7285C10.7734 5.00975 10.625 6.14256 10.2734 7.08397C9.84375 8.23631 9.22656 9.30663 8.4375 10.2676C7.88837 10.9354 7.26598 11.5394 6.58203 12.0683C4.93479 13.3346 3.59536 14.9571 2.66406 16.8144C1.73505 18.6879 1.25113 20.7506 1.25 22.8418C1.25 24.6855 1.61328 26.4707 2.33203 28.1543C3.02604 29.7752 4.02757 31.2464 5.28125 32.4863C6.54688 33.7363 8.01563 34.7207 9.65234 35.4043C11.3477 36.1152 13.1445 36.4746 15 36.4746C16.8555 36.4746 18.6523 36.1152 20.3477 35.4082C21.9803 34.7286 23.465 33.7375 24.7188 32.4902C25.9844 31.2402 26.9766 29.7793 27.668 28.1582C28.3856 26.4792 28.7538 24.6716 28.75 22.8457C28.75 20.9394 28.3594 19.0879 27.582 17.3418Z" stroke="#F4F4F4" stroke-width="2"/>
</svg>
