<svg width="40" height="41" viewBox="0 0 40 41" fill="none" xmlns="http://www.w3.org/2000/svg">
<path d="M13.3093 35.0108V37.5C13.3093 38.6045 14.2048 39.5 15.3093 39.5H24.6906C25.7952 39.5 26.6906 38.6045 26.6906 37.5V35.0108M13.3093 35.0108V32.5215C13.3093 31.417 14.2048 30.5215 15.3093 30.5215H17.6259M13.3093 35.0108H26.6906M26.6906 35.0108V32.5215C26.6906 31.417 25.7952 30.5215 24.6906 30.5215H22.518M22.518 30.5215L26.2127 12.0284C26.46 10.791 25.5134 9.6366 24.2515 9.6366H15.765C14.4976 9.6366 13.5498 10.8003 13.8064 12.0414L17.6259 30.5215M22.518 30.5215H17.6259" stroke="#F4F4F4" stroke-width="2"/>
<path d="M22.8131 4.14749C22.8131 5.58594 21.6099 6.79498 20.0721 6.79498C18.5342 6.79498 17.3311 5.58594 17.3311 4.14749C17.3311 2.70904 18.5342 1.5 20.0721 1.5C21.6099 1.5 22.8131 2.70904 22.8131 4.14749Z" stroke="#F4F4F4" stroke-width="2"/>
</svg>
