<svg width="40" height="40" viewBox="0 0 40 40" fill="none" xmlns="http://www.w3.org/2000/svg">
<path d="M19.9999 13.3333L26.3399 17.94M19.9999 13.3333L13.6599 17.94M19.9999 13.3333V8.33334M26.3399 17.94L23.9183 25.3933M26.3399 17.94L30.8333 15.8333M23.9183 25.3933H16.0833M23.9199 25.3933L26.6666 29.1667M16.0816 25.3933L13.6599 17.94M16.0816 25.3933L13.3333 29.1667M13.6599 17.94L9.16659 15.8333M9.16659 15.8333L3.41659 21.6667M9.16659 15.8333L7.49992 8.97501M30.8333 15.8333L36.5833 21.6667M30.8333 15.8333L32.4999 8.97501M19.9999 8.33334L14.3733 4.30668M19.9999 8.33334L25.6266 4.30668M13.3333 29.1667L5.56325 28.3333M13.3333 29.1667L17.4999 36.48M26.6666 29.1667L34.4366 28.3333M26.6666 29.1667L22.4999 36.48M36.6666 20C36.6666 29.205 29.2049 36.6667 19.9999 36.6667C10.7949 36.6667 3.33325 29.205 3.33325 20C3.33325 10.795 10.7949 3.33334 19.9999 3.33334C29.2049 3.33334 36.6666 10.795 36.6666 20Z" stroke="#F4F4F4" stroke-width="2" stroke-linecap="round" stroke-linejoin="round"/>
</svg>
