<svg width="40" height="40" viewBox="0 0 40 40" fill="none" xmlns="http://www.w3.org/2000/svg">
<path d="M31.8015 4.71994L31.0946 4.01264L31.0944 4.01285L31.8015 4.71994ZM36 6.4605L35 6.46021L36 6.4605ZM35.2791 8.19962L35.9838 8.9091L35.986 8.90693L35.2791 8.19962ZM34.8553 12.6959L34.1483 11.9888L34.1482 11.9888L34.8553 12.6959ZM13.8883 33.6656L14.5935 34.3746L14.5954 34.3727L13.8883 33.6656ZM13.4136 33.9325L13.1743 32.9616L13.1711 32.9624L13.4136 33.9325ZM5.26474 35.9698L5.50638 36.9402L5.50728 36.94L5.26474 35.9698ZM4.74625 35.9629L5.01364 34.9993L4.74625 35.9629ZM4.03018 34.7352L3.06004 34.4927L3.05981 34.4936L4.03018 34.7352ZM6.0674 26.5861L7.03755 26.8286L7.0377 26.828L6.0674 26.5861ZM6.33428 26.1134L5.62716 25.4063L5.62597 25.4075L6.33428 26.1134ZM25.9771 6.46997L25.2715 5.76138L25.27 5.76287L25.9771 6.46997ZM15.8135 11.1431C15.4228 11.5335 15.4226 12.1667 15.8131 12.5573C16.2035 12.948 16.8366 12.9482 17.2273 12.5577L15.8135 11.1431ZM23.231 5.1437L23.9379 5.85101L23.9381 5.85078L23.231 5.1437ZM32.2051 5.7306L32.5086 5.42704L31.0944 4.01285L30.7909 4.3164L32.2051 5.7306ZM32.5084 5.42725C32.644 5.29173 32.805 5.18426 32.9821 5.11095L32.2172 3.26298C31.7974 3.43673 31.416 3.69147 31.0946 4.01264L32.5084 5.42725ZM32.9821 5.11095C33.1592 5.03765 33.349 4.99994 33.5407 5L33.5413 3C33.087 2.99987 32.6371 3.08923 32.2172 3.26298L32.9821 5.11095ZM33.5407 5C33.7324 5.00006 33.9222 5.03787 34.0993 5.11128L34.8652 3.26375C34.4455 3.08976 33.9956 3.00013 33.5413 3L33.5407 5ZM34.0993 5.11128C34.2764 5.18469 34.4372 5.29226 34.5728 5.42785L35.9874 4.01407C35.6662 3.69271 35.2849 3.43775 34.8652 3.26375L34.0993 5.11128ZM34.5728 5.42785C34.7083 5.56345 34.8157 5.72441 34.889 5.90153L36.737 5.13673C36.5633 4.71691 36.3086 4.33544 35.9874 4.01407L34.5728 5.42785ZM34.889 5.90153C34.9624 6.07866 35.0001 6.2685 35 6.46021L37 6.4608C37.0001 6.00646 36.9108 5.55654 36.737 5.13673L34.889 5.90153ZM35 6.46021C34.9999 6.65191 34.9621 6.84173 34.8887 7.01882L36.7363 7.78471C36.9102 7.36501 36.9999 6.91514 37 6.4608L35 6.46021ZM34.8887 7.01882C34.8153 7.19592 34.7077 7.35681 34.5721 7.49232L35.986 8.90693C36.3073 8.58575 36.5623 8.20442 36.7363 7.78471L34.8887 7.01882ZM34.5743 7.49015L34.2708 7.79167L35.6802 9.21061L35.9838 8.9091L34.5743 7.49015ZM34.2291 9.16664C34.5785 9.55844 34.7647 10.069 34.7497 10.5938L36.7488 10.6511C36.7785 9.6159 36.4111 8.6086 35.7219 7.83564L34.2291 9.16664ZM34.7497 10.5938C34.7346 11.1185 34.5194 11.6176 34.1483 11.9888L35.5624 13.4031C36.2947 12.6708 36.7192 11.6862 36.7488 10.6511L34.7497 10.5938ZM34.1482 11.9888L13.1811 32.9586L14.5954 34.3727L35.5625 13.403L34.1482 11.9888ZM13.183 32.9567C13.1806 32.9591 13.1776 32.9608 13.1743 32.9616L13.6529 34.9035C14.0086 34.8158 14.3338 34.633 14.5935 34.3746L13.183 32.9567ZM13.1711 32.9624L5.02219 34.9997L5.50728 36.94L13.6561 34.9027L13.1711 32.9624ZM5.0231 34.9994C5.01998 35.0002 5.01672 35.0002 5.01364 34.9993L4.47886 36.9265C4.81446 37.0196 5.16844 37.0243 5.50638 36.9402L5.0231 34.9994ZM5.01364 34.9993C5.01056 34.9985 5.00774 34.9968 5.00546 34.9946L3.59123 36.4087C3.83748 36.655 4.14327 36.8334 4.47886 36.9265L5.01364 34.9993ZM5.00546 34.9946C5.00319 34.9923 5.00154 34.9895 5.00068 34.9864L3.07349 35.5211C3.16661 35.8567 3.34497 36.1625 3.59123 36.4087L5.00546 34.9946ZM5.00068 34.9864C4.99982 34.9832 4.99977 34.98 5.00055 34.9768L3.05981 34.4936C2.97566 34.8315 2.98038 35.1855 3.07349 35.5211L5.00068 34.9864ZM5.00033 34.9778L7.03755 26.8286L5.09726 26.3436L3.06004 34.4927L5.00033 34.9778ZM7.0377 26.828C7.03852 26.8247 7.0402 26.8217 7.04259 26.8193L5.62597 25.4075C5.36821 25.6662 5.18543 25.9899 5.0971 26.3442L7.0377 26.828ZM7.04139 26.8205L26.6842 7.17707L25.27 5.76287L5.62716 25.4063L7.04139 26.8205ZM17.2273 12.5577L23.9379 5.85101L22.5241 4.43639L15.8135 11.1431L17.2273 12.5577ZM23.9381 5.85078C24.3095 5.47937 24.8089 5.2642 25.3339 5.24942L25.2776 3.25021C24.2418 3.27937 23.2565 3.70388 22.5238 4.43662L23.9381 5.85078ZM25.3339 5.24942C25.8589 5.23463 26.3697 5.42136 26.7614 5.77129L28.0939 4.27979C27.3211 3.58944 26.3134 3.22104 25.2776 3.25021L25.3339 5.24942ZM28.094 5.77114C28.4706 5.43458 28.9579 5.24842 29.4629 5.24817L29.4619 3.24817C28.4655 3.24867 27.5042 3.61594 26.7612 4.27993L28.094 5.77114ZM29.4629 5.24817C29.968 5.24791 30.4554 5.43359 30.8323 5.76977L32.1636 4.27723C31.42 3.61398 30.4583 3.24767 29.4619 3.24817L29.4629 5.24817ZM30.7909 5.7306L34.2684 9.20824L35.6826 7.79404L32.2051 4.3164L30.7909 5.7306ZM26.722 4.31695L25.2715 5.76138L26.6827 7.17856L28.1332 5.73412L26.722 4.31695Z" fill="#F4F4F4"/>
</svg>
