<svg width="40" height="40" viewBox="0 0 40 40" fill="none" xmlns="http://www.w3.org/2000/svg">
<path fill-rule="evenodd" clip-rule="evenodd" d="M10.7239 10.8921C12.8642 8.71246 15.7668 7.28384 19 7.03789V13.7217C17.5112 13.6371 16.0521 13.3644 14.6867 12.915C13.1945 12.4239 11.853 11.7346 10.7239 10.8921ZM14.0615 14.8148C15.6325 15.3319 17.3032 15.6381 19 15.7245V19H7.03789C7.2237 16.5575 8.08448 14.3036 9.43412 12.4245C10.7723 13.4408 12.3438 14.2494 14.0615 14.8148ZM7.03789 21C7.2237 23.4425 8.08447 25.6964 9.43412 27.5755C10.6741 26.6338 12.1159 25.8692 13.6912 25.3117C15.3675 24.7183 17.168 24.3688 19 24.2755V21H7.03789ZM21 21V24.2755C22.9292 24.3738 24.8219 24.756 26.5705 25.4067C28.0447 25.9552 29.3956 26.6867 30.5659 27.5755C31.9155 25.6964 32.7763 23.4425 32.9621 21H21ZM32.9621 19C32.7763 16.5575 31.9155 14.3036 30.5659 12.4245C29.3731 13.3303 27.9933 14.0725 26.4875 14.624C24.7621 15.2559 22.8988 15.6278 21 15.7245V19H32.9621ZM14.3585 27.197C15.8156 26.6813 17.3895 26.3698 19 26.2783V32.9621C15.7668 32.7162 12.8642 31.2875 10.7239 29.1079C11.7676 28.3291 12.9946 27.6798 14.3585 27.197ZM21 26.2783V32.9621C24.2332 32.7162 27.1358 31.2875 29.2761 29.1079C28.2929 28.3742 27.1459 27.7547 25.8731 27.2811C24.3536 26.7158 22.6982 26.3747 21 26.2783ZM21 7.03789V13.7217C22.6711 13.6268 24.3005 13.2951 25.7996 12.746C27.1007 12.2695 28.2732 11.6405 29.2761 10.8921C27.1358 8.71246 24.2332 7.28384 21 7.03789ZM5 20C5 11.7157 11.7157 5 20 5C28.2843 5 35 11.7157 35 20C35 28.2843 28.2843 35 20 35C11.7157 35 5 28.2843 5 20Z" fill="#F4F4F4"/>
</svg>
