<svg width="40" height="40" viewBox="0 0 40 40" fill="none" xmlns="http://www.w3.org/2000/svg">
<path d="M20 8.5V9.5V8.5ZM21 19.0455C21 18.4932 20.5523 18.0455 20 18.0455C19.4477 18.0455 19 18.4932 19 19.0455H21ZM20 16.3112L20.0535 15.3126L20 16.3112ZM19 17.2762C19 17.8285 19.4477 18.2762 20 18.2762C20.5523 18.2762 21 17.8285 21 17.2762H19ZM12.5874 25.817L11.5901 25.7442L12.5874 25.817ZM27.2696 25.6141L26.2759 25.7265L27.2696 25.6141ZM39.005 28.9599C38.0043 24.7302 36.0237 19.4253 32.9476 15.1521C29.8736 10.882 25.5923 7.5 20 7.5V9.5C24.6892 9.5 28.4432 12.3182 31.3244 16.3206C34.2035 20.32 36.0981 25.3601 37.0588 29.4204L39.005 28.9599ZM20 7.5C14.289 7.5 10.0167 10.9933 6.98335 15.3085C3.9479 19.6268 2.03604 24.9191 1.03959 28.9159L2.98019 29.3997C3.94187 25.5424 5.77467 20.5058 8.61955 16.4587C11.4665 12.4086 15.2102 9.5 20 9.5V7.5ZM3.89936 32.5H6.62554V30.5H3.89936V32.5ZM6.62554 32.5H20V30.5H6.62554V32.5ZM20 32.5H33.5346V30.5H20V32.5ZM33.5346 32.5H36.1407V30.5H33.5346V32.5ZM19 19.0455V27.7308H21V19.0455H19ZM20 28.7308H25.3237V26.7308H20V28.7308ZM20 26.7308H14.4684V28.7308H20V26.7308ZM13.5848 25.8898C13.7263 23.9508 14.2099 21.6769 15.2396 19.9564C16.2394 18.2859 17.705 17.1897 19.9465 17.3098L20.0535 15.3126C16.9014 15.1438 14.808 16.7832 13.5235 18.9293C12.269 21.0252 11.7431 23.6487 11.5901 25.7442L13.5848 25.8898ZM19.9465 17.3098C22.2201 17.4315 23.6187 18.4209 24.5517 19.873C25.5257 21.3888 26.0192 23.4584 26.2759 25.7265L28.2632 25.5016C27.9963 23.1433 27.4611 20.701 26.2343 18.7918C24.9666 16.8189 22.9923 15.47 20.0535 15.3126L19.9465 17.3098ZM19 16.3112V17.2762H21V16.3112H19ZM14.4684 26.7308C13.9019 26.7308 13.5544 26.3057 13.5848 25.8898L11.5901 25.7442C11.4644 27.4654 12.8921 28.7308 14.4684 28.7308V26.7308ZM25.3237 28.7308C27.033 28.7308 28.4643 27.2778 28.2632 25.5016L26.2759 25.7265C26.334 26.2396 25.9183 26.7308 25.3237 26.7308V28.7308ZM37.0588 29.4204C37.1835 29.9475 36.7798 30.5 36.1407 30.5V32.5C37.9723 32.5 39.4492 30.837 39.005 28.9599L37.0588 29.4204ZM1.03959 28.9159C0.569312 30.8022 2.04597 32.5 3.89936 32.5V30.5C3.25518 30.5 2.84629 29.9368 2.98019 29.3997L1.03959 28.9159Z" fill="#F4F4F4"/>
</svg>
