<svg width="16" height="18" viewBox="0 0 16 18" fill="none" xmlns="http://www.w3.org/2000/svg">
<path d="M8.40692 13.5906L8.64693 14.0292H8.64693L8.40692 13.5906ZM7.59329 13.5906L7.8333 13.152L7.8333 13.152L7.59329 13.5906ZM12.9446 6.59999C12.9446 8.38215 12.0854 9.84051 11.0352 10.9588C9.98425 12.0779 8.77541 12.819 8.16691 13.152L8.64693 14.0292C9.30223 13.6707 10.6122 12.87 11.7641 11.6434C12.9168 10.416 13.9446 8.72486 13.9446 6.59999H12.9446ZM8.00011 1.5C10.7177 1.5 12.9446 3.76997 12.9446 6.59999H13.9446C13.9446 3.24443 11.2963 0.5 8.00011 0.5V1.5ZM3.05566 6.59999C3.05566 3.76997 5.28255 1.5 8.00011 1.5V0.5C4.7039 0.5 2.05566 3.24443 2.05566 6.59999H3.05566ZM7.8333 13.152C7.2248 12.819 6.01597 12.0779 4.96503 10.9588C3.91479 9.84051 3.05566 8.38215 3.05566 6.59999H2.05566C2.05566 8.72486 3.08345 10.416 4.23608 11.6434C5.38801 12.87 6.69799 13.6707 7.35328 14.0292L7.8333 13.152ZM8.16691 13.152C8.06008 13.2104 7.94014 13.2104 7.8333 13.152L7.35328 14.0292C7.75921 14.2514 8.241 14.2514 8.64693 14.0292L8.16691 13.152ZM9.83341 6.59997C9.83341 7.66267 8.99942 8.49996 8.00008 8.49996V9.49996C9.57807 9.49996 10.8334 8.18822 10.8334 6.59997H9.83341ZM8.00008 4.69997C8.99942 4.69997 9.83341 5.53725 9.83341 6.59997H10.8334C10.8334 5.01171 9.57807 3.69997 8.00008 3.69997V4.69997ZM6.16675 6.59997C6.16675 5.53725 7.00074 4.69997 8.00008 4.69997V3.69997C6.42209 3.69997 5.16675 5.01171 5.16675 6.59997H6.16675ZM8.00008 8.49996C7.00074 8.49996 6.16675 7.66267 6.16675 6.59997H5.16675C5.16675 8.18822 6.42209 9.49996 8.00008 9.49996V8.49996Z" fill="white"/>
<path d="M14.0622 13.4C14.6766 13.7649 15 14.1787 15 14.6C15 15.0213 14.6766 15.4352 14.0622 15.8C13.4478 16.1649 12.5641 16.4678 11.5 16.6785C10.4359 16.8891 9.22876 17 8 17C6.77124 17 5.56414 16.8891 4.5 16.6785C3.43587 16.4678 2.5522 16.1649 1.93782 15.8C1.32344 15.4352 1 15.0213 1 14.6C1 14.1787 1.32344 13.7649 1.93782 13.4" stroke="white" stroke-linecap="round"/>
</svg>
