<svg width="20" height="22" viewBox="0 0 20 22" fill="none" xmlns="http://www.w3.org/2000/svg">
<path d="M10.4002 20.805L9.94598 19.9141L9.94598 19.9141L10.4002 20.805ZM9.59979 20.805L10.054 19.9141L10.054 19.9141L9.59979 20.805ZM17.75 9.75C17.75 12.5737 16.2854 14.8786 14.514 16.634C12.7445 18.3876 10.7588 19.4997 9.94598 19.9141L10.8544 21.6959C11.7557 21.2364 13.9449 20.0137 15.9218 18.0546C17.8968 16.0974 19.75 13.3118 19.75 9.75H17.75ZM10 2C14.2802 2 17.75 5.46979 17.75 9.75H19.75C19.75 4.36522 15.3848 0 10 0V2ZM2.25 9.75C2.25 5.46979 5.71979 2 10 2V0C4.61522 0 0.25 4.36522 0.25 9.75H2.25ZM10.054 19.9141C9.24116 19.4997 7.25548 18.3876 5.486 16.634C3.71463 14.8786 2.25 12.5737 2.25 9.75H0.25C0.25 13.3118 2.1032 16.0974 4.07819 18.0546C6.05508 20.0137 8.24429 21.2364 9.14556 21.6959L10.054 19.9141ZM9.94598 19.9141C9.95885 19.9076 9.97774 19.9021 10 19.9021C10.0223 19.9021 10.0411 19.9076 10.054 19.9141L9.14556 21.6959C9.68468 21.9708 10.3153 21.9708 10.8544 21.6959L9.94598 19.9141ZM12.75 9.75C12.75 11.2688 11.5188 12.5 10 12.5V14.5C12.6234 14.5 14.75 12.3734 14.75 9.75H12.75ZM10 7C11.5188 7 12.75 8.23122 12.75 9.75H14.75C14.75 7.12665 12.6234 5 10 5V7ZM7.25 9.75C7.25 8.23122 8.48122 7 10 7V5C7.37665 5 5.25 7.12665 5.25 9.75H7.25ZM10 12.5C8.48122 12.5 7.25 11.2688 7.25 9.75H5.25C5.25 12.3734 7.37665 14.5 10 14.5V12.5Z" fill="white"/>
</svg>
