<svg width="30" height="30" viewBox="0 0 30 30" fill="none" xmlns="http://www.w3.org/2000/svg">
<path d="M16.0095 13.6539C16.0095 13.0963 15.5575 12.6443 14.9999 12.6443C14.4423 12.6443 13.9903 13.0963 13.9903 13.6539V21.7308C13.9903 22.2884 14.4423 22.7404 14.9999 22.7404C15.5575 22.7404 16.0095 22.2884 16.0095 21.7308V13.6539Z" fill="#FF4F44"/>
<path fill-rule="evenodd" clip-rule="evenodd" d="M14.9999 0.528931C7.00773 0.528931 0.528809 7.00786 0.528809 15C0.528809 22.9922 7.00773 29.4711 14.9999 29.4711C22.9921 29.4711 29.471 22.9922 29.471 15C29.471 7.00786 22.9921 0.528931 14.9999 0.528931ZM2.54803 15C2.54803 8.12304 8.12292 2.54815 14.9999 2.54815C21.8769 2.54815 27.4518 8.12304 27.4518 15C27.4518 21.877 21.8769 27.4519 14.9999 27.4519C8.12292 27.4519 2.54803 21.877 2.54803 15Z" fill="#FF4F44"/>
<path d="M16.346 9.61543C16.346 10.3589 15.7433 10.9616 14.9999 10.9616C14.2564 10.9616 13.6537 10.3589 13.6537 9.61543C13.6537 8.87197 14.2564 8.26928 14.9999 8.26928C15.7433 8.26928 16.346 8.87197 16.346 9.61543Z" fill="#FF4F44"/>
</svg>
