<svg width="14" height="15" viewBox="0 0 14 15" fill="none" xmlns="http://www.w3.org/2000/svg">
<rect y="0.5" width="14" height="14" rx="4" fill="#5670B6"/>
<path d="M3.35355 6.64645C3.15829 6.45118 2.84171 6.45118 2.64645 6.64645C2.45118 6.84171 2.45118 7.15829 2.64645 7.35355L3.35355 6.64645ZM5.5 9.5L5.14645 9.85355C5.33517 10.0423 5.63885 10.0495 5.83634 9.86997L5.5 9.5ZM11.3363 4.86997C11.5407 4.68422 11.5557 4.36799 11.37 4.16366C11.1842 3.95933 10.868 3.94428 10.6637 4.13003L11.3363 4.86997ZM2.64645 7.35355L5.14645 9.85355L5.85355 9.14645L3.35355 6.64645L2.64645 7.35355ZM5.83634 9.86997L11.3363 4.86997L10.6637 4.13003L5.16366 9.13003L5.83634 9.86997Z" fill="#F4F4F4"/>
</svg>
