<svg width="13" height="12" viewBox="0 0 13 12" fill="none" xmlns="http://www.w3.org/2000/svg">
<path d="M1.78167 6.69263L6.12705 10.7747C6.15565 10.8015 6.16995 10.815 6.18299 10.8256C6.36732 10.9768 6.63268 10.9768 6.81701 10.8256C6.83005 10.815 6.84435 10.8015 6.87295 10.7747L11.2183 6.69263C12.4409 5.54412 12.5894 3.65412 11.5611 2.32879L11.3678 2.07959C10.1377 0.494112 7.66852 0.760009 6.80417 2.57103C6.68207 2.82685 6.31793 2.82685 6.19583 2.57103C5.33148 0.760009 2.86232 0.494115 1.63221 2.07959L1.43887 2.32879C0.410592 3.65413 0.559064 5.54412 1.78167 6.69263Z" fill="white" stroke="white"/>
</svg>
