<svg width="0" height="0" class="hidden">
  <symbol fill="none" xmlns="http://www.w3.org/2000/svg" viewBox="0 0 40 40" id="Clothes">
    <path
      d="M35.5266 6.75844C32.5933 5.79677 24.9999 3.30844 24.9999 3.33344C24.9999 4.65952 24.4732 5.93129 23.5355 6.86897C22.5978 7.80665 21.326 8.33344 19.9999 8.33344C18.6739 8.33344 17.4021 7.80665 16.4644 6.86897C15.5267 5.93129 14.9999 4.65952 14.9999 3.33344C14.9999 3.30844 7.40661 5.79677 4.47161 6.75844C4.13908 6.86744 3.8497 7.07914 3.64514 7.36306C3.44058 7.64699 3.33139 7.9885 3.33328 8.33844V14.5318C3.33335 14.7849 3.39109 15.0348 3.50212 15.2623C3.61315 15.4898 3.77455 15.689 3.97407 15.8448C4.1736 16.0007 4.406 16.109 4.65363 16.1616C4.90127 16.2142 5.15764 16.2097 5.40328 16.1484L9.99994 15.0001V35.0001C9.99994 35.4421 10.1755 35.8661 10.4881 36.1786C10.8007 36.4912 11.2246 36.6668 11.6666 36.6668H28.3333C28.7753 36.6668 29.1992 36.4912 29.5118 36.1786C29.8243 35.8661 29.9999 35.4421 29.9999 35.0001V15.0001L34.5966 16.1484C34.8422 16.2097 35.0986 16.2142 35.3463 16.1616C35.5939 16.109 35.8263 16.0007 36.0258 15.8448C36.2253 15.689 36.3867 15.4898 36.4978 15.2623C36.6088 15.0348 36.6665 14.7849 36.6666 14.5318V8.33844C36.6684 7.9883 36.5589 7.64663 36.3541 7.36268C36.1492 7.07873 35.8595 6.86715 35.5266 6.75844V6.75844Z"
      stroke="#F4F4F4"></path>
  </symbol>
  <symbol fill="none" xmlns="http://www.w3.org/2000/svg" viewBox="0 0 40 40" id="Construction">
    <path
      d="M12.4185 12.4211C12.4185 12.4211 12.3681 11.6366 12.5289 10.5466M19.9998 4V9.05263M19.9998 4C22.0718 4 23.58 4.54793 24.6773 5.36426M19.9998 4C17.8016 4 16.2379 4.61677 15.1263 5.51647M27.5813 12.4211C27.5813 12.4211 27.6259 11.7267 27.4972 10.7368M12.5289 10.5466C12.5289 10.5466 10.4334 11.8607 10.7941 12.9825C11.0282 13.7106 12.0801 14.3338 13.5017 14.8067M12.5289 10.5466C12.7525 9.03172 13.3841 6.92659 15.1263 5.51647M27.4972 10.7368C27.4972 10.7368 29.4671 11.8988 29.2058 12.9825C28.9717 13.9533 27.9199 14.6093 26.4983 15.0413M27.4972 10.7368C27.2921 9.15869 26.6465 6.82926 24.6773 5.36426M13.5017 14.8067C15.3685 15.4276 17.8727 15.7895 20 15.7895C22.1273 15.7895 24.6315 15.6086 26.4983 15.0413M13.5017 14.8067C13.5017 14.8067 11.3357 23.6491 20 23.6491C28.1228 23.6491 26.4983 15.0413 26.4983 15.0413M24.6773 5.36426V10.5466M15.1263 5.51647V10.5466M10.7941 26.493C12.8311 25.9926 14.5848 25.8947 14.5848 25.8947V29.2632H25.4152V25.8947C25.4152 25.8947 27.49 26.0105 29.7474 26.6341M10.7941 26.493C8.41241 27.0781 5.64342 28.2134 4.8374 30.386C4.07824 32.4322 4.8374 36 4.8374 36H10.7941M10.7941 26.493V36M10.7941 36H29.7474M29.7474 26.6341C31.9919 27.2542 34.417 28.3764 35.1626 30.386C35.9218 32.4322 35.1626 36 35.1626 36H29.7474M29.7474 26.6341V36"
      stroke="#F4F4F4" stroke-linecap="round"></path>
  </symbol>
  <symbol fill="none" xmlns="http://www.w3.org/2000/svg" viewBox="0 0 40 40" id="Digital">
    <path
      d="M33.3332 9.50001C33.6093 9.50001 33.8332 9.27615 33.8332 9.00001C33.8332 8.72387 33.6093 8.50001 33.3332 8.50001V9.50001ZM6.6665 8.50001C6.39036 8.50001 6.1665 8.72387 6.1665 9.00001C6.1665 9.27615 6.39036 9.50001 6.6665 9.50001V8.50001ZM9.99984 1.83334C9.72369 1.83334 9.49984 2.0572 9.49984 2.33334C9.49984 2.60949 9.72369 2.83334 9.99984 2.83334V1.83334ZM29.9998 2.83334C30.276 2.83334 30.4998 2.60949 30.4998 2.33334C30.4998 2.0572 30.276 1.83334 29.9998 1.83334V2.83334ZM17.1865 30.8333L16.833 31.1869C16.9267 31.2807 17.0539 31.3333 17.1865 31.3333C17.3191 31.3333 17.4463 31.2807 17.5401 31.1869L17.1865 30.8333ZM14.0401 26.9798C13.8448 26.7845 13.5282 26.7845 13.333 26.9798C13.1377 27.1751 13.1377 27.4916 13.333 27.6869L14.0401 26.9798ZM26.7067 22.0202C26.902 21.825 26.902 21.5084 26.7067 21.3131C26.5115 21.1179 26.1949 21.1179 25.9996 21.3131L26.7067 22.0202ZM33.3332 8.50001H6.6665V9.50001H33.3332V8.50001ZM9.99984 2.83334H29.9998V1.83334H9.99984V2.83334ZM17.5401 30.4798L14.0401 26.9798L13.333 27.6869L16.833 31.1869L17.5401 30.4798ZM25.9996 21.3131L16.833 30.4798L17.5401 31.1869L26.7067 22.0202L25.9996 21.3131Z"
      fill="#F4F4F4"></path>
    <path
      d="M3.33333 14.8333H36.6667C37.4181 14.8333 38.1388 15.1319 38.6701 15.6632C39.2015 16.1946 39.5 16.9152 39.5 17.6667V34.3333C39.5 35.0848 39.2015 35.8055 38.6701 36.3368C38.1388 36.8682 37.4181 37.1667 36.6667 37.1667H3.33333C2.58189 37.1667 1.86122 36.8682 1.32986 36.3368C0.798511 35.8055 0.5 35.0848 0.5 34.3333V17.6667C0.5 16.9152 0.798511 16.1946 1.32986 15.6632C1.86122 15.1319 2.58189 14.8333 3.33333 14.8333Z"
      stroke="#F4F4F4"></path>
  </symbol>
  <symbol fill="none" xmlns="http://www.w3.org/2000/svg" viewBox="0 0 40 40" id="Electronics">
    <path
      d="M5.5 14.1667C5.5 12.5812 5.50106 11.4424 5.61758 10.5757C5.73216 9.72345 5.95009 9.20964 6.32986 8.82986C6.70964 8.45009 7.22345 8.23216 8.07572 8.11758C8.94237 8.00106 10.0812 8 11.6667 8H28.3333C29.9188 8 31.0576 8.00106 31.9243 8.11758C32.7766 8.23216 33.2904 8.45009 33.6701 8.82986C34.0499 9.20964 34.2678 9.72345 34.3824 10.5757C34.4989 11.4424 34.5 12.5812 34.5 14.1667V28.6667H5.5V14.1667Z"
      stroke="#F4F4F4"></path>
    <path
      d="M6.11111 28.6666C5.22132 28.6666 4.5 29.3879 4.5 30.2777C4.5 31.7812 5.71878 33 7.22222 33H32.7778C34.2812 33 35.5 31.7812 35.5 30.2777C35.5 29.3879 34.7787 28.6666 33.8889 28.6666H6.11111Z"
      stroke="#F4F4F4"></path>
  </symbol>
  <symbol fill="none" xmlns="http://www.w3.org/2000/svg" viewBox="0 0 40 40" id="FamilyAndGarden">
    <path
      d="M13.492 10.6189L13.8174 10.9985L13.492 10.6189ZM26.5078 10.6189L26.1824 10.9985V10.9985L26.5078 10.6189ZM28.1745 12.0474L28.4999 11.6678V11.6678L28.1745 12.0474ZM11.8253 12.0474L11.4999 11.6678L11.8253 12.0474ZM31.1666 19.64V26.7073H32.1666V19.64H31.1666ZM24.9999 32.874H14.9999V33.874H24.9999V32.874ZM8.83325 26.7073V19.64H7.83325V26.7073H8.83325ZM12.1507 12.4271L13.8174 10.9985L13.1666 10.2392L11.4999 11.6678L12.1507 12.4271ZM26.1824 10.9985L27.8491 12.4271L28.4999 11.6678L26.8332 10.2392L26.1824 10.9985ZM13.8174 10.9985C15.38 9.65913 16.5172 8.68563 17.4925 8.04146C18.4561 7.40502 19.2102 7.12604 19.9999 7.12604V6.12604C18.94 6.12604 17.9929 6.51252 16.9414 7.20703C15.9015 7.8938 14.7096 8.91671 13.1666 10.2392L13.8174 10.9985ZM26.8332 10.2392C25.2903 8.91671 24.0983 7.8938 23.0585 7.20703C22.0069 6.51252 21.0599 6.12604 19.9999 6.12604V7.12604C20.7896 7.12604 21.5437 7.40502 22.5074 8.04146C23.4827 8.68562 24.6199 9.65913 26.1824 10.9985L26.8332 10.2392ZM14.9999 32.874C13.4144 32.874 12.2756 32.8729 11.409 32.7564C10.5567 32.6418 10.0429 32.4239 9.66312 32.0441L8.95601 32.7512C9.55255 33.3478 10.3126 33.618 11.2757 33.7475C12.2245 33.875 13.4427 33.874 14.9999 33.874V32.874ZM7.83325 26.7073C7.83325 28.2645 7.83219 29.4827 7.95975 30.4315C8.08924 31.3947 8.35947 32.1547 8.95601 32.7512L9.66312 32.0441C9.28335 31.6643 9.06542 31.1505 8.95083 30.2983C8.83431 29.4316 8.83325 28.2928 8.83325 26.7073H7.83325ZM31.1666 26.7073C31.1666 28.2928 31.1655 29.4316 31.049 30.2983C30.9344 31.1505 30.7165 31.6643 30.3367 32.0441L31.0438 32.7512C31.6404 32.1547 31.9106 31.3947 32.0401 30.4315C32.1676 29.4827 32.1666 28.2645 32.1666 26.7073H31.1666ZM24.9999 33.874C26.5571 33.874 27.7753 33.875 28.7241 33.7475C29.6873 33.618 30.4473 33.3478 31.0438 32.7512L30.3367 32.0441C29.957 32.4239 29.4431 32.6418 28.5909 32.7564C27.7242 32.8729 26.5854 32.874 24.9999 32.874V33.874ZM32.1666 19.64C32.1666 17.4228 32.1773 16.1594 31.6634 15.0421L30.7549 15.46C31.1559 16.3318 31.1666 17.3313 31.1666 19.64H32.1666ZM27.8491 12.4271C29.602 13.9295 30.3539 14.5881 30.7549 15.46L31.6634 15.0421C31.1495 13.9248 30.1833 13.1107 28.4999 11.6678L27.8491 12.4271ZM8.83325 19.64C8.83325 17.3313 8.84395 16.3318 9.24494 15.46L8.33643 15.0421C7.82256 16.1594 7.83325 17.4228 7.83325 19.64H8.83325ZM11.4999 11.6678C9.81654 13.1107 8.8503 13.9248 8.33643 15.0421L9.24494 15.46C9.64594 14.5881 10.3978 13.9295 12.1507 12.4271L11.4999 11.6678Z"
      fill="#F4F4F4"></path>
    <path
      d="M24.1666 33.374V24.374C24.1666 23.8217 23.7189 23.374 23.1666 23.374H16.8333C16.281 23.374 15.8333 23.8217 15.8333 24.374V33.374"
      stroke="#F4F4F4" stroke-linecap="round" stroke-linejoin="round"></path>
  </symbol>
  <symbol fill="none" xmlns="http://www.w3.org/2000/svg" viewBox="0 0 40 40" id="Food">
    <path
      d="M8.72924 24.8376C7.77986 24.5879 6.92494 24.0644 6.27102 23.3322C5.6171 22.6001 5.19309 21.6917 5.05182 20.7202C4.91055 19.7488 5.05828 18.7572 5.47659 17.8691C5.8949 16.9811 6.5653 16.2357 7.40424 15.726C7.95091 15.3926 8.33258 14.8076 8.33258 14.1676C8.33222 12.5069 8.78304 10.8773 9.63685 9.45289C10.4907 8.02847 11.7154 6.86275 13.1802 6.08028C14.645 5.29781 16.2949 4.92798 17.9536 5.01029C19.6123 5.09261 21.2174 5.62398 22.5976 6.54764C23.2159 6.9643 24.0226 7.00597 24.7426 6.81097C25.3605 6.64453 26.0084 6.62248 26.6362 6.74653C27.264 6.87058 27.8549 7.1374 28.3631 7.52634C28.8712 7.91529 29.2831 8.41594 29.5668 8.98955C29.8506 9.56316 29.9985 10.1944 29.9992 10.8343C29.9992 11.3976 30.3276 11.946 30.8492 12.1593C32.034 12.6423 33.0548 13.4559 33.7898 14.503C34.5249 15.5502 34.9432 16.7867 34.9949 18.065C35.0465 19.3434 34.7293 20.6096 34.0812 21.7126C33.433 22.8157 32.4812 23.709 31.3392 24.286M8.72924 24.8376L9.81758 33.541C9.86794 33.944 10.0637 34.3147 10.3682 34.5836C10.6726 34.8524 11.0648 35.0009 11.4709 35.001H16.7477M8.72924 24.8376C9.95206 24.8997 11.5905 24.9609 13.4615 25.001M31.3392 24.286L30.1826 33.541C30.1322 33.9443 29.9361 34.3153 29.6314 34.5841C29.3266 34.853 28.934 35.0013 28.5276 35.001H23.4993M31.3392 24.286C29.1253 24.6346 26.3666 24.8383 23.4993 24.9458M12.1092 25.001H13.4615M14.9992 25.001H13.4615M21.6659 25.001H18.3326M16.7477 25.0445V35.001M16.7477 25.0445C18.924 25.0553 21.2452 25.0303 23.4993 24.9458M16.7477 25.0445C15.6018 25.0387 14.4961 25.0231 13.4615 25.001M16.7477 35.001H23.4993M23.4993 24.9458V35.001"
      stroke="#F4F4F4"></path>
  </symbol>
  <symbol fill="none" xmlns="http://www.w3.org/2000/svg" viewBox="0 0 40 40" id="Furniture">
    <path fill-rule="evenodd" clip-rule="evenodd"
      d="M9 4.5C6.51472 4.5 4.5 6.51472 4.5 9V16.2289C2.47145 16.866 1 18.7612 1 21V30C1 31.1046 1.89543 32 3 32H5V34.5C5 35.3284 5.67157 36 6.5 36C7.32843 36 8 35.3284 8 34.5V32H9H31H32V34.5C32 35.3284 32.6716 36 33.5 36C34.3284 36 35 35.3284 35 34.5V32H37C38.1046 32 39 31.1046 39 30V21C39 18.7612 37.5286 16.866 35.5 16.2289V9C35.5 6.51472 33.4853 4.5 31 4.5H9ZM33 31H35H37C37.5523 31 38 30.5523 38 30V21C38 18.7909 36.2091 17 34 17C31.7909 17 30 18.7909 30 21V30C30 30.5523 30.4477 31 31 31H32H33ZM29.2676 31C29.0974 30.7058 29 30.3643 29 30V21.5H11V30C11 30.3643 10.9026 30.7058 10.7324 31H29.2676ZM9 31C9.55228 31 10 30.5523 10 30V21C10 18.7909 8.20914 17 6 17C3.79086 17 2 18.7909 2 21V30C2 30.5523 2.44772 31 3 31H5H8H9ZM34 16C31.4073 16 29.2755 17.9733 29.0247 20.5H10.9753C10.7245 17.9733 8.59267 16 6 16C5.83125 16 5.66445 16.0084 5.5 16.0247V9C5.5 7.067 7.067 5.5 9 5.5H31C32.933 5.5 34.5 7.067 34.5 9V16.0247C34.3355 16.0084 34.1688 16 34 16Z"
      fill="#F4F4F4"></path>
  </symbol>
  <symbol fill="none" xmlns="http://www.w3.org/2000/svg" viewBox="0 0 40 40" id="Games">
    <path
      d="M36.0517 27.8035L36.4959 28.033C36.6173 27.798 36.5347 27.5092 36.3075 27.3739L36.0517 27.8035ZM36.0123 12.1209L36.2706 12.549C36.4969 12.4125 36.5779 12.1234 36.4554 11.8891L36.0123 12.1209ZM22.9485 20L22.6903 19.5719C22.5398 19.6626 22.448 19.8257 22.4485 20.0014C22.449 20.1771 22.5417 20.3397 22.6926 20.4296L22.9485 20ZM35.6075 27.5739C33.9115 30.8564 31.163 33.4746 27.8021 35.0093L28.2175 35.9189C31.782 34.2913 34.6971 31.5143 36.4959 28.033L35.6075 27.5739ZM27.8021 35.0093C24.4413 36.5439 20.6626 36.9062 17.0714 36.038L16.8364 37.01C20.6453 37.9308 24.6529 37.5466 28.2175 35.9189L27.8021 35.0093ZM17.0714 36.038C13.4801 35.1699 10.2842 33.1215 7.99552 30.2211L7.2105 30.8406C9.6379 33.9168 13.0275 36.0892 16.8364 37.01L17.0714 36.038ZM7.99552 30.2211C5.70683 27.3207 4.45781 23.7361 4.44854 20.0414L3.44854 20.0439C3.45837 23.9625 4.78309 27.7644 7.2105 30.8406L7.99552 30.2211ZM4.44854 20.0414C4.43927 16.3468 5.67029 12.7559 7.9444 9.84404L7.15628 9.22853C4.74434 12.3169 3.43871 16.1253 3.44854 20.0439L4.44854 20.0414ZM7.9444 9.84404C10.2185 6.93218 13.4041 4.86782 16.9909 3.98165L16.7511 3.01084C12.9469 3.95072 9.56821 6.14019 7.15628 9.22853L7.9444 9.84404ZM16.9909 3.98165C20.5778 3.09548 24.3582 3.43878 27.7267 4.95655L28.1375 4.04483C24.5649 2.43507 20.5553 2.07097 16.7511 3.01084L16.9909 3.98165ZM27.7267 4.95655C31.0952 6.47433 33.8569 9.07875 35.5693 12.3526L36.4554 11.8891C34.6392 8.41685 31.7102 5.65459 28.1375 4.04483L27.7267 4.95655ZM35.7541 11.6927L22.6903 19.5719L23.2067 20.4282L36.2706 12.549L35.7541 11.6927ZM22.6926 20.4296L35.7958 28.233L36.3075 27.3739L23.2043 19.5704L22.6926 20.4296Z"
      fill="#F4F4F4"></path>
    <circle cx="18.9485" cy="12" r="2" fill="#F4F4F4"></circle>
  </symbol>
  <symbol fill="none" xmlns="http://www.w3.org/2000/svg" viewBox="0 0 40 40" id="Hobbies">
    <path
      d="M17.3469 8.67307L17.7003 9.02674L17.8469 8.88028V8.67307H17.3469ZM13.9719 4.56557L13.6217 4.92266L13.6307 4.93101L13.9719 4.56557ZM12.1969 3.27807L12.4275 2.83444L12.4203 2.83069L12.413 2.82718L12.1969 3.27807ZM9.9919 3.22807L9.74282 2.79452L9.74092 2.79562L9.9919 3.22807ZM8.9169 5.46807L8.41693 5.46243L8.41693 5.46313L8.9169 5.46807ZM9.3494 8.07807L9.83022 7.94089L9.83002 7.94021L9.3494 8.07807ZM3.7469 22.2731L4.10046 22.6266L3.7469 22.2731ZM3.2019 24.5681L3.69272 24.4727L3.69269 24.4725L3.2019 24.5681ZM4.1019 26.8256L4.53908 26.5829L4.53851 26.5819L4.1019 26.8256ZM8.1669 31.9956L7.8131 32.3489L7.81335 32.3491L8.1669 31.9956ZM13.3369 36.0606L13.5806 35.624L13.5795 35.6234L13.3369 36.0606ZM15.5944 36.9606L15.499 37.4514L15.5007 37.4517L15.5944 36.9606ZM17.8894 36.4156L18.2423 36.7698L18.243 36.7691L17.8894 36.4156ZM31.9269 22.3781L32.3813 22.1694C32.313 22.0207 32.1763 21.9148 32.0152 21.8859C31.8541 21.857 31.6891 21.9088 31.5733 22.0245L31.9269 22.3781ZM32.0519 24.7256L32.5493 24.7767L32.5495 24.7745L32.0519 24.7256ZM31.8694 27.6656L31.3694 27.6607L31.3692 27.6832L31.371 27.7056L31.8694 27.6656ZM31.9167 28.2543L31.4216 28.3243L32.4151 28.2143L31.9167 28.2543ZM31.8769 27.9731L32.372 27.903L31.3787 28.0149L31.8769 27.9731ZM34.3682 30.2641V30.7641V30.2641ZM36.8594 27.9731L37.3577 28.0149L37.3583 28.0071L37.3587 27.9993L36.8594 27.9731ZM36.8669 27.8306L37.3662 27.8568L37.3666 27.8497L37.3668 27.8425L36.8669 27.8306ZM36.8569 27.5381L36.3574 27.56L36.3579 27.5721L36.359 27.5841L36.8569 27.5381ZM31.6794 17.7181L32.1162 17.4747L32.1161 17.4746L31.6794 17.7181ZM22.4419 8.48307L22.6845 8.04589L22.6845 8.04586L22.4419 8.48307ZM20.1844 7.58307L20.2815 7.09257L20.2781 7.09193L20.1844 7.58307ZM17.8894 8.13057L18.2421 8.48494L18.2423 8.48476L17.8894 8.13057ZM17.3469 8.67057L16.9942 8.3162L16.8469 8.46278V8.67057H17.3469ZM13.7844 12.2331L13.431 11.8794L13.4306 11.8798L13.7844 12.2331ZM13.2519 16.3031L12.8217 16.5579L12.8255 16.5644L12.8296 16.5707L13.2519 16.3031ZM16.9285 21.7513C17.1305 21.9396 17.4469 21.9285 17.6352 21.7265C17.8234 21.5245 17.8123 21.2081 17.6103 21.0198L16.9285 21.7513ZM17.7844 11.7681L18.2404 11.5629L18.2335 11.5477L18.2257 11.533L17.7844 11.7681ZM18.2419 12.6806L18.6788 12.4374L18.6786 12.4371L18.2419 12.6806ZM22.3094 17.8506L22.6632 17.4973L22.663 17.497L22.3094 17.8506ZM27.4794 21.9156L27.7228 21.4788L27.7217 21.4782L27.4794 21.9156ZM28.3919 22.3731L28.5947 21.9161L28.5925 21.9151L28.3919 22.3731ZM24.3669 19.7342L24.047 20.1185L24.3669 19.7342ZM17.761 8.3929C16.603 6.68106 15.4068 5.22136 14.3132 4.20012L13.6307 4.93101C14.652 5.88477 15.8009 7.28007 16.9328 8.95323L17.761 8.3929ZM14.322 4.20858C13.7619 3.65936 13.1235 3.19627 12.4275 2.83444L11.9663 3.72169C12.5745 4.0379 13.1324 4.44259 13.6218 4.92255L14.322 4.20858ZM12.413 2.82718C11.8258 2.54577 10.7675 2.2058 9.74282 2.79453L10.241 3.66161C10.8263 3.32534 11.483 3.49036 11.9808 3.72896L12.413 2.82718ZM9.74092 2.79562C8.57521 3.47218 8.42473 4.7713 8.41693 5.46243L9.41687 5.47371C9.42408 4.83483 9.57359 4.04896 10.2429 3.66051L9.74092 2.79562ZM8.41693 5.46313C8.40875 6.29193 8.59015 7.24455 8.86878 8.21593L9.83002 7.94021C9.56365 7.01158 9.41006 6.1642 9.41688 5.473L8.41693 5.46313ZM8.86859 8.21524C9.37164 9.97851 10.2888 12.1162 11.4984 14.3234L12.3754 13.8428C11.19 11.68 10.3072 9.61263 9.83022 7.94089L8.86859 8.21524ZM11.5833 13.7295L3.39335 21.9195L4.10046 22.6266L12.2905 14.4366L11.5833 13.7295ZM3.39335 21.9195C2.52014 22.7927 2.57392 23.9588 2.71111 24.6636L3.69269 24.4725C3.57488 23.8673 3.58867 23.1384 4.10046 22.6266L3.39335 21.9195ZM2.71109 24.6635C2.86269 25.4435 3.2197 26.2708 3.66529 27.0692L4.53851 26.5819C4.11911 25.8304 3.81612 25.1076 3.69272 24.4727L2.71109 24.6635ZM3.66472 27.0682C4.56317 28.687 6.02522 30.5585 7.8131 32.3489L8.52071 31.6423C6.77858 29.8977 5.38064 28.0992 4.53908 26.5829L3.66472 27.0682ZM7.81335 32.3491C9.60414 34.1399 11.4757 35.5994 13.0943 36.4977L13.5795 35.6234C12.0631 34.7817 10.2647 33.3862 8.52046 31.642L7.81335 32.3491ZM13.0932 36.4972C13.8917 36.9428 14.719 37.2998 15.499 37.4514L15.6898 36.4697C15.0548 36.3464 14.3321 36.0434 13.5806 35.624L13.0932 36.4972ZM15.5007 37.4517C16.2032 37.5858 17.3665 37.6424 18.2423 36.7698L17.5365 36.0614C17.0223 36.5737 16.2956 36.5854 15.6881 36.4694L15.5007 37.4517ZM18.243 36.7691L32.2805 22.7316L31.5733 22.0245L17.5358 36.062L18.243 36.7691ZM31.4725 22.5867C31.6999 23.082 31.6631 23.5702 31.5543 24.6766L32.5495 24.7745C32.6507 23.746 32.7439 22.9591 32.3813 22.1694L31.4725 22.5867ZM31.5545 24.6745C31.4792 25.4078 31.3822 26.3591 31.3694 27.6607L32.3694 27.6705C32.3816 26.417 32.4746 25.5033 32.5493 24.7767L31.5545 24.6745ZM31.371 27.7056L31.4183 28.2943L32.4151 28.2143L32.3678 27.6255L31.371 27.7056ZM32.4117 28.1843L32.372 27.903L31.3818 28.0431L31.4216 28.3243L32.4117 28.1843ZM31.3787 28.0149C31.4415 28.7645 31.7837 29.4631 32.3374 29.9723L33.0143 29.2362C32.6452 28.8968 32.4171 28.431 32.3751 27.9313L31.3787 28.0149ZM32.3374 29.9723C32.8911 30.4815 33.6159 30.7641 34.3682 30.7641V29.7641C33.8667 29.7641 33.3835 29.5757 33.0143 29.2362L32.3374 29.9723ZM34.3682 30.7641C35.1204 30.7641 35.8452 30.4815 36.3989 29.9723L35.722 29.2362C35.3528 29.5757 34.8696 29.7641 34.3682 29.7641V30.7641ZM36.3989 29.9723C36.9526 29.4631 37.2948 28.7645 37.3577 28.0149L36.3612 27.9313C36.3192 28.431 36.0911 28.8968 35.722 29.2362L36.3989 29.9723ZM37.3668 27.8425C37.3695 27.7255 37.3655 27.6085 37.3548 27.4921L36.359 27.5841C36.3662 27.662 36.3689 27.7404 36.367 27.8187L37.3668 27.8425ZM37.3564 27.5161C37.2137 24.2715 35.5464 20.3827 32.4799 18.3842L31.9339 19.222C34.6674 21.0035 36.2252 24.5547 36.3574 27.56L37.3564 27.5161ZM32.6681 18.6099C32.5054 18.2215 32.3211 17.8425 32.1162 17.4747L31.2426 17.9614C31.4295 18.2967 31.5974 18.6422 31.7457 18.9962L32.6681 18.6099ZM32.1161 17.4746C31.2155 15.8592 29.7563 13.9879 27.9655 12.197L27.2583 12.9041C29.0025 14.6483 30.3983 16.447 31.2427 17.9615L32.1161 17.4746ZM27.9655 12.197C26.1749 10.4065 24.3033 8.94435 22.6845 8.04589L22.1993 8.92024C23.7155 9.76178 25.5139 11.1597 27.2583 12.9041L27.9655 12.197ZM22.6845 8.04586C21.8865 7.60313 21.0602 7.24667 20.2815 7.09258L20.0873 8.07356C20.7236 8.19946 21.4473 8.50301 22.1993 8.92028L22.6845 8.04586ZM20.2781 7.09193C19.5742 6.9576 18.4117 6.9043 17.5365 7.77638L18.2423 8.48476C18.7571 7.97183 19.4846 7.95853 20.0907 8.0742L20.2781 7.09193ZM17.5367 7.7762L16.9942 8.3162L17.6996 9.02494L18.2421 8.48494L17.5367 7.7762ZM16.8469 8.67057V8.67307H17.8469V8.67057H16.8469ZM12.8296 16.5707C14.1932 18.7223 15.6368 20.5475 16.9285 21.7513L17.6103 21.0198C16.402 19.8937 15.0106 18.1439 13.6742 16.0354L12.8296 16.5707ZM17.3284 11.9732C17.4687 12.285 17.6276 12.6054 17.8052 12.924L18.6786 12.4371C18.5162 12.1458 18.3701 11.8511 18.2404 11.5629L17.3284 11.9732ZM17.805 12.9237C18.7057 14.5419 20.165 16.4133 21.9558 18.2041L22.663 17.497C20.9188 15.7529 19.5231 13.9542 18.6788 12.4374L17.805 12.9237ZM27.236 22.3523C27.5515 22.5282 27.871 22.6908 28.1913 22.8311L28.5925 21.9151C28.3078 21.7903 28.0173 21.6429 27.7228 21.4788L27.236 22.3523ZM12.2907 14.4364L14.1382 12.5864L13.4306 11.8798L11.5831 13.7298L12.2907 14.4364ZM11.5067 14.3379L12.8217 16.5579L13.6821 16.0482L12.3671 13.8282L11.5067 14.3379ZM16.8791 8.61335C16.7434 9.21658 16.6489 10.6998 17.3431 12.0031L18.2257 11.533C17.6799 10.5083 17.752 9.28953 17.8547 8.83272L16.8791 8.61335ZM28.1891 22.8301C28.7984 23.1005 29.5608 23.4196 30.2827 23.5059C31.0275 23.5949 31.8335 23.4417 32.3465 22.65L31.5073 22.1062C31.2785 22.4592 30.9314 22.5763 30.4013 22.5129C29.8484 22.4469 29.2142 22.191 28.5947 21.9161L28.1891 22.8301ZM21.9556 18.2039C22.6478 18.8971 23.3514 19.5395 24.047 20.1185L24.6867 19.3499C24.0156 18.7913 23.3346 18.1696 22.6632 17.4973L21.9556 18.2039ZM24.047 20.1185C25.1508 21.0371 26.24 21.8004 27.2371 22.3529L27.7217 21.4782C26.7918 20.9629 25.7543 20.2384 24.6867 19.3499L24.047 20.1185ZM24.627 20.1612C25.3668 19.7105 26.6422 19.1179 28.0272 18.8255C29.4207 18.5312 30.8401 18.5577 31.9473 19.2304L32.4665 18.3758C31.0457 17.5125 29.3251 17.5293 27.8206 17.847C26.3076 18.1665 24.927 18.8075 24.1068 19.3072L24.627 20.1612ZM14.1378 12.5867L17.7003 9.02674L16.9935 8.31939L13.431 11.8794L14.1378 12.5867ZM36.3676 27.8043L36.3601 27.9468L37.3587 27.9993L37.3662 27.8568L36.3676 27.8043Z"
      fill="#F4F4F4"></path>
  </symbol>
  <symbol fill="none" xmlns="http://www.w3.org/2000/svg" viewBox="0 0 40 40" id="Jewelry">
    <path
      d="M20 36.6667C26.9036 36.6667 32.5 31.0702 32.5 24.1667C32.5 17.2631 26.9036 11.6667 20 11.6667C13.0964 11.6667 7.5 17.2631 7.5 24.1667C7.5 31.0702 13.0964 36.6667 20 36.6667Z"
      stroke="#F4F4F4" stroke-linecap="round" stroke-linejoin="round"></path>
    <path d="M14.1667 6.66668L16.6667 3.33334H23.3784L25.8334 6.66668L20.0001 11.6667L14.1667 6.66668Z" stroke="#F4F4F4"
      stroke-linecap="round" stroke-linejoin="round"></path>
  </symbol>
  <symbol fill="none" xmlns="http://www.w3.org/2000/svg" viewBox="0 0 40 40" id="Music">
    <path
      d="M35.728 10.8777V25.6091M14.1677 13.8669V31.8023M35.728 10.8777L14.1677 13.8669V6.23923L35.728 3.25V10.8777Z"
      stroke="#F4F4F4" stroke-linecap="round" stroke-linejoin="round"></path>
    <path
      d="M9.21991 36.75C11.9524 36.75 14.1676 34.5348 14.1676 31.8023C14.1676 29.0698 11.9524 26.8546 9.21991 26.8546C6.48737 26.8546 4.27222 29.0698 4.27222 31.8023C4.27222 34.5348 6.48737 36.75 9.21991 36.75Z"
      stroke="#F4F4F4" stroke-linecap="round" stroke-linejoin="round"></path>
    <path
      d="M30.7802 30.5568C33.5127 30.5568 35.7279 28.3416 35.7279 25.6091C35.7279 22.8766 33.5127 20.6614 30.7802 20.6614C28.0477 20.6614 25.8325 22.8766 25.8325 25.6091C25.8325 28.3416 28.0477 30.5568 30.7802 30.5568Z"
      stroke="#F4F4F4" stroke-linecap="round" stroke-linejoin="round"></path>
  </symbol>
  <symbol fill="none" xmlns="http://www.w3.org/2000/svg" viewBox="0 0 40 40" id="Pharmacy">
    <path
      d="M30.9709 4.66817C31.0637 4.40811 30.9282 4.12201 30.6682 4.02913C30.4081 3.93625 30.122 4.07178 30.0291 4.33183L30.9709 4.66817ZM20.5 17.5C20.5 17.2239 20.2761 17 20 17C19.7239 17 19.5 17.2239 19.5 17.5H20.5ZM19.5 30C19.5 30.2761 19.7239 30.5 20 30.5C20.2761 30.5 20.5 30.2761 20.5 30H19.5ZM26 24.25C26.2761 24.25 26.5 24.0261 26.5 23.75C26.5 23.4739 26.2761 23.25 26 23.25V24.25ZM14 23.25C13.7239 23.25 13.5 23.4739 13.5 23.75C13.5 24.0261 13.7239 24.25 14 24.25V23.25ZM33.6225 14.1325L34.0969 14.2906L33.6225 14.1325ZM30.7108 24.1325L30.2365 24.2906L30.7108 24.1325ZM30.7108 22.8675L30.2365 22.7094L30.7108 22.8675ZM6.51334 32.7978L6.04518 32.6222L6.51334 32.7978ZM9.73666 22.7978L10.2048 22.6222L9.73666 22.7978ZM9.73666 24.2022L10.2048 24.3778L9.73666 24.2022ZM6.51334 14.2022L6.04518 14.3778L6.51334 14.2022ZM30.0291 4.33183L27.5291 11.3318L28.4709 11.6682L30.9709 4.66817L30.0291 4.33183ZM28 11H8.386V12H28V11ZM6.04518 14.3778L9.26849 22.9733L10.2048 22.6222L6.98151 14.0267L6.04518 14.3778ZM9.26849 24.0267L6.04518 32.6222L6.98151 32.9733L10.2048 24.3778L9.26849 24.0267ZM8.386 36H31.7251V35H8.386V36ZM34.0969 32.7094L31.1852 23.9743L30.2365 24.2906L33.1482 33.0257L34.0969 32.7094ZM31.1852 23.0257L34.0969 14.2906L33.1482 13.9743L30.2365 22.7094L31.1852 23.0257ZM31.7251 11H28V12H31.7251V11ZM19.5 17.5V23.75H20.5V17.5H19.5ZM19.5 23.75V30H20.5V23.75H19.5ZM20 24.25H26V23.25H20V24.25ZM20 23.25H14V24.25H20V23.25ZM34.0969 14.2906C34.6365 12.6717 33.4315 11 31.7251 11V12C32.749 12 33.4719 13.003 33.1482 13.9743L34.0969 14.2906ZM31.1852 23.9743C31.0825 23.6664 31.0825 23.3336 31.1852 23.0257L30.2365 22.7094C30.0654 23.2226 30.0654 23.7774 30.2365 24.2906L31.1852 23.9743ZM31.7251 36C33.4315 36 34.6365 34.3283 34.0969 32.7094L33.1482 33.0257C33.4719 33.997 32.749 35 31.7251 35V36ZM6.04518 32.6222C5.43229 34.2566 6.64049 36 8.386 36V35C7.33869 35 6.61377 33.9539 6.98151 32.9733L6.04518 32.6222ZM9.26849 22.9733C9.39583 23.3129 9.39583 23.6871 9.26849 24.0267L10.2048 24.3778C10.4171 23.8118 10.4171 23.1882 10.2048 22.6222L9.26849 22.9733ZM8.386 11C6.64049 11 5.43229 12.7434 6.04518 14.3778L6.98151 14.0267C6.61377 13.0461 7.33869 12 8.386 12V11Z"
      fill="#F4F4F4"></path>
  </symbol>
  <symbol fill="none" xmlns="http://www.w3.org/2000/svg" viewBox="0 0 40 40" id="Popular">
    <path
      d="M24.1189 29.9544L24.4278 29.5612L24.1189 29.9544ZM15.8813 29.9544L15.5724 29.5612L15.8813 29.9544ZM14.7559 30.8386L15.0648 31.2318L14.7559 30.8386ZM25.2443 30.8386L24.9354 31.2318L25.2443 30.8386ZM16.6667 6.02771H23.3334V5.02771H16.6667V6.02771ZM32.8334 15.5277V26.9071H33.8334V15.5277H32.8334ZM7.16675 26.9071V15.5277H6.16675V26.9071H7.16675ZM25.5532 30.4455L24.4278 29.5612L23.81 30.3475L24.9354 31.2318L25.5532 30.4455ZM15.5724 29.5612L14.4469 30.4455L15.0648 31.2318L16.1902 30.3476L15.5724 29.5612ZM24.4278 29.5612C23.4488 28.792 22.6802 28.187 22.0102 27.7794C21.3287 27.3648 20.7021 27.124 20.0001 27.124V28.124C20.4509 28.124 20.8951 28.2716 21.4905 28.6338C22.0974 29.003 22.8117 29.5632 23.81 30.3475L24.4278 29.5612ZM16.1902 30.3476C17.1884 29.5632 17.9028 29.003 18.5097 28.6338C19.1051 28.2716 19.5493 28.124 20.0001 28.124V27.124C19.298 27.124 18.6715 27.3649 17.99 27.7794C17.32 28.187 16.5514 28.792 15.5724 29.5612L16.1902 30.3476ZM6.16675 26.9071C6.16675 29.1261 6.16544 30.8476 6.3479 32.096C6.52953 33.3388 6.91741 34.293 7.85534 34.7489L8.29247 33.8495C7.82324 33.6214 7.50754 33.1157 7.33739 31.9514C7.16805 30.7928 7.16675 29.1601 7.16675 26.9071H6.16675ZM14.4469 30.4455C12.6753 31.8375 11.3907 32.8451 10.3751 33.4278C9.35445 34.0133 8.7617 34.0776 8.29247 33.8495L7.85534 34.7489C8.79326 35.2048 9.78322 34.9202 10.8727 34.2952C11.9671 33.6674 13.3199 32.6028 15.0648 31.2318L14.4469 30.4455ZM32.8334 26.9071C32.8334 29.1601 32.8321 30.7928 32.6628 31.9514C32.4926 33.1157 32.1769 33.6214 31.7077 33.8495L32.1448 34.7489C33.0828 34.293 33.4706 33.3388 33.6523 32.096C33.8347 30.8476 33.8334 29.1261 33.8334 26.9071H32.8334ZM24.9354 31.2318C26.6803 32.6028 28.0331 33.6674 29.1275 34.2952C30.2169 34.9202 31.2069 35.2048 32.1448 34.7489L31.7077 33.8495C31.2385 34.0776 30.6457 34.0133 29.6251 33.4278C28.6094 32.8451 27.3249 31.8375 25.5532 30.4455L24.9354 31.2318ZM23.3334 6.02771C25.7046 6.02771 27.4326 6.02877 28.7531 6.20631C30.0593 6.38191 30.8915 6.72188 31.5154 7.34573L32.2225 6.63862C31.3819 5.79801 30.3034 5.40574 28.8864 5.21523C27.4838 5.02665 25.6763 5.02771 23.3334 5.02771V6.02771ZM33.8334 15.5277C33.8334 13.1848 33.8345 11.3774 33.6459 9.97473C33.4554 8.55771 33.0631 7.47924 32.2225 6.63862L31.5154 7.34573C32.1392 7.96958 32.4792 8.80185 32.6548 10.108C32.8324 11.4285 32.8334 13.1566 32.8334 15.5277H33.8334ZM16.6667 5.02771C14.3239 5.02771 12.5164 5.02665 11.1138 5.21523C9.69675 5.40574 8.61828 5.79801 7.77766 6.63862L8.48477 7.34573C9.10862 6.72188 9.94089 6.38191 11.247 6.20631C12.5675 6.02877 14.2956 6.02771 16.6667 6.02771V5.02771ZM7.16675 15.5277C7.16675 13.1566 7.16781 11.4285 7.34535 10.108C7.52095 8.80185 7.86092 7.96958 8.48477 7.34573L7.77766 6.63862C6.93704 7.47924 6.54478 8.55771 6.35426 9.97473C6.16569 11.3774 6.16675 13.1848 6.16675 15.5277H7.16675Z"
      fill="#F4F4F4"></path>
  </symbol>
  <symbol fill="none" xmlns="http://www.w3.org/2000/svg" viewBox="0 0 40 40" id="Premium">
    <path
      d="M27.8895 15.0522L32.6675 12.7217C34.268 11.9411 36.0138 13.4838 35.4361 15.1681L31.6966 26.0712C30.4833 30.1557 9.51667 30.7392 8.30342 26.0712L4.56386 15.1681C3.98616 13.4838 5.73201 11.9411 7.33245 12.7217L12.1105 15.0522C13.0463 15.5086 14.1757 15.1707 14.7071 14.2754L18.2801 8.25505C19.055 6.94937 20.945 6.94937 21.7199 8.25505L25.2929 14.2754C25.8243 15.1707 26.9537 15.5086 27.8895 15.0522Z"
      stroke="#F4F4F4"></path>
    <path
      d="M9.77134 32.3775C9.5394 32.2277 9.22989 32.2942 9.08003 32.5261C8.93017 32.7581 8.99672 33.0676 9.22866 33.2175L9.77134 32.3775ZM30.4941 33.2373C30.7369 33.1059 30.8273 32.8025 30.6959 32.5596C30.5645 32.3167 30.2611 32.2263 30.0182 32.3577L30.4941 33.2373ZM9.22866 33.2175C10.3133 33.9182 11.9201 34.4008 13.738 34.7081C15.5684 35.0175 17.663 35.1572 19.7603 35.1418C21.858 35.1263 23.97 34.9555 25.8362 34.6393C27.693 34.3246 29.3433 33.8598 30.4941 33.2373L30.0182 32.3577C29.0094 32.9035 27.4847 33.3456 25.6691 33.6533C23.8628 33.9594 21.8048 34.1267 19.7529 34.1418C17.7005 34.1569 15.6657 34.0198 13.9046 33.7221C12.1311 33.4223 10.6845 32.9675 9.77134 32.3775L9.22866 33.2175Z"
      fill="#F4F4F4"></path>
  </symbol>
  <symbol fill="none" xmlns="http://www.w3.org/2000/svg" viewBox="0 0 40 40" id="Promotions">
    <path
      d="M32.582 18.3418C31.8237 16.6349 30.7213 15.103 29.3438 13.8418L28.207 12.7988C28.1684 12.7643 28.122 12.7399 28.0717 12.7276C28.0215 12.7153 27.969 12.7155 27.9189 12.7283C27.8687 12.741 27.8225 12.7658 27.7842 12.8006C27.7459 12.8354 27.7167 12.879 27.6992 12.9277L27.1914 14.3847C26.875 15.2988 26.293 16.2324 25.4688 17.1503C25.4141 17.2089 25.3516 17.2246 25.3086 17.2285C25.2656 17.2324 25.1992 17.2246 25.1406 17.1699C25.0859 17.123 25.0586 17.0527 25.0625 16.9824C25.207 14.6308 24.5039 11.9785 22.9648 9.09175C21.6914 6.69331 19.9219 4.82222 17.7109 3.51753L16.0977 2.56831C15.8867 2.44331 15.6172 2.60738 15.6289 2.85347L15.7148 4.72847C15.7734 6.00972 15.625 7.14253 15.2734 8.08394C14.8438 9.23628 14.2266 10.3066 13.4375 11.2675C12.8884 11.9354 12.266 12.5394 11.582 13.0683C9.93479 14.3346 8.59536 15.9571 7.66406 17.8144C6.73505 19.6879 6.25113 21.7506 6.25 23.8418C6.25 25.6855 6.61328 27.4707 7.33203 29.1543C8.02604 30.7752 9.02757 32.2463 10.2813 33.4863C11.5469 34.7363 13.0156 35.7207 14.6523 36.4042C16.3477 37.1152 18.1445 37.4746 20 37.4746C21.8555 37.4746 23.6523 37.1152 25.3477 36.4082C26.9803 35.7286 28.465 34.7375 29.7188 33.4902C30.9844 32.2402 31.9766 30.7792 32.668 29.1582C33.3856 27.4792 33.7538 25.6716 33.75 23.8457C33.75 21.9394 33.3594 20.0878 32.582 18.3418Z"
      stroke="#F4F4F4"></path>
  </symbol>
  <symbol fill="none" xmlns="http://www.w3.org/2000/svg" viewBox="0 0 40 40" id="Retro">
    <path
      d="M13.3093 35.0108V37.5C13.3093 38.6045 14.2048 39.5 15.3093 39.5H24.6906C25.7952 39.5 26.6906 38.6045 26.6906 37.5V35.0108M13.3093 35.0108V32.5215C13.3093 31.417 14.2048 30.5215 15.3093 30.5215H17.6259M13.3093 35.0108H26.6906M26.6906 35.0108V32.5215C26.6906 31.417 25.7952 30.5215 24.6906 30.5215H22.518M22.518 30.5215L26.2127 12.0284C26.46 10.791 25.5134 9.6366 24.2515 9.6366H15.765C14.4976 9.6366 13.5498 10.8003 13.8064 12.0414L17.6259 30.5215M22.518 30.5215H17.6259"
      stroke="#F4F4F4"></path>
    <path
      d="M23.3131 4.14749C23.3131 5.87394 21.874 7.29498 20.0721 7.29498C18.2701 7.29498 16.8311 5.87394 16.8311 4.14749C16.8311 2.42104 18.2701 1 20.0721 1C21.874 1 23.3131 2.42104 23.3131 4.14749Z"
      stroke="#F4F4F4"></path>
  </symbol>
  <symbol fill="none" xmlns="http://www.w3.org/2000/svg" viewBox="0 0 40 40" id="Sports">
    <path
      d="M19.9999 13.3333L26.3399 17.94M19.9999 13.3333L13.6599 17.94M19.9999 13.3333V8.33334M26.3399 17.94L23.9183 25.3933M26.3399 17.94L30.8333 15.8333M23.9183 25.3933H16.0833M23.9199 25.3933L26.6666 29.1667M16.0816 25.3933L13.6599 17.94M16.0816 25.3933L13.3333 29.1667M13.6599 17.94L9.16659 15.8333M9.16659 15.8333L3.41659 21.6667M9.16659 15.8333L7.49992 8.97501M30.8333 15.8333L36.5833 21.6667M30.8333 15.8333L32.4999 8.97501M19.9999 8.33334L14.3733 4.30668M19.9999 8.33334L25.6266 4.30668M13.3333 29.1667L5.56325 28.3333M13.3333 29.1667L17.4999 36.48M26.6666 29.1667L34.4366 28.3333M26.6666 29.1667L22.4999 36.48M36.6666 20C36.6666 29.205 29.2049 36.6667 19.9999 36.6667C10.7949 36.6667 3.33325 29.205 3.33325 20C3.33325 10.795 10.7949 3.33334 19.9999 3.33334C29.2049 3.33334 36.6666 10.795 36.6666 20Z"
      stroke="#F4F4F4" stroke-linecap="round" stroke-linejoin="round"></path>
  </symbol>
  <symbol fill="none" xmlns="http://www.w3.org/2000/svg" viewBox="0 0 40 40" id="Stationery">
    <path
      d="M31.8015 4.71994L31.4481 4.36629L31.448 4.3664L31.8015 4.71994ZM36 6.4605L35.5 6.46036L36 6.4605ZM35.2791 8.19962L35.6314 8.55436L35.6325 8.55327L35.2791 8.19962ZM34.8553 12.6959L34.5018 12.3423L34.5017 12.3424L34.8553 12.6959ZM13.8883 33.6656L14.2409 34.0201L14.2419 34.0192L13.8883 33.6656ZM13.4136 33.9325L13.294 33.4471L13.2923 33.4475L13.4136 33.9325ZM5.26474 35.9698L5.38556 36.455L5.38601 36.4549L5.26474 35.9698ZM4.74625 35.9629L4.87995 35.4811L4.74625 35.9629ZM4.03018 34.7352L3.54511 34.614L3.545 34.6144L4.03018 34.7352ZM6.0674 26.5861L6.55247 26.7074L6.55255 26.707L6.0674 26.5861ZM6.33428 26.1134L5.98072 25.7599L5.98012 25.7605L6.33428 26.1134ZM25.9771 6.46997L25.6243 6.11568L25.6236 6.11642L25.9771 6.46997ZM16.1669 11.4968C15.9716 11.692 15.9715 12.0086 16.1667 12.2039C16.3619 12.3992 16.6785 12.3993 16.8738 12.2041L16.1669 11.4968ZM23.231 5.1437L23.5844 5.49735L23.5845 5.49724L23.231 5.1437ZM31.8515 5.37705L32.1551 5.07349L31.448 4.3664L31.1444 4.66995L31.8515 5.37705ZM32.155 5.0736C32.337 4.89167 32.5531 4.74737 32.7909 4.64896L32.4085 3.72497C32.0493 3.87361 31.723 4.09153 31.4481 4.36629L32.155 5.0736ZM32.7909 4.64896C33.0287 4.55054 33.2835 4.49992 33.5409 4.5L33.5412 3.5C33.1525 3.49989 32.7676 3.57633 32.4085 3.72497L32.7909 4.64896ZM33.5409 4.5C33.7982 4.50008 34.053 4.55084 34.2908 4.6494L34.6737 3.72563C34.3147 3.57678 33.9298 3.50011 33.5412 3.5L33.5409 4.5ZM34.2908 4.6494C34.5285 4.74795 34.7445 4.89237 34.9264 5.07441L35.6337 4.36752C35.359 4.0926 35.0328 3.87448 34.6737 3.72563L34.2908 4.6494ZM34.9264 5.07441C35.1083 5.25644 35.2526 5.47253 35.351 5.71033L36.275 5.32793C36.1264 4.96879 35.9085 4.64244 35.6337 4.36752L34.9264 5.07441ZM35.351 5.71033C35.4495 5.94813 35.5001 6.20299 35.5 6.46036L36.5 6.46065C36.5001 6.07197 36.4237 5.68707 36.275 5.32793L35.351 5.71033ZM35.5 6.46036C35.4999 6.71772 35.4492 6.97255 35.3506 7.2103L36.2744 7.59324C36.4232 7.23419 36.4999 6.84933 36.5 6.46065L35.5 6.46036ZM35.3506 7.2103C35.252 7.44804 35.1076 7.66404 34.9256 7.84597L35.6325 8.55327C35.9074 8.27851 36.1255 7.95229 36.2744 7.59324L35.3506 7.2103ZM34.9267 7.84489L34.6231 8.1464L35.3279 8.85588L35.6314 8.55436L34.9267 7.84489ZM34.6023 8.83389C35.0366 9.32098 35.2681 9.95576 35.2495 10.6081L36.249 10.6367C36.2751 9.72919 35.9529 8.84606 35.3487 8.16839L34.6023 8.83389ZM35.2495 10.6081C35.2308 11.2604 34.9633 11.8809 34.5018 12.3423L35.2089 13.0495C35.8509 12.4075 36.223 11.5443 36.249 10.6367L35.2495 10.6081ZM34.5017 12.3424L13.5347 33.3121L14.2419 34.0192L35.2089 13.0494L34.5017 12.3424ZM13.5356 33.3112C13.4689 33.3776 13.3854 33.4245 13.294 33.4471L13.5332 34.418C13.8009 34.3521 14.0455 34.2145 14.2409 34.0201L13.5356 33.3112ZM13.2923 33.4475L5.14347 35.4847L5.38601 36.4549L13.5349 34.4176L13.2923 33.4475ZM5.14392 35.4846C5.05709 35.5063 4.96616 35.505 4.87995 35.4811L4.61256 36.4447C4.86503 36.5148 5.13132 36.5183 5.38556 36.455L5.14392 35.4846ZM4.87995 35.4811C4.79373 35.4572 4.71517 35.4114 4.6519 35.3481L3.94478 36.0552C4.13005 36.2405 4.36009 36.3746 4.61256 36.4447L4.87995 35.4811ZM4.6519 35.3481C4.58863 35.2848 4.54281 35.2063 4.51888 35.12L3.55529 35.3874C3.62534 35.6399 3.75952 35.8699 3.94478 36.0552L4.6519 35.3481ZM4.51888 35.12C4.49496 35.0338 4.49375 34.9429 4.51537 34.856L3.545 34.6144C3.48169 34.8687 3.48524 35.1349 3.55529 35.3874L4.51888 35.12ZM4.51526 34.8565L6.55247 26.7074L5.58233 26.4648L3.54511 34.614L4.51526 34.8565ZM6.55255 26.707C6.57525 26.616 6.62221 26.5328 6.68843 26.4664L5.98012 25.7605C5.78621 25.9551 5.6487 26.1986 5.58225 26.4651L6.55255 26.707ZM6.68784 26.467L26.3307 6.82352L25.6236 6.11642L5.98072 25.7599L6.68784 26.467ZM16.8738 12.2041L23.5844 5.49735L22.8775 4.79004L16.1669 11.4968L16.8738 12.2041ZM23.5845 5.49724C24.0462 5.0355 24.6672 4.76799 25.3199 4.74961L25.2917 3.75001C24.3836 3.77558 23.5197 4.14776 22.8774 4.79016L23.5845 5.49724ZM25.3199 4.74961C25.9726 4.73124 26.6076 4.96338 27.0945 5.39841L27.7607 4.65266C27.0833 4.04742 26.1998 3.72444 25.2917 3.75001L25.3199 4.74961ZM27.7608 5.39834C28.229 4.97992 28.8348 4.74848 29.4627 4.74817L29.4622 3.74817C28.5886 3.7486 27.7458 4.0706 27.0944 4.65273L27.7608 5.39834ZM29.4627 4.74817C30.0905 4.74785 30.6966 4.97868 31.1652 5.39664L31.8308 4.65036C31.1789 4.06888 30.3357 3.74773 29.4622 3.74817L29.4627 4.74817ZM31.1444 5.37705L34.622 8.85469L35.3291 8.14759L31.8515 4.66995L31.1444 5.37705ZM27.0748 4.67124L25.6243 6.11568L26.3299 6.82426L27.7804 5.37983L27.0748 4.67124Z"
      fill="#F4F4F4"></path>
  </symbol>
  <symbol fill="none" xmlns="http://www.w3.org/2000/svg" viewBox="0 0 40 40" id="TGGlobal">
    <path fill-rule="evenodd" clip-rule="evenodd"
      d="M9.98422 10.9481C12.3505 8.33146 15.7278 6.64643 19.5 6.50909V14.2431C17.7867 14.1959 16.1001 13.9066 14.5304 13.39C12.795 12.8188 11.2479 11.9848 9.98422 10.9481ZM14.2178 14.3398C15.8911 14.8906 17.6835 15.1961 19.5 15.2435V19.5H6.50909C6.61576 16.5703 7.65601 13.8787 9.34122 11.714C10.7115 12.8402 12.3737 13.7329 14.2178 14.3398ZM6.50909 20.5C6.61576 23.4297 7.65601 26.1213 9.34122 28.286C10.6198 27.2351 12.1548 26.3859 13.858 25.783C15.6313 25.1553 17.551 24.8074 19.5 24.7565V20.5H6.50909ZM20.5 20.5V24.7565C22.5444 24.8099 24.5545 25.19 26.3962 25.8753C27.9993 26.4718 29.4451 27.2884 30.6588 28.286C32.344 26.1213 33.3842 23.4297 33.4909 20.5H20.5ZM33.4909 19.5C33.3842 16.5703 32.344 13.8787 30.6588 11.714C29.424 12.7289 27.9499 13.5559 26.3155 14.1545C24.4961 14.8209 22.5148 15.1909 20.5 15.2435V19.5H33.4909ZM14.1917 26.7257C15.8544 26.1372 17.6608 25.8075 19.5 25.7569V33.4909C15.7278 33.3536 12.3505 31.6685 9.98422 29.0519C11.1627 28.0851 12.5902 27.2926 14.1917 26.7257ZM20.5 25.7569V33.4909C24.2722 33.3536 27.6495 31.6685 30.0158 29.0519C28.8974 28.1344 27.5537 27.3729 26.0475 26.8125C24.3215 26.1703 22.43 25.81 20.5 25.7569ZM20.5 6.50909V14.2431C22.402 14.1907 24.2663 13.8401 25.9716 13.2155C27.5073 12.653 28.8778 11.8817 30.0158 10.9481C27.6495 8.33146 24.2722 6.64643 20.5 6.50909ZM31.3692 29.0004C28.7132 32.3509 24.6076 34.5 20 34.5C11.9919 34.5 5.5 28.0081 5.5 20C5.5 11.9919 11.9919 5.5 20 5.5C28.0081 5.5 34.5 11.9919 34.5 20C34.5 23.3786 33.3445 26.4873 31.4071 28.9525L31.4115 28.9567L31.3692 29.0004Z"
      fill="#F4F4F4"></path>
  </symbol>
  <symbol fill="none" xmlns="http://www.w3.org/2000/svg" viewBox="0 0 40 40" id="Tourism">
    <path
      d="M20 8.5V9V8.5ZM20.5 19.0455C20.5 18.7693 20.2761 18.5455 20 18.5455C19.7239 18.5455 19.5 18.7693 19.5 19.0455H20.5ZM20 16.3112L20.0267 15.8119L20 16.3112ZM19.5 17.2762C19.5 17.5524 19.7239 17.7762 20 17.7762C20.2761 17.7762 20.5 17.5524 20.5 17.2762H19.5ZM12.5874 25.817L12.0887 25.7806L12.5874 25.817ZM27.2696 25.6141L26.7727 25.6703L27.2696 25.6141ZM38.5185 29.075C37.5277 24.8877 35.5687 19.649 32.5418 15.4442C29.516 11.241 25.3665 8 20 8V9C24.915 9 28.8008 11.9591 31.7302 16.0285C34.6585 20.0963 36.5746 25.2027 37.5453 29.3052L38.5185 29.075ZM20 8C14.5193 8 10.3792 11.3471 7.3924 15.5961C4.40459 19.8465 2.5125 25.0749 1.52474 29.0368L2.49504 29.2787C3.46541 25.3866 5.31798 20.2861 8.2105 16.1711C11.1041 12.0547 14.9799 9 20 9V8ZM3.89936 32H6.62554V31H3.89936V32ZM6.62554 32H20V31H6.62554V32ZM20 32H33.5346V31H20V32ZM33.5346 32H36.1407V31H33.5346V32ZM19.5 19.0455V27.7308H20.5V19.0455H19.5ZM20 28.2308H25.3237V27.2308H20V28.2308ZM20 27.2308H14.4684V28.2308H20V27.2308ZM13.0861 25.8534C13.2305 23.8753 13.7247 21.514 14.8106 19.6996C15.8816 17.9103 17.5041 16.6782 19.9733 16.8105L20.0267 15.8119C17.1023 15.6553 15.1658 17.1589 13.9525 19.1861C12.7542 21.1882 12.2389 23.7242 12.0887 25.7806L13.0861 25.8534ZM19.9733 16.8105C22.4132 16.9411 23.9557 18.0204 24.9724 19.6027C26.0096 21.2169 26.5134 23.3796 26.7727 25.6703L27.7664 25.5578C27.502 23.2221 26.9773 20.873 25.8137 19.0621C24.6296 17.2194 22.7992 15.9604 20.0267 15.8119L19.9733 16.8105ZM19.5 16.3112V17.2762H20.5V16.3112H19.5ZM14.4684 27.2308C13.6494 27.2308 13.0319 26.5957 13.0861 25.8534L12.0887 25.7806C11.9869 27.1755 13.1446 28.2308 14.4684 28.2308V27.2308ZM25.3237 28.2308C26.7543 28.2308 27.9317 27.0183 27.7664 25.5578L26.7727 25.6703C26.8666 26.4992 26.197 27.2308 25.3237 27.2308V28.2308ZM37.5453 29.3052C37.7499 30.1699 37.0779 31 36.1407 31V32C37.6741 32 38.8827 30.6146 38.5185 29.075L37.5453 29.3052ZM1.52474 29.0368C1.13856 30.5858 2.34827 32 3.89936 32V31C2.95288 31 2.27704 30.1531 2.49504 29.2787L1.52474 29.0368Z"
      fill="#F4F4F4"></path>
  </symbol>
  <symbol fill="none" xmlns="http://www.w3.org/2000/svg" viewBox="0 0 40 40" id="AllCategories">
    <rect x="6.6665" y="6.66669" width="10" height="11.6667" rx="1" stroke="#F4F4F4" stroke-linejoin="round"></rect>
    <rect x="6.6665" y="24.9999" width="10" height="8.33333" rx="1" stroke="#F4F4F4" stroke-linejoin="round"></rect>
    <rect x="23.3333" y="6.66669" width="10" height="8.33333" rx="1" stroke="#F4F4F4" stroke-linejoin="round"></rect>
    <rect x="23.3333" y="21.6667" width="10" height="11.6667" rx="1" stroke="#F4F4F4" stroke-linejoin="round"></rect>
  </symbol>
  <symbol fill="none" xmlns="http://www.w3.org/2000/svg" viewBox="0 0 40 40" id="AnimalSupplies">
    <path
      d="M26.4 4C28.1872 4 29.6 5.4128 29.6 7.2C29.6 7.4752 29.5568 7.7568 29.4496 8.1008L29.1504 9.0496L29.8496 9.6992L30.3008 10.1504L30.9504 10.8496L31.8992 10.5504C32.2432 10.4432 32.5248 10.4 32.8 10.4C34.5872 10.4 36 11.8128 36 13.6C36 15.3872 34.5872 16.8 32.8 16.8C31.632 16.8 30.6688 16.1808 30.0992 15.2496L29 13.4992L27.6 14.9504L14.9504 27.6L13.5008 29L15.2496 30.1008C16.1808 30.6688 16.8 31.632 16.8 32.8C16.8 34.5872 15.3872 36 13.6 36C11.8128 36 10.4 34.5872 10.4 32.8C10.4 32.5248 10.4432 32.2432 10.5504 31.8992L10.8496 30.9504L10.1504 30.2992L9.7008 29.8512L9.0496 29.1504L8.0992 29.4496C7.7568 29.5568 7.4752 29.6 7.2 29.6C5.4128 29.6 4 28.1872 4 26.4C4 24.6128 5.4128 23.2 7.2 23.2C8.368 23.2 9.3312 23.8192 9.9008 24.7504L11 26.4992L12.4 25.0496L25.0496 12.4L26.5008 11L24.7504 9.8992C23.8192 9.3312 23.2 8.368 23.2 7.2C23.2 5.4128 24.6128 4 26.4 4Z"
      stroke="#F4F4F4" stroke-linejoin="round"></path>
  </symbol>
  <symbol fill="none" xmlns="http://www.w3.org/2000/svg" viewBox="0 0 40 40" id="Appliances">
    <circle cx="24.5" cy="8.25" r="1.5" fill="#F4F4F4"></circle>
    <circle cx="20" cy="24.75" r="7.5" stroke="#F4F4F4"></circle>
    <circle cx="28.5" cy="8.25" r="1.5" fill="#F4F4F4"></circle>
    <path
      d="M7 12.75V5.75C7 4.64543 7.89543 3.75 9 3.75H31C32.1046 3.75 33 4.64543 33 5.75V12.75M7 12.75V34.25C7 35.3546 7.89543 36.25 9 36.25H31C32.1046 36.25 33 35.3546 33 34.25V12.75M7 12.75H33"
      stroke="#F4F4F4"></path>
  </symbol>
  <symbol fill="none" xmlns="http://www.w3.org/2000/svg" viewBox="0 0 40 40" id="Automobile">
    <path fill-rule="evenodd" clip-rule="evenodd"
      d="M12.1729 6.00006H28.0994C30.0916 6.00006 31.7802 7.4661 32.0598 9.4386L32.8482 15.0001H20H7.19821L8.2374 9.28452C8.58321 7.38256 10.2397 6.00006 12.1729 6.00006ZM6.16016 15.1192L6.18182 15.0001L6.36364 14.0001H5.5C4.67157 14.0001 4 13.3285 4 12.5001C4 11.6716 4.67157 11.0001 5.5 11.0001H6.90909L7.25353 9.10564C7.6858 6.72818 9.75645 5.00006 12.1729 5.00006H28.0994C30.5897 5.00006 32.7003 6.83261 33.0499 9.29823L33.2912 11.0001H34.5C35.3284 11.0001 36 11.6716 36 12.5001C36 13.3285 35.3284 14.0001 34.5 14.0001H33.7165L33.8582 15.0001L33.8767 15.1302C35.1058 15.5052 36 16.6482 36 18.0001V28.0001C36 29.6569 34.6569 31.0001 33 31.0001H32V32.9999C32 34.1045 31.1046 34.9999 30 34.9999C28.8954 34.9999 28 34.1045 28 32.9999V31.0001H12V32.9999C12 34.1045 11.1046 34.9999 10 34.9999C8.89543 34.9999 8 34.1045 8 32.9999V31.0001H7C5.34315 31.0001 4 29.6569 4 28.0001V18.0001C4 16.6347 4.91207 15.4824 6.16016 15.1192ZM33 16.0001H32.99H20H7.01639H7C5.89543 16.0001 5 16.8955 5 18.0001V28.0001C5 29.1046 5.89543 30.0001 7 30.0001H8V29.9999H9H11H12V30.0001H28V29.9999H29H31H32V30.0001H33C34.1046 30.0001 35 29.1046 35 28.0001V18.0001C35 16.8955 34.1046 16.0001 33 16.0001ZM9 32.9999V31.0001H11V32.9999C11 33.5522 10.5523 33.9999 10 33.9999C9.44772 33.9999 9 33.5522 9 32.9999ZM29 32.9999V31.0001H31V32.9999C31 33.5522 30.5523 33.9999 30 33.9999C29.4477 33.9999 29 33.5522 29 32.9999ZM14 23.0001C14 24.1046 13.1046 25.0001 12 25.0001C10.8954 25.0001 10 24.1046 10 23.0001C10 21.8955 10.8954 21.0001 12 21.0001C13.1046 21.0001 14 21.8955 14 23.0001ZM28 25.0001C29.1046 25.0001 30 24.1046 30 23.0001C30 21.8955 29.1046 21.0001 28 21.0001C26.8954 21.0001 26 21.8955 26 23.0001C26 24.1046 26.8954 25.0001 28 25.0001Z"
      fill="#F4F4F4"></path>
  </symbol>
  <symbol fill="none" xmlns="http://www.w3.org/2000/svg" viewBox="0 0 40 40" id="BeautyAndHealth">
    <path
      d="M14.8333 18.7329V18.7329C13.8208 18.7329 13 19.5537 13 20.5662V36.5C13 37.6046 13.8954 38.5 15 38.5H25C26.1046 38.5 27 37.6046 27 36.5V20.7329C27 19.6283 26.1046 18.7329 25 18.7329V18.7329M14.8333 18.7329V15.1621C14.8333 14.2416 15.5795 13.4954 16.5 13.4954V13.4954M14.8333 18.7329H25M25 18.7329V14.9954C25 14.167 24.3284 13.4954 23.5 13.4954V13.4954M16.5 13.4954V5.67139C16.5 5.26539 16.6179 4.86371 16.8932 4.56534C17.7336 3.65468 19.3772 2.41828 21.4514 1.83066C22.5436 1.52126 23.5 2.44437 23.5 3.5795V13.4954M16.5 13.4954H23.5"
      stroke="#F4F4F4"></path>
  </symbol>
  <symbol fill="none" xmlns="http://www.w3.org/2000/svg" viewBox="0 0 40 40" id="Books">
    <path
      d="M12.188 35H6.5C5.39543 35 4.5 34.1046 4.5 33V12.0588M12.188 35H18.124C19.2286 35 20.124 34.1046 20.124 33V28.4454M12.188 35V28.4454M12.188 5.5042H6.5C5.39543 5.5042 4.5 6.39963 4.5 7.5042V12.0588M12.188 5.5042V12.0588M12.188 5.5042H18.3593C19.3339 5.5042 20.124 6.29429 20.124 7.26891V7.26891M4.5 12.0588H12.188M12.188 12.0588V28.4454M12.188 28.4454H20.124M20.124 28.4454V7.26891M20.124 7.26891L25.6342 5.58853C26.6972 5.26433 27.8207 5.86905 28.1356 6.93492L29.3514 11.0504M20.124 7.26891L21.8713 13.5714M21.8713 13.5714L29.3514 11.0504M21.8713 13.5714L26.1346 28.9496M29.3514 11.0504L33.7126 26.4286M26.1346 28.9496L27.2688 33.0406C27.5673 34.1174 28.6904 34.7408 29.7622 34.4245L33.6021 33.2912C34.6535 32.9809 35.2592 31.882 34.9601 30.8273L33.7126 26.4286M26.1346 28.9496L33.7126 26.4286"
      stroke="#F4F4F4"></path>
  </symbol>
  <symbol fill="none" xmlns="http://www.w3.org/2000/svg" viewBox="0 0 40 40" id="Childrenproducts">
    <path d="M17.0112 9.12V9.61454V10.1091M21.9928 9.15242V10.0767" stroke="#F4F4F4" stroke-linecap="round"></path>
    <path
      d="M24.7122 5.23463C24.7122 5.23463 26.2537 1.23265 29.3519 3.93993C32.6857 6.853 27.8053 8.76271 27.8053 8.76271"
      stroke="#F4F4F4"></path>
    <path
      d="M14.2629 5.23463C14.2629 5.23463 12.7214 1.23265 9.62319 3.93993C6.28945 6.853 11.1698 8.76271 11.1698 8.76271"
      stroke="#F4F4F4"></path>
    <path
      d="M28.8558 11.6441C28.8558 16.0818 24.7258 19.7881 19.4876 19.7881C14.2494 19.7881 10.1194 16.0818 10.1194 11.6441C10.1194 7.20638 14.2494 3.5 19.4876 3.5C24.7258 3.5 28.8558 7.20638 28.8558 11.6441Z"
      stroke="#F4F4F4"></path>
    <path
      d="M24.2114 15.4618C24.2114 17.8146 22.1343 19.7881 19.487 19.7881C16.8398 19.7881 14.7627 17.8146 14.7627 15.4618C14.7627 14.3021 15.2588 13.5027 16.0675 12.9712C16.902 12.4228 18.0997 12.144 19.487 12.144C20.8744 12.144 22.0721 12.4228 22.9066 12.9712C23.7153 13.5027 24.2114 14.3021 24.2114 15.4618Z"
      stroke="#F4F4F4"></path>
    <path
      d="M21.229 15.4516C21.229 16.2132 20.4493 16.8305 19.4875 16.8305C18.5258 16.8305 17.7461 16.2132 17.7461 15.4516C17.7461 14.69 18.5025 14.5255 19.4643 14.5255C20.4261 14.5255 21.229 14.69 21.229 15.4516Z"
      stroke="#F4F4F4"></path>
    <path
      d="M30.0059 29.1301C30.0059 29.1301 28.7402 28.19 28.1952 27.2034C27.5058 25.9554 27.0342 23.7458 27.0342 23.7458M32.1913 30.0847C31.1505 29.3357 29.7437 28.9322 28.1952 28.9322C24.9893 28.9322 22.3903 30.6617 22.3903 33.6067C22.3903 36.5517 24.9893 37 28.1952 37C31.4011 37 34 36.5517 34 33.6067C34 32.0841 33.3054 30.8865 32.1913 30.0847ZM32.1913 30.0847C32.1913 30.0847 33.2165 28.4085 33.4195 27.2034C33.6839 25.6339 33.3725 24.6701 32.839 23.1695C31.6653 19.8682 26.9743 17.0327 26.9743 17.0327M11.9417 16.8305C11.9417 16.8305 7.73243 20.1339 6.71731 23.1695C6.21226 24.6798 5.76612 25.6552 6.13682 27.2034C6.44251 28.4801 7.87827 30.0847 7.87827 30.0847"
      stroke="#F4F4F4" stroke-linecap="round" stroke-linejoin="round"></path>
    <path
      d="M11.9414 27.2034L12.3791 27.4452L11.9414 27.2034ZM12.6134 23.6414C12.6711 23.3714 12.9367 23.1992 13.2068 23.2568C13.4768 23.3144 13.649 23.5801 13.5914 23.8501L12.6134 23.6414ZM6.63662 33.6067C6.63662 34.268 6.78176 34.7493 7.01317 35.1086C7.24449 35.4679 7.58663 35.7436 8.04469 35.953C8.9863 36.3834 10.3379 36.5 11.9414 36.5V37.5C10.3391 37.5 8.78825 37.3924 7.62893 36.8625C7.03652 36.5917 6.52857 36.2031 6.1724 35.65C5.81633 35.0971 5.63662 34.4178 5.63662 33.6067H6.63662ZM11.9414 36.5C13.545 36.5 14.8966 36.3834 15.8382 35.953C16.2963 35.7436 16.6384 35.4679 16.8697 35.1086C17.1011 34.7493 17.2463 34.268 17.2463 33.6067H18.2463C18.2463 34.4178 18.0666 35.0971 17.7105 35.65C17.3543 36.2031 16.8464 36.5917 16.254 36.8625C15.0946 37.3924 13.5438 37.5 11.9414 37.5V36.5ZM17.2463 33.6067C17.2463 32.2988 16.6763 31.274 15.743 30.5628C14.7979 29.8426 13.4603 29.4322 11.9414 29.4322V28.4322C13.6285 28.4322 15.1933 28.8866 16.3491 29.7674C17.5168 30.6572 18.2463 31.9697 18.2463 33.6067H17.2463ZM11.9414 29.4322C10.4226 29.4322 9.08499 29.8426 8.13987 30.5628C7.20657 31.274 6.63662 32.2988 6.63662 33.6067H5.63662C5.63662 31.9697 6.36611 30.6572 7.53376 29.7674C8.68957 28.8866 10.2544 28.4322 11.9414 28.4322V29.4322ZM10.9296 28.9917C10.4975 28.7401 10.4975 28.7401 10.4975 28.7401C10.4975 28.7401 10.4975 28.7401 10.4976 28.7401C10.4976 28.7401 10.4976 28.7401 10.4976 28.74C10.4976 28.7399 10.4977 28.7398 10.4978 28.7396C10.498 28.7393 10.4984 28.7387 10.4988 28.738C10.4997 28.7365 10.501 28.7342 10.5027 28.7313C10.5062 28.7253 10.5114 28.7163 10.5182 28.7045C10.5319 28.681 10.5521 28.6461 10.578 28.6011C10.63 28.5111 10.705 28.3808 10.7969 28.2197C10.981 27.8973 11.2327 27.4524 11.5038 26.9617L12.3791 27.4452C12.1052 27.9411 11.851 28.3903 11.6654 28.7154C11.5725 28.8781 11.4968 29.0098 11.4441 29.101C11.4178 29.1466 11.3973 29.182 11.3833 29.2062C11.3763 29.2182 11.3709 29.2275 11.3673 29.2337C11.3655 29.2368 11.3641 29.2392 11.3632 29.2408C11.3627 29.2416 11.3624 29.2422 11.3621 29.2426C11.362 29.2428 11.3619 29.243 11.3618 29.2431C11.3618 29.2432 11.3618 29.2432 11.3618 29.2433C11.3617 29.2433 11.3617 29.2433 11.3617 29.2433C11.3617 29.2433 11.3617 29.2433 10.9296 28.9917ZM11.5038 26.9617C11.8199 26.3894 12.0977 25.5703 12.3 24.8682C12.3996 24.5223 12.4783 24.2141 12.532 23.9927C12.5589 23.882 12.5794 23.7933 12.5932 23.7327C12.6 23.7024 12.6052 23.6791 12.6086 23.6636C12.6103 23.6559 12.6115 23.6501 12.6124 23.6464C12.6128 23.6445 12.6131 23.6432 12.6132 23.6423C12.6133 23.6419 12.6134 23.6416 12.6134 23.6415C12.6134 23.6414 12.6134 23.6414 12.6134 23.6414C12.6134 23.6413 12.6134 23.6414 12.6134 23.6414C12.6134 23.6414 12.6134 23.6414 13.1024 23.7458C13.5914 23.8501 13.5914 23.8502 13.5914 23.8503C13.5914 23.8503 13.5914 23.8504 13.5913 23.8504C13.5913 23.8506 13.5913 23.8507 13.5912 23.8509C13.5912 23.8513 13.591 23.8518 13.5909 23.8525C13.5906 23.8538 13.5902 23.8556 13.5897 23.858C13.5887 23.8627 13.5872 23.8694 13.5853 23.8782C13.5815 23.8957 13.5758 23.9211 13.5684 23.9537C13.5537 24.0187 13.532 24.1124 13.5039 24.2284C13.4476 24.4602 13.3653 24.7825 13.2609 25.145C13.055 25.8597 12.7524 26.7694 12.3791 27.4452L11.5038 26.9617ZM17.7463 33.1067H22.3901V34.1067H17.7463V33.1067Z"
      fill="#F4F4F4"></path>
  </symbol>
</svg>