<svg width="10" height="6" viewBox="0 0 10 6" fill="none" xmlns="http://www.w3.org/2000/svg">
<path d="M1.35355 2.64645C1.15829 2.45118 0.841709 2.45118 0.646447 2.64645C0.451184 2.84171 0.451184 3.15829 0.646447 3.35355L1.35355 2.64645ZM3.5 5.5L3.14645 5.85355C3.33517 6.04228 3.63885 6.0495 3.83634 5.86997L3.5 5.5ZM9.33634 0.86997C9.54067 0.684217 9.55572 0.367992 9.36997 0.163664C9.18422 -0.0406652 8.86799 -0.0557235 8.66366 0.13003L9.33634 0.86997ZM0.646447 3.35355L3.14645 5.85355L3.85355 5.14645L1.35355 2.64645L0.646447 3.35355ZM3.83634 5.86997L9.33634 0.86997L8.66366 0.13003L3.16366 5.13003L3.83634 5.86997Z" fill="#F4F4F4"/>
</svg>
